SplineFontDB: 3.0
FontName: Lohit-Devanagari
FullName: Lohit Devanagari
FamilyName: Lohit Devanagari
Weight: Book
Copyright: Copyright (c) 2003, Automatic Control Equipments, Pune, INDIA.\n  Copyright 2006 Modular Infotech Pvt Ltd.\n  Copyright 2009 Red Hat, Inc.\n\n  Licensed under the GNU General Public License, version 2 (see file COPYING) along with the following exception:\n\n  As a special exception, if you create a document which uses this font, and embed this font or unaltered portions of this font into the document, this font does not by itself cause the resulting document to be covered by the GNU General Public License. This exception does not however invalidate any other reasons why the document might be covered by the GNU General Public License. If you modify this font, you may extend this exception to your version of the font, but you are not obligated to do so. If you do not wish to do so, delete this exception statement from your version.
Version: 2.4.3
ItalicAngle: 0
UnderlinePosition: -399
UnderlineWidth: 26
Ascent: 819
Descent: 205
LayerCount: 2
Layer: 0 1 "Back"  1
Layer: 1 1 "Fore"  0
XUID: [1021 808 1214965479 5361592]
FSType: 0
OS2Version: 1
OS2_WeightWidthSlopeOnly: 0
OS2_UseTypoMetrics: 1
CreationTime: 1159459513
ModificationTime: 1264743564
PfmFamily: 17
TTFWeight: 400
TTFWidth: 5
LineGap: 266
VLineGap: 0
Panose: 2 0 6 0 0 0 0 0 0 0
OS2TypoAscent: 180
OS2TypoAOffset: 1
OS2TypoDescent: -160
OS2TypoDOffset: 1
OS2TypoLinegap: 0
OS2WinAscent: 0
OS2WinAOffset: 1
OS2WinDescent: 0
OS2WinDOffset: 1
HheadAscent: 0
HheadAOffset: 1
HheadDescent: 0
HheadDOffset: 1
OS2SubXSize: 932
OS2SubYSize: 866
OS2SubXOff: 0
OS2SubYOff: 266
OS2SupXSize: 932
OS2SupYSize: 866
OS2SupXOff: 0
OS2SupYOff: 666
OS2StrikeYSize: 67
OS2StrikeYPos: 333
OS2Vendor: 'ACE '
Lookup: 6 0 0 "'pres' Pre Base Substitutions in Devanagari lookup 60"  {"'pres' Pre Base Substitutions in Devanagari lookup 60-1"  } ['pres' ('deva' <'dflt' > ) ]

StartChar: .notdef
Encoding: 65536 -1 0
Width: 1065
GlyphClass: 2
Flags: W
LayerCount: 2
Fore
SplineSet
133 0 m 1,0,-1
 133 932 l 1,1,-1
 932 932 l 1,2,-1
 932 0 l 1,3,-1
 133 0 l 1,4,-1
 133 0 l 1,0,-1
200 67 m 1,5,-1
 866 67 l 1,6,-1
 866 866 l 1,7,-1
 200 866 l 1,8,-1
 200 67 l 1,9,-1
 200 67 l 1,5,-1
EndSplineSet
EndChar

StartChar: SignI_extended_1
Encoding: 65537 -1 1
Width: 266
GlyphClass: 2
Flags: W
LayerCount: 2
Fore
SplineSet
-13 606 m 1,0,-1
 -13 666 l 1,1,-1
 100 666 l 1,2,3
 91 678 91 678 85.5 693 c 128,-1,4
 80 708 80 708 80 726 c 0,5,6
 80 816 80 816 155 880.5 c 128,-1,7
 230 945 230 945 393 945 c 0,8,9
 538 945 538 945 653 892.5 c 128,-1,10
 768 840 768 840 932 679 c 1,11,-1
 852 679 l 1,12,13
 736 803 736 803 602 852 c 0,14,15
 508 886 508 886 403 886 c 0,16,17
 268 886 268 886 207 839 c 128,-1,18
 146 792 146 792 146 726 c 0,19,20
 146 708 146 708 151.5 693 c 128,-1,21
 157 678 157 678 166 666 c 1,22,-1
 280 666 l 1,23,-1
 280 606 l 1,24,-1
 166 606 l 1,25,-1
 166 0 l 1,26,-1
 100 0 l 1,27,-1
 100 606 l 1,28,-1
 -13 606 l 1,29,-1
 -13 606 l 1,0,-1
EndSplineSet
EndChar

StartChar: exclam
Encoding: 33 33 4
Width: 339
GlyphClass: 2
Flags: W
LayerCount: 2
Fore
SplineSet
107 0 m 1,0,-1
 107 120 l 1,1,-1
 233 120 l 1,2,-1
 233 0 l 1,3,-1
 107 0 l 1,4,-1
 107 0 l 1,0,-1
146 233 m 1,5,-1
 100 739 l 1,6,-1
 240 739 l 1,7,-1
 193 233 l 1,8,-1
 146 233 l 1,9,-1
 146 233 l 1,5,-1
EndSplineSet
EndChar

StartChar: quotedbl
Encoding: 34 34 5
Width: 460
GlyphClass: 2
Flags: W
LayerCount: 2
Fore
SplineSet
188 664 m 1,0,-1
 138 664 l 1,1,-1
 100 875 l 1,2,-1
 180 875 l 1,3,-1
 188 664 l 1,4,-1
 188 664 l 1,0,-1
361 664 m 1,5,-1
 312 664 l 1,6,-1
 273 875 l 1,7,-1
 353 875 l 1,8,-1
 361 664 l 1,9,-1
 361 664 l 1,5,-1
EndSplineSet
EndChar

StartChar: quotesingle
Encoding: 39 39 6
Width: 287
GlyphClass: 2
Flags: W
LayerCount: 2
Fore
SplineSet
188 664 m 1,0,-1
 138 664 l 1,1,-1
 100 875 l 1,2,-1
 180 875 l 1,3,-1
 188 664 l 1,4,-1
 188 664 l 1,0,-1
EndSplineSet
EndChar

StartChar: parenleft
Encoding: 40 40 7
Width: 486
GlyphClass: 2
Flags: W
LayerCount: 2
Fore
SplineSet
306 -220 m 1,0,1
 206 -101 206 -101 153 50 c 128,-1,2
 100 201 100 201 100 366 c 0,3,4
 100 505 100 505 153 642.5 c 128,-1,5
 206 780 206 780 306 899 c 1,6,-1
 386 899 l 1,7,8
 280 772 280 772 223 635 c 128,-1,9
 166 498 166 498 166 366 c 0,10,11
 166 209 166 209 223 58 c 128,-1,12
 280 -93 280 -93 386 -220 c 1,13,-1
 306 -220 l 1,14,-1
 306 -220 l 1,0,1
EndSplineSet
EndChar

StartChar: parenright
Encoding: 41 41 8
Width: 466
GlyphClass: 2
Flags: W
LayerCount: 2
Fore
SplineSet
100 -220 m 1,0,1
 197 -104 197 -104 248.5 40 c 128,-1,2
 300 184 300 184 300 340 c 0,3,4
 300 495 300 495 248.5 639 c 128,-1,5
 197 783 197 783 100 899 c 1,6,-1
 166 899 l 1,7,8
 264 783 264 783 315 639 c 128,-1,9
 366 495 366 495 366 340 c 0,10,11
 366 184 366 184 315 40 c 128,-1,12
 264 -104 264 -104 166 -220 c 1,13,-1
 100 -220 l 1,14,-1
 100 -220 l 1,0,1
EndSplineSet
EndChar

StartChar: comma
Encoding: 44 44 9
Width: 359
GlyphClass: 2
Flags: W
LayerCount: 2
Fore
SplineSet
100 -133 m 1,0,-1
 153 100 l 1,1,-1
 260 100 l 1,2,-1
 160 -133 l 1,3,-1
 100 -133 l 1,4,-1
 100 -133 l 1,0,-1
EndSplineSet
EndChar

StartChar: hyphen
Encoding: 45 45 10
Width: 692
GlyphClass: 2
Flags: W
LayerCount: 2
Fore
SplineSet
100 293 m 1,0,-1
 100 366 l 1,1,-1
 593 366 l 1,2,-1
 593 293 l 1,3,-1
 100 293 l 1,4,-1
 100 293 l 1,0,-1
EndSplineSet
EndChar

StartChar: period
Encoding: 46 46 11
Width: 279
GlyphClass: 2
Flags: W
LayerCount: 2
Fore
SplineSet
100 0 m 1,0,-1
 100 100 l 1,1,-1
 180 100 l 1,2,-1
 180 0 l 1,3,-1
 100 0 l 1,4,-1
 100 0 l 1,0,-1
EndSplineSet
EndChar

StartChar: colon
Encoding: 58 58 12
Width: 279
GlyphClass: 2
Flags: W
LayerCount: 2
Fore
SplineSet
100 0 m 1,0,-1
 100 100 l 1,1,-1
 180 100 l 1,2,-1
 180 0 l 1,3,-1
 100 0 l 1,4,-1
 100 0 l 1,0,-1
100 386 m 1,5,-1
 100 486 l 1,6,-1
 180 486 l 1,7,-1
 180 386 l 1,8,-1
 100 386 l 1,9,-1
 100 386 l 1,5,-1
EndSplineSet
EndChar

StartChar: semicolon
Encoding: 59 59 13
Width: 366
GlyphClass: 2
Flags: W
LayerCount: 2
Fore
SplineSet
100 -133 m 1,0,-1
 160 100 l 1,1,-1
 266 100 l 1,2,-1
 160 -133 l 1,3,-1
 100 -133 l 1,4,-1
 100 -133 l 1,0,-1
160 353 m 1,5,-1
 160 426 l 1,6,-1
 253 426 l 1,7,-1
 253 353 l 1,8,-1
 160 353 l 1,9,-1
 160 353 l 1,5,-1
EndSplineSet
EndChar

StartChar: question
Encoding: 63 63 14
Width: 665
GlyphClass: 2
Flags: W
LayerCount: 2
Fore
SplineSet
233 0 m 1,0,-1
 233 87 l 1,1,-1
 326 87 l 1,2,-1
 326 0 l 1,3,-1
 233 0 l 1,4,-1
 233 0 l 1,0,-1
246 166 m 1,5,-1
 246 373 l 1,6,7
 358 403 358 403 428.5 462.5 c 128,-1,8
 499 522 499 522 499 586 c 0,9,10
 499 643 499 643 446.5 684.5 c 128,-1,11
 394 726 394 726 320 726 c 0,12,13
 274 726 274 726 227.5 703 c 128,-1,14
 181 680 181 680 140 639 c 1,15,-1
 100 692 l 1,16,17
 148 740 148 740 205 766 c 128,-1,18
 262 792 262 792 320 792 c 0,19,20
 422 792 422 792 494 731.5 c 128,-1,21
 566 671 566 671 566 586 c 0,22,23
 566 510 566 510 496.5 439 c 128,-1,24
 427 368 427 368 313 326 c 1,25,-1
 313 166 l 1,26,-1
 246 166 l 1,27,-1
 246 166 l 1,5,-1
EndSplineSet
EndChar

StartChar: underscore
Encoding: 95 95 15
Width: 912
GlyphClass: 2
Flags: W
LayerCount: 2
Fore
SplineSet
100 -330 m 1,0,-1
 100 -262 l 1,1,-1
 812 -262 l 1,2,-1
 812 -330 l 1,3,-1
 100 -330 l 1,4,-1
 100 -330 l 1,0,-1
EndSplineSet
EndChar

StartChar: grave
Encoding: 96 96 16
Width: 0
GlyphClass: 2
Flags: W
LayerCount: 2
Fore
SplineSet
141 664 m 1,0,-1
 92 664 l 1,1,-1
 0 875 l 1,2,-1
 87 875 l 1,3,-1
 141 664 l 1,4,-1
 141 664 l 1,0,-1
EndSplineSet
EndChar

StartChar: u0901
Encoding: 2305 2305 17
Width: 0
GlyphClass: 4
Flags: W
AnchorPoint: "Anchor-2" -127 5 mark 0
AnchorPoint: "Anchor-1" -127 5 mark 0
AnchorPoint: "Anchor-0" -120 666 mark 0
LayerCount: 2
Fore
SplineSet
-132 759 m 5,0,1
 -210 759 -210 759 -270 811.5 c 132,-1,2
 -330 864 -330 864 -345 945 c 5,3,-1
 -272 945 l 5,4,5
 -262 891 -262 891 -222 855 c 132,-1,6
 -182 819 -182 819 -132 819 c 4,7,8
 -81 819 -81 819 -41 855 c 132,-1,9
 -1 891 -1 891 8 945 c 5,10,-1
 81 945 l 5,11,12
 67 864 67 864 7 811.5 c 132,-1,13
 -53 759 -53 759 -132 759 c 5,14,-1
 -132 759 l 5,0,1
-178 905 m 5,15,-1
 -178 992 l 5,16,-1
 -92 992 l 5,17,-1
 -92 905 l 5,18,-1
 -178 905 l 5,19,-1
 -178 905 l 5,15,-1
EndSplineSet
EndChar

StartChar: u0902
Encoding: 2306 2306 18
Width: 0
GlyphClass: 4
Flags: W
AnchorPoint: "Anchor-0" -133 666 mark 0
LayerCount: 2
Fore
SplineSet
-177 832 m 1,0,-1
 -177 925 l 1,1,-1
 -77 925 l 1,2,-1
 -77 832 l 1,3,-1
 -177 832 l 1,4,-1
 -177 832 l 1,0,-1
EndSplineSet
EndChar

StartChar: u0903
Encoding: 2307 2307 19
Width: 339
GlyphClass: 2
Flags: W
LayerCount: 2
Fore
SplineSet
166 107 m 1,0,1
 138 107 138 107 119 128 c 128,-1,2
 100 149 100 149 100 180 c 0,3,4
 100 210 100 210 119 231.5 c 128,-1,5
 138 253 138 253 166 253 c 0,6,7
 197 253 197 253 218.5 231.5 c 128,-1,8
 240 210 240 210 240 180 c 0,9,10
 240 149 240 149 218.5 128 c 128,-1,11
 197 107 197 107 166 107 c 1,12,-1
 166 107 l 1,0,1
166 399 m 1,13,14
 138 399 138 399 119 420.5 c 128,-1,15
 100 442 100 442 100 473 c 0,16,17
 100 503 100 503 119 524.5 c 128,-1,18
 138 546 138 546 166 546 c 0,19,20
 197 546 197 546 218.5 524.5 c 128,-1,21
 240 503 240 503 240 473 c 0,22,23
 240 442 240 442 218.5 420.5 c 128,-1,24
 197 399 197 399 166 399 c 1,25,-1
 166 399 l 1,13,14
EndSplineSet
EndChar

StartChar: u0905
Encoding: 2309 2309 20
Width: 768
GlyphClass: 2
Flags: W
AnchorPoint: "Anchor-0" 636 664 basechar 0
LayerCount: 2
Fore
SplineSet
309 47 m 1,0,1
 229 47 229 47 154 113.5 c 128,-1,2
 79 180 79 180 23 300 c 1,3,-1
 72 328 l 1,4,5
 120 226 120 226 182 169.5 c 128,-1,6
 244 113 244 113 309 113 c 0,7,8
 350 113 350 113 379.5 143.5 c 128,-1,9
 409 174 409 174 409 218 c 0,10,11
 409 272 409 272 375.5 309 c 128,-1,12
 342 346 342 346 296 346 c 0,13,14
 281 346 281 346 264.5 343 c 128,-1,15
 248 340 248 340 229 333 c 1,16,-1
 202 393 l 1,17,18
 262 398 262 398 308 434.5 c 128,-1,19
 354 471 354 471 354 513 c 0,20,21
 354 551 354 551 331 578.5 c 128,-1,22
 308 606 308 606 276 606 c 0,23,24
 237 606 237 606 195 581.5 c 128,-1,25
 153 557 153 557 116 513 c 1,26,-1
 69 559 l 1,27,28
 104 610 104 610 158.5 638 c 128,-1,29
 213 666 213 666 276 666 c 0,30,31
 337 666 337 666 379.5 621.5 c 128,-1,32
 422 577 422 577 422 513 c 0,33,34
 422 479 422 479 406 448 c 128,-1,35
 390 417 390 417 362 393 c 1,36,37
 413 364 413 364 452 348.5 c 128,-1,38
 491 333 491 333 515 333 c 0,39,40
 530 333 530 333 552 341.5 c 128,-1,41
 574 350 574 350 602 366 c 1,42,-1
 602 606 l 1,43,-1
 482 606 l 1,44,-1
 482 666 l 1,45,-1
 782 666 l 1,46,-1
 782 606 l 1,47,-1
 668 606 l 1,48,-1
 668 0 l 1,49,-1
 602 0 l 1,50,-1
 602 300 l 1,51,52
 586 286 586 286 569.5 279.5 c 128,-1,53
 553 273 553 273 535 273 c 0,54,55
 507 273 507 273 484.5 278.5 c 128,-1,56
 462 284 462 284 449 293 c 1,57,58
 462 282 462 282 468.5 263 c 128,-1,59
 475 244 475 244 475 220 c 0,60,61
 475 148 475 148 426.5 97.5 c 128,-1,62
 378 47 378 47 309 47 c 1,63,-1
 309 47 l 1,0,1
EndSplineSet
EndChar

StartChar: u0906
Encoding: 2310 2310 21
Width: 1042
GlyphClass: 2
Flags: W
AnchorPoint: "Anchor-0" 792 664 basechar 0
LayerCount: 2
Fore
SplineSet
310 47 m 1,0,1
 230 47 230 47 155 113.5 c 128,-1,2
 80 180 80 180 24 300 c 1,3,-1
 71 340 l 1,4,5
 121 232 121 232 183.5 172.5 c 128,-1,6
 246 113 246 113 310 113 c 0,7,8
 352 113 352 113 381 148.5 c 128,-1,9
 410 184 410 184 410 233 c 0,10,11
 410 280 410 280 377 313 c 128,-1,12
 344 346 344 346 297 346 c 0,13,14
 282 346 282 346 265.5 343 c 128,-1,15
 249 340 249 340 230 333 c 1,16,-1
 204 393 l 1,17,18
 264 398 264 398 310.5 436.5 c 128,-1,19
 357 475 357 475 357 519 c 0,20,21
 357 555 357 555 329.5 580.5 c 128,-1,22
 302 606 302 606 264 606 c 0,23,24
 232 606 232 606 193 581.5 c 128,-1,25
 154 557 154 557 117 513 c 1,26,-1
 71 559 l 1,27,28
 105 610 105 610 156.5 638 c 128,-1,29
 208 666 208 666 264 666 c 0,30,31
 330 666 330 666 376.5 623.5 c 128,-1,32
 423 581 423 581 423 519 c 0,33,34
 423 483 423 483 407 450 c 128,-1,35
 391 417 391 417 364 393 c 1,36,37
 409 366 409 366 453 353 c 128,-1,38
 497 340 497 340 537 340 c 0,39,40
 547 340 547 340 564 346.5 c 128,-1,41
 581 353 581 353 603 366 c 1,42,-1
 603 606 l 1,43,-1
 483 606 l 1,44,-1
 483 666 l 1,45,-1
 1056 666 l 1,46,-1
 1056 606 l 1,47,-1
 943 606 l 1,48,-1
 943 0 l 1,49,-1
 876 0 l 1,50,-1
 876 606 l 1,51,-1
 670 606 l 1,52,-1
 670 0 l 1,53,-1
 603 0 l 1,54,-1
 603 300 l 1,55,56
 587 286 587 286 570.5 279.5 c 128,-1,57
 554 273 554 273 537 273 c 0,58,59
 509 273 509 273 486 278.5 c 128,-1,60
 463 284 463 284 450 293 c 1,61,62
 463 282 463 282 470 263 c 128,-1,63
 477 244 477 244 477 220 c 0,64,65
 477 148 477 148 428.5 97.5 c 128,-1,66
 380 47 380 47 310 47 c 1,67,-1
 310 47 l 1,0,1
EndSplineSet
EndChar

StartChar: u0907
Encoding: 2311 2311 22
Width: 503
GlyphClass: 2
Flags: W
AnchorPoint: "Anchor-0" 377 664 basechar 0
LayerCount: 2
Fore
SplineSet
-13 606 m 1,0,-1
 -13 666 l 1,1,-1
 517 666 l 1,2,-1
 517 606 l 1,3,-1
 401 606 l 1,4,-1
 401 433 l 1,5,-1
 161 433 l 2,6,7
 145 433 145 433 133 425 c 128,-1,8
 121 417 121 417 121 406 c 0,9,10
 121 385 121 385 163.5 342.5 c 128,-1,11
 206 300 206 300 228 300 c 128,-1,12
 250 300 250 300 294 316.5 c 128,-1,13
 338 333 338 333 361 333 c 0,14,15
 399 333 399 333 426.5 299.5 c 128,-1,16
 454 266 454 266 454 220 c 0,17,18
 454 137 454 137 403.5 78.5 c 128,-1,19
 353 20 353 20 281 20 c 1,20,21
 306 -16 306 -16 348 -48 c 128,-1,22
 390 -80 390 -80 447 -107 c 1,23,-1
 414 -160 l 1,24,25
 342 -119 342 -119 288 -73 c 128,-1,26
 234 -27 234 -27 201 20 c 1,27,28
 134 20 134 20 87.5 45.5 c 128,-1,29
 41 71 41 71 41 107 c 0,30,31
 41 134 41 134 60.5 153.5 c 128,-1,32
 80 173 80 173 108 173 c 0,33,34
 146 173 146 173 183.5 146.5 c 128,-1,35
 221 120 221 120 248 73 c 1,36,37
 305 73 305 73 346 116.5 c 128,-1,38
 387 160 387 160 387 220 c 0,39,40
 387 238 387 238 379.5 252 c 128,-1,41
 372 266 372 266 361 266 c 0,42,43
 338 266 338 266 294 249.5 c 128,-1,44
 250 233 250 233 228 233 c 0,45,46
 185 233 185 233 119 298.5 c 128,-1,47
 53 364 53 364 53 406 c 0,48,49
 53 445 53 445 85 472 c 128,-1,50
 117 499 117 499 162 499 c 2,51,-1
 328 499 l 1,52,-1
 328 606 l 1,53,-1
 -13 606 l 1,54,-1
 -13 606 l 1,0,-1
EndSplineSet
EndChar

StartChar: u0908
Encoding: 2312 2312 23
Width: 510
GlyphClass: 2
Flags: W
AnchorPoint: "Anchor-0" 439 579.199 basechar 0
LayerCount: 2
Fore
SplineSet
415 -160 m 1,0,1
 344 -119 344 -119 290 -73 c 128,-1,2
 236 -27 236 -27 202 20 c 1,3,4
 136 20 136 20 89.5 45.5 c 128,-1,5
 43 71 43 71 43 107 c 0,6,7
 43 134 43 134 62 153.5 c 128,-1,8
 81 173 81 173 109 173 c 0,9,10
 148 173 148 173 185 146.5 c 128,-1,11
 222 120 222 120 249 73 c 1,12,13
 309 73 309 73 352 116.5 c 128,-1,14
 395 160 395 160 395 220 c 0,15,16
 395 238 395 238 385.5 252 c 128,-1,17
 376 266 376 266 362 266 c 0,18,19
 346 266 346 266 331.5 263 c 128,-1,20
 317 260 317 260 302 253 c 0,21,22
 281 244 281 244 262.5 238.5 c 128,-1,23
 244 233 244 233 229 233 c 0,24,25
 185 233 185 233 117 298.5 c 128,-1,26
 49 364 49 364 49 406 c 0,27,28
 49 445 49 445 82.5 472 c 128,-1,29
 116 499 116 499 162 499 c 2,30,-1
 336 499 l 1,31,-1
 336 606 l 1,32,-1
 -13 606 l 1,33,-1
 -13 666 l 1,34,-1
 321 666 l 1,35,36
 286 696 286 696 267.5 731 c 128,-1,37
 249 766 249 766 249 799 c 0,38,39
 249 860 249 860 295.5 902.5 c 128,-1,40
 342 945 342 945 409 945 c 0,41,42
 427 945 427 945 445 942 c 128,-1,43
 463 939 463 939 482 932 c 1,44,-1
 482 872 l 1,45,46
 454 883 454 883 436 887.5 c 128,-1,47
 418 892 418 892 409 892 c 0,48,49
 370 892 370 892 343 865 c 128,-1,50
 316 838 316 838 316 799 c 0,51,52
 316 762 316 762 338 726.5 c 128,-1,53
 360 691 360 691 398 666 c 1,54,-1
 523 666 l 1,55,-1
 523 606 l 1,56,-1
 402 606 l 1,57,-1
 402 433 l 1,58,-1
 162 433 l 2,59,60
 146 433 146 433 134.5 425 c 128,-1,61
 123 417 123 417 123 406 c 0,62,63
 123 385 123 385 165.5 342.5 c 128,-1,64
 208 300 208 300 229 300 c 0,65,66
 240 300 240 300 256.5 304.5 c 128,-1,67
 273 309 273 309 296 317 c 0,68,69
 316 325 316 325 333 329 c 128,-1,70
 350 333 350 333 362 333 c 0,71,72
 403 333 403 333 432.5 299.5 c 128,-1,73
 462 266 462 266 462 220 c 0,74,75
 462 137 462 137 413.5 78.5 c 128,-1,76
 365 20 365 20 296 20 c 1,77,78
 312 -16 312 -16 353.5 -47.5 c 128,-1,79
 395 -79 395 -79 455 -100 c 1,80,-1
 415 -160 l 1,81,-1
 415 -160 l 1,0,1
EndSplineSet
EndChar

StartChar: u0909
Encoding: 2313 2313 24
Width: 631
GlyphClass: 2
Flags: W
AnchorPoint: "Anchor-0" 461 664 basechar 0
LayerCount: 2
Fore
SplineSet
-13 606 m 1,0,-1
 -13 666 l 1,1,-1
 644 666 l 1,2,-1
 644 606 l 1,3,-1
 502 606 l 1,4,5
 522 583 522 583 532 555 c 128,-1,6
 542 527 542 527 542 499 c 0,7,8
 542 455 542 455 524 419.5 c 128,-1,9
 506 384 506 384 475 366 c 1,10,11
 518 352 518 352 543.5 308 c 128,-1,12
 569 264 569 264 569 206 c 0,13,14
 569 129 569 129 516 74.5 c 128,-1,15
 463 20 463 20 389 20 c 0,16,17
 286 20 286 20 190.5 128.5 c 128,-1,18
 95 237 95 237 23 433 c 1,19,-1
 77 457 l 1,20,21
 141 281 141 281 223 184 c 128,-1,22
 305 87 305 87 389 87 c 0,23,24
 435 87 435 87 468.5 122 c 128,-1,25
 502 157 502 157 502 206 c 0,26,27
 502 261 502 261 470.5 300.5 c 128,-1,28
 439 340 439 340 395 340 c 2,29,-1
 262 340 l 1,30,-1
 236 399 l 1,31,-1
 382 399 l 2,32,33
 421 399 421 399 448 428.5 c 128,-1,34
 475 458 475 458 475 499 c 0,35,36
 475 527 475 527 459 555 c 128,-1,37
 443 583 443 583 415 606 c 1,38,-1
 -13 606 l 1,39,-1
 -13 606 l 1,0,-1
EndSplineSet
EndChar

StartChar: u090A
Encoding: 2314 2314 25
Width: 921
GlyphClass: 2
Flags: W
AnchorPoint: "Anchor-0" 453 664 basechar 0
LayerCount: 2
Fore
SplineSet
-13 606 m 1,0,-1
 -13 666 l 1,1,-1
 935 666 l 1,2,-1
 935 606 l 1,3,-1
 495 606 l 1,4,5
 517 581 517 581 528 553.5 c 128,-1,6
 539 526 539 526 539 499 c 0,7,8
 539 454 539 454 519 419.5 c 128,-1,9
 499 385 499 385 466 373 c 1,10,11
 498 358 498 358 518 338 c 128,-1,12
 538 318 538 318 542 298 c 1,13,14
 565 353 565 353 609.5 386 c 128,-1,15
 654 419 654 419 706 419 c 0,16,17
 778 419 778 419 828.5 372.5 c 128,-1,18
 879 326 879 326 879 260 c 0,19,20
 879 193 879 193 849 135 c 128,-1,21
 819 77 819 77 766 40 c 1,22,-1
 722 89 l 1,23,24
 764 113 764 113 788 159 c 128,-1,25
 812 205 812 205 812 260 c 0,26,27
 812 301 812 301 781 330.5 c 128,-1,28
 750 360 750 360 706 360 c 0,29,30
 656 360 656 360 615 305 c 128,-1,31
 574 250 574 250 559 166 c 0,32,33
 549 103 549 103 497.5 61.5 c 128,-1,34
 446 20 446 20 380 20 c 0,35,36
 274 20 274 20 175.5 138.5 c 128,-1,37
 77 257 77 257 27 446 c 1,38,-1
 87 473 l 1,39,40
 132 302 132 302 214 194.5 c 128,-1,41
 296 87 296 87 380 87 c 0,42,43
 429 87 429 87 464 126 c 128,-1,44
 499 165 499 165 499 220 c 0,45,46
 499 269 499 269 464 304.5 c 128,-1,47
 429 340 429 340 380 340 c 2,48,-1
 260 340 l 1,49,-1
 233 399 l 1,50,-1
 366 399 l 2,51,52
 410 399 410 399 440.5 428.5 c 128,-1,53
 471 458 471 458 471 499 c 0,54,55
 471 523 471 523 454 551 c 128,-1,56
 437 579 437 579 406 606 c 1,57,-1
 -13 606 l 1,58,-1
 -13 606 l 1,0,-1
EndSplineSet
EndChar

StartChar: u090B
Encoding: 2315 2315 26
Width: 864
GlyphClass: 2
Flags: W
AnchorPoint: "Anchor-3" 471 26 basechar 0
AnchorPoint: "Anchor-0" 460 664 basechar 0
LayerCount: 2
Fore
SplineSet
205 493 m 1,0,1
 234 493 234 493 265 477.5 c 128,-1,2
 296 462 296 462 325 433 c 2,3,-1
 431 326 l 1,4,-1
 431 606 l 1,5,-1
 -13 606 l 1,6,-1
 -13 666 l 1,7,-1
 878 666 l 1,8,-1
 878 606 l 1,9,-1
 498 606 l 1,10,-1
 498 366 l 1,11,12
 513 360 513 360 531 356.5 c 128,-1,13
 549 353 549 353 571 353 c 0,14,15
 589 353 589 353 601 355 c 128,-1,16
 613 357 613 357 618 360 c 1,17,18
 609 373 609 373 603.5 388 c 128,-1,19
 598 403 598 403 598 419 c 0,20,21
 598 442 598 442 619 457.5 c 128,-1,22
 640 473 640 473 671 473 c 256,23,24
 702 473 702 473 723 453.5 c 128,-1,25
 744 434 744 434 744 406 c 0,26,27
 744 381 744 381 733.5 361 c 128,-1,28
 723 341 723 341 704 333 c 1,29,30
 762 276 762 276 793 218.5 c 128,-1,31
 824 161 824 161 824 113 c 0,32,33
 824 61 824 61 787 24 c 128,-1,34
 750 -13 750 -13 698 -13 c 0,35,36
 656 -13 656 -13 623 15 c 128,-1,37
 590 43 590 43 578 87 c 1,38,-1
 638 113 l 1,39,40
 642 87 642 87 659 70 c 128,-1,41
 676 53 676 53 698 53 c 0,42,43
 723 53 723 53 740.5 70.5 c 128,-1,44
 758 88 758 88 758 113 c 0,45,46
 758 157 758 157 726.5 207.5 c 128,-1,47
 695 258 695 258 638 306 c 1,48,49
 623 300 623 300 606.5 296.5 c 128,-1,50
 590 293 590 293 571 293 c 0,51,52
 546 293 546 293 528 296.5 c 128,-1,53
 510 300 510 300 498 306 c 1,54,-1
 498 0 l 1,55,-1
 431 0 l 1,56,-1
 431 253 l 1,57,-1
 158 127 l 1,58,-1
 119 180 l 1,59,-1
 378 300 l 1,60,-1
 305 373 l 2,61,62
 274 402 274 402 248 417.5 c 128,-1,63
 222 433 222 433 205 433 c 0,64,65
 177 433 177 433 138 415.5 c 128,-1,66
 99 398 99 398 52 366 c 1,67,-1
 12 413 l 1,68,69
 68 451 68 451 117 472 c 128,-1,70
 166 493 166 493 205 493 c 1,71,-1
 205 493 l 1,0,1
EndSplineSet
EndChar

StartChar: u090C
Encoding: 2316 2316 27
Width: 703
GlyphClass: 2
Flags: W
LayerCount: 2
Fore
SplineSet
250 0 m 1,0,1
 157 40 157 40 100.5 112.5 c 128,-1,2
 44 185 44 185 44 266 c 0,3,4
 44 346 44 346 92.5 402.5 c 128,-1,5
 141 459 141 459 210 459 c 0,6,7
 246 459 246 459 281.5 438 c 128,-1,8
 317 417 317 417 344 380 c 1,9,10
 364 410 364 410 393 430.5 c 128,-1,11
 422 451 422 451 457 459 c 1,12,-1
 457 606 l 1,13,-1
 -13 606 l 1,14,-1
 -13 666 l 1,15,-1
 716 666 l 1,16,-1
 716 606 l 1,17,-1
 523 606 l 1,18,-1
 523 459 l 1,19,20
 583 441 583 441 619.5 380.5 c 128,-1,21
 656 320 656 320 656 240 c 0,22,23
 656 168 656 168 615 112 c 128,-1,24
 574 56 574 56 510 40 c 0,25,26
 466 29 466 29 438 -1 c 128,-1,27
 410 -31 410 -31 410 -67 c 256,28,29
 410 -103 410 -103 439.5 -128 c 128,-1,30
 469 -153 469 -153 510 -153 c 0,31,32
 549 -153 549 -153 581.5 -144.5 c 128,-1,33
 614 -136 614 -136 637 -120 c 1,34,-1
 656 -180 l 1,35,36
 629 -200 629 -200 591.5 -210 c 128,-1,37
 554 -220 554 -220 510 -220 c 0,38,39
 441 -220 441 -220 392.5 -175 c 128,-1,40
 344 -130 344 -130 344 -67 c 0,41,42
 344 -8 344 -8 383.5 37.5 c 128,-1,43
 423 83 423 83 485 93 c 0,44,45
 530 101 530 101 560 142.5 c 128,-1,46
 590 184 590 184 590 240 c 0,47,48
 590 304 590 304 556.5 348.5 c 128,-1,49
 523 393 523 393 477 393 c 0,50,51
 439 393 439 393 404 342.5 c 128,-1,52
 369 292 369 292 350 213 c 1,53,-1
 284 233 l 1,54,55
 289 257 289 257 297.5 280.5 c 128,-1,56
 306 304 306 304 317 326 c 1,57,58
 298 357 298 357 269.5 375 c 128,-1,59
 241 393 241 393 210 393 c 0,60,61
 169 393 169 393 140 355.5 c 128,-1,62
 111 318 111 318 111 266 c 0,63,64
 111 201 111 201 156 143 c 128,-1,65
 201 85 201 85 277 53 c 1,66,-1
 250 0 l 1,67,-1
 250 0 l 1,0,1
EndSplineSet
EndChar

StartChar: u090D
Encoding: 2317 2317 28
Width: 490
GlyphClass: 2
Flags: W
LayerCount: 2
Fore
SplineSet
368 -127 m 1,0,-1
 314 -80 l 1,1,2
 341 -76 341 -76 357.5 -62.5 c 128,-1,3
 374 -49 374 -49 374 -33 c 0,4,5
 374 -24 374 -24 367.5 -12 c 128,-1,6
 361 0 361 0 348 13 c 2,7,-1
 101 240 l 2,8,9
 83 258 83 258 72 277.5 c 128,-1,10
 61 297 61 297 61 313 c 2,11,-1
 61 606 l 1,12,-1
 -13 606 l 1,13,-1
 -13 666 l 1,14,-1
 503 666 l 1,15,-1
 503 606 l 1,16,-1
 427 606 l 1,17,-1
 427 406 l 2,18,19
 427 354 427 354 403.5 315.5 c 128,-1,20
 380 277 380 277 341 266 c 1,21,-1
 301 313 l 1,22,23
 325 320 325 320 339.5 348 c 128,-1,24
 354 376 354 376 354 413 c 2,25,-1
 354 606 l 1,26,-1
 134 606 l 1,27,-1
 134 353 l 2,28,29
 134 324 134 324 141 302 c 128,-1,30
 148 280 148 280 161 266 c 2,31,-1
 394 47 l 2,32,33
 419 25 419 25 433 4.5 c 128,-1,34
 447 -16 447 -16 447 -33 c 0,35,36
 447 -63 447 -63 425 -88 c 128,-1,37
 403 -113 403 -113 368 -127 c 1,38,-1
 368 -127 l 1,0,-1
248 752 m 1,39,40
 174 752 174 752 117.5 803 c 128,-1,41
 61 854 61 854 48 932 c 1,42,-1
 115 932 l 1,43,44
 124 878 124 878 162 842 c 128,-1,45
 200 806 200 806 248 806 c 256,46,47
 296 806 296 806 334 842 c 128,-1,48
 372 878 372 878 381 932 c 1,49,-1
 447 932 l 1,50,51
 434 854 434 854 377.5 803 c 128,-1,52
 321 752 321 752 248 752 c 1,53,-1
 248 752 l 1,39,40
EndSplineSet
EndChar

StartChar: u090E
Encoding: 2318 2318 29
Width: 490
GlyphClass: 2
Flags: W
LayerCount: 2
Fore
SplineSet
368 -127 m 1,0,-1
 314 -80 l 1,1,2
 341 -76 341 -76 357.5 -62.5 c 128,-1,3
 374 -49 374 -49 374 -33 c 0,4,5
 374 -24 374 -24 367.5 -12 c 128,-1,6
 361 0 361 0 348 13 c 2,7,-1
 101 240 l 2,8,9
 83 258 83 258 72 277.5 c 128,-1,10
 61 297 61 297 61 313 c 2,11,-1
 61 606 l 1,12,-1
 -13 606 l 1,13,-1
 -13 666 l 1,14,-1
 503 666 l 1,15,-1
 503 606 l 1,16,-1
 427 606 l 1,17,-1
 427 399 l 2,18,19
 427 350 427 350 403.5 313.5 c 128,-1,20
 380 277 380 277 341 266 c 1,21,-1
 301 313 l 1,22,23
 325 320 325 320 339.5 348 c 128,-1,24
 354 376 354 376 354 413 c 2,25,-1
 354 606 l 1,26,-1
 134 606 l 1,27,-1
 134 353 l 2,28,29
 134 324 134 324 141 302 c 128,-1,30
 148 280 148 280 161 266 c 2,31,-1
 394 47 l 2,32,33
 419 25 419 25 433 4.5 c 128,-1,34
 447 -16 447 -16 447 -33 c 0,35,36
 447 -63 447 -63 425 -88 c 128,-1,37
 403 -113 403 -113 368 -127 c 1,38,-1
 368 -127 l 1,0,-1
221 804 m 5,39,40
 148 804 148 804 91.5 854.5 c 132,-1,41
 35 905 35 905 21 984 c 5,42,-1
 88 984 l 5,43,44
 97 929 97 929 135 893 c 132,-1,45
 173 857 173 857 221 857 c 4,46,47
 304 857 304 857 362.5 800.5 c 132,-1,48
 421 744 421 744 421 664 c 5,49,-1
 354 664 l 5,50,51
 354 721 354 721 315 762.5 c 132,-1,52
 276 804 276 804 221 804 c 5,53,-1
 221 804 l 5,39,40
EndSplineSet
EndChar

StartChar: u090F
Encoding: 2319 2319 30
Width: 486
GlyphClass: 2
Flags: W
AnchorPoint: "Anchor-0" 265 664 basechar 0
LayerCount: 2
Fore
SplineSet
-13 606 m 1,0,-1
 -13 666 l 1,1,-1
 499 666 l 1,2,-1
 499 606 l 1,3,-1
 419 606 l 1,4,-1
 419 411 l 2,5,6
 419 357 419 357 397.5 316.5 c 128,-1,7
 376 276 376 276 340 266 c 1,8,-1
 300 313 l 1,9,10
 324 320 324 320 338.5 348 c 128,-1,11
 353 376 353 376 353 413 c 2,12,-1
 353 606 l 1,13,-1
 127 606 l 1,14,-1
 127 353 l 2,15,16
 127 328 127 328 135.5 305 c 128,-1,17
 144 282 144 282 160 266 c 2,18,-1
 393 47 l 2,19,20
 418 25 418 25 432 4.5 c 128,-1,21
 446 -16 446 -16 446 -33 c 0,22,23
 446 -63 446 -63 424 -88 c 128,-1,24
 402 -113 402 -113 366 -127 c 1,25,-1
 313 -80 l 1,26,27
 340 -76 340 -76 356.5 -62.5 c 128,-1,28
 373 -49 373 -49 373 -33 c 0,29,30
 373 -24 373 -24 366.5 -12 c 128,-1,31
 360 0 360 0 346 13 c 2,32,-1
 100 240 l 2,33,34
 81 258 81 258 70.5 287.5 c 128,-1,35
 60 317 60 317 60 350 c 2,36,-1
 60 606 l 1,37,-1
 -13 606 l 1,38,-1
 -13 606 l 1,0,-1
EndSplineSet
EndChar

StartChar: u0910
Encoding: 2320 2320 31
Width: 491
GlyphClass: 2
Flags: W
LayerCount: 2
Fore
SplineSet
-13 606 m 1,0,-1
 -13 666 l 1,1,-1
 352 666 l 1,2,-1
 152 892 l 1,3,-1
 212 945 l 1,4,-1
 426 666 l 1,5,-1
 505 666 l 1,6,-1
 505 606 l 1,7,-1
 431 606 l 1,8,-1
 431 413 l 2,9,10
 431 369 431 369 408.5 328.5 c 128,-1,11
 386 288 386 288 345 260 c 1,12,-1
 305 313 l 1,13,14
 333 337 333 337 349 363.5 c 128,-1,15
 365 390 365 390 365 415 c 2,16,-1
 365 606 l 1,17,-1
 125 606 l 1,18,-1
 125 340 l 2,19,20
 125 324 125 324 139 301 c 128,-1,21
 153 278 153 278 178 253 c 2,22,-1
 398 47 l 2,23,24
 421 24 421 24 433 3.5 c 128,-1,25
 445 -17 445 -17 445 -33 c 0,26,27
 445 -63 445 -63 423 -88 c 128,-1,28
 401 -113 401 -113 365 -127 c 1,29,-1
 312 -80 l 1,30,31
 340 -75 340 -75 358 -62 c 128,-1,32
 376 -49 376 -49 376 -33 c 0,33,34
 376 -23 376 -23 366 -7 c 128,-1,35
 356 9 356 9 338 27 c 2,36,-1
 119 233 l 2,37,38
 91 257 91 257 75 285 c 128,-1,39
 59 313 59 313 59 341 c 2,40,-1
 59 606 l 1,41,-1
 -13 606 l 1,42,-1
 -13 606 l 1,0,-1
EndSplineSet
EndChar

StartChar: u0911
Encoding: 2321 2321 32
Width: 1042
GlyphClass: 2
Flags: W
LayerCount: 2
Fore
SplineSet
310 47 m 1,0,1
 230 47 230 47 155 113.5 c 128,-1,2
 80 180 80 180 24 300 c 1,3,-1
 71 340 l 1,4,5
 121 232 121 232 183.5 172.5 c 128,-1,6
 246 113 246 113 310 113 c 0,7,8
 352 113 352 113 381 148.5 c 128,-1,9
 410 184 410 184 410 233 c 0,10,11
 410 280 410 280 377 313 c 128,-1,12
 344 346 344 346 297 346 c 0,13,14
 282 346 282 346 265.5 343 c 128,-1,15
 249 340 249 340 230 333 c 1,16,-1
 204 393 l 1,17,18
 264 398 264 398 310.5 434.5 c 128,-1,19
 357 471 357 471 357 513 c 0,20,21
 357 549 357 549 329.5 574 c 128,-1,22
 302 599 302 599 264 599 c 0,23,24
 229 599 229 599 190.5 576.5 c 128,-1,25
 152 554 152 554 117 513 c 1,26,-1
 71 559 l 1,27,28
 105 610 105 610 156.5 638 c 128,-1,29
 208 666 208 666 264 666 c 0,30,31
 330 666 330 666 376.5 621.5 c 128,-1,32
 423 577 423 577 423 513 c 0,33,34
 423 479 423 479 407 448 c 128,-1,35
 391 417 391 417 364 393 c 1,36,37
 409 366 409 366 451.5 353 c 128,-1,38
 494 340 494 340 530 340 c 0,39,40
 543 340 543 340 562 346.5 c 128,-1,41
 581 353 581 353 603 366 c 1,42,-1
 603 606 l 1,43,-1
 483 606 l 1,44,-1
 483 666 l 1,45,-1
 1056 666 l 1,46,-1
 1056 606 l 1,47,-1
 943 606 l 1,48,-1
 943 0 l 1,49,-1
 876 0 l 1,50,-1
 876 606 l 1,51,-1
 670 606 l 1,52,-1
 670 0 l 1,53,-1
 603 0 l 1,54,-1
 603 300 l 1,55,56
 587 286 587 286 568.5 279.5 c 128,-1,57
 550 273 550 273 530 273 c 0,58,59
 505 273 505 273 484 278.5 c 128,-1,60
 463 284 463 284 450 293 c 1,61,62
 463 280 463 280 470 262.5 c 128,-1,63
 477 245 477 245 477 226 c 0,64,65
 477 152 477 152 428.5 99.5 c 128,-1,66
 380 47 380 47 310 47 c 1,67,-1
 310 47 l 1,0,1
723 746 m 1,68,69
 651 746 651 746 594.5 798.5 c 128,-1,70
 538 851 538 851 523 932 c 1,71,-1
 590 932 l 1,72,73
 599 878 599 878 637 842 c 128,-1,74
 675 806 675 806 723 806 c 256,75,76
 771 806 771 806 809 842 c 128,-1,77
 847 878 847 878 856 932 c 1,78,-1
 923 932 l 1,79,80
 908 851 908 851 851.5 798.5 c 128,-1,81
 795 746 795 746 723 746 c 1,82,-1
 723 746 l 1,68,69
EndSplineSet
EndChar

StartChar: u0912
Encoding: 2322 2322 33
Width: 1042
GlyphClass: 2
Flags: W
LayerCount: 2
Fore
SplineSet
310 47 m 1,0,1
 230 47 230 47 155 113.5 c 128,-1,2
 80 180 80 180 24 300 c 1,3,-1
 71 340 l 1,4,5
 121 232 121 232 183.5 172.5 c 128,-1,6
 246 113 246 113 310 113 c 0,7,8
 352 113 352 113 381 148.5 c 128,-1,9
 410 184 410 184 410 233 c 0,10,11
 410 280 410 280 377 313 c 128,-1,12
 344 346 344 346 297 346 c 0,13,14
 282 346 282 346 265.5 343 c 128,-1,15
 249 340 249 340 230 333 c 1,16,-1
 204 393 l 1,17,18
 264 398 264 398 310.5 436.5 c 128,-1,19
 357 475 357 475 357 519 c 0,20,21
 357 555 357 555 329.5 580.5 c 128,-1,22
 302 606 302 606 264 606 c 0,23,24
 232 606 232 606 193 581.5 c 128,-1,25
 154 557 154 557 117 513 c 1,26,-1
 71 559 l 1,27,28
 108 613 108 613 159 642.5 c 128,-1,29
 210 672 210 672 264 672 c 0,30,31
 330 672 330 672 376.5 627.5 c 128,-1,32
 423 583 423 583 423 519 c 0,33,34
 423 483 423 483 407 450 c 128,-1,35
 391 417 391 417 364 393 c 1,36,37
 414 364 414 364 456.5 348.5 c 128,-1,38
 499 333 499 333 530 333 c 0,39,40
 539 333 539 333 556 341 c 128,-1,41
 573 349 573 349 603 366 c 1,42,-1
 603 606 l 1,43,-1
 483 606 l 1,44,-1
 483 666 l 1,45,-1
 1056 666 l 1,46,-1
 1056 606 l 1,47,-1
 943 606 l 1,48,-1
 943 0 l 1,49,-1
 876 0 l 1,50,-1
 876 606 l 1,51,-1
 670 606 l 1,52,-1
 670 0 l 1,53,-1
 603 0 l 1,54,-1
 603 300 l 1,55,56
 587 286 587 286 570.5 279.5 c 128,-1,57
 554 273 554 273 537 273 c 0,58,59
 509 273 509 273 486 278.5 c 128,-1,60
 463 284 463 284 450 293 c 1,61,62
 463 282 463 282 470 263 c 128,-1,63
 477 244 477 244 477 220 c 0,64,65
 477 148 477 148 428.5 97.5 c 128,-1,66
 380 47 380 47 310 47 c 1,67,-1
 310 47 l 1,0,1
743 806 m 5,68,69
 670 806 670 806 613.5 856.5 c 132,-1,70
 557 907 557 907 543 986 c 5,71,-1
 610 986 l 5,72,73
 619 931 619 931 657 895 c 132,-1,74
 695 859 695 859 743 859 c 4,75,76
 826 859 826 859 884.5 802.5 c 132,-1,77
 943 746 943 746 943 666 c 5,78,-1
 876 666 l 5,79,80
 876 723 876 723 837 764.5 c 132,-1,81
 798 806 798 806 743 806 c 5,82,-1
 743 806 l 5,68,69
EndSplineSet
EndChar

StartChar: u0913
Encoding: 2323 2323 34
Width: 1042
GlyphClass: 2
Flags: W
LayerCount: 2
Fore
SplineSet
310 47 m 1,0,1
 230 47 230 47 155 113.5 c 128,-1,2
 80 180 80 180 24 300 c 1,3,-1
 71 340 l 1,4,5
 121 232 121 232 183.5 172.5 c 128,-1,6
 246 113 246 113 310 113 c 0,7,8
 352 113 352 113 381 144.5 c 128,-1,9
 410 176 410 176 410 220 c 0,10,11
 410 272 410 272 377 309 c 128,-1,12
 344 346 344 346 297 346 c 0,13,14
 282 346 282 346 265.5 343 c 128,-1,15
 249 340 249 340 230 333 c 1,16,-1
 204 393 l 1,17,18
 264 398 264 398 310.5 436.5 c 128,-1,19
 357 475 357 475 357 519 c 0,20,21
 357 555 357 555 329.5 580.5 c 128,-1,22
 302 606 302 606 264 606 c 0,23,24
 232 606 232 606 193 581.5 c 128,-1,25
 154 557 154 557 117 513 c 1,26,-1
 71 559 l 1,27,28
 108 613 108 613 159 642.5 c 128,-1,29
 210 672 210 672 264 672 c 0,30,31
 330 672 330 672 376.5 627.5 c 128,-1,32
 423 583 423 583 423 519 c 0,33,34
 423 483 423 483 407 450 c 128,-1,35
 391 417 391 417 364 393 c 1,36,37
 414 364 414 364 454.5 348.5 c 128,-1,38
 495 333 495 333 523 333 c 0,39,40
 539 333 539 333 560 341.5 c 128,-1,41
 581 350 581 350 603 366 c 1,42,-1
 603 606 l 1,43,-1
 483 606 l 1,44,-1
 483 666 l 1,45,-1
 871 666 l 1,46,-1
 630 959 l 1,47,-1
 676 999 l 1,48,-1
 937 666 l 1,49,-1
 1056 666 l 1,50,-1
 1056 606 l 1,51,-1
 943 606 l 1,52,-1
 943 0 l 1,53,-1
 876 0 l 1,54,-1
 876 606 l 1,55,-1
 670 606 l 1,56,-1
 670 0 l 1,57,-1
 603 0 l 1,58,-1
 603 300 l 1,59,60
 587 286 587 286 570.5 279.5 c 128,-1,61
 554 273 554 273 537 273 c 0,62,63
 509 273 509 273 486 278.5 c 128,-1,64
 463 284 463 284 450 293 c 1,65,66
 463 282 463 282 470 263 c 128,-1,67
 477 244 477 244 477 220 c 0,68,69
 477 148 477 148 428.5 97.5 c 128,-1,70
 380 47 380 47 310 47 c 1,71,-1
 310 47 l 1,0,1
EndSplineSet
EndChar

StartChar: u0914
Encoding: 2324 2324 35
Width: 1042
GlyphClass: 2
Flags: W
LayerCount: 2
Fore
SplineSet
310 47 m 1,0,1
 230 47 230 47 155 113.5 c 128,-1,2
 80 180 80 180 24 300 c 1,3,-1
 71 340 l 1,4,5
 121 232 121 232 183.5 172.5 c 128,-1,6
 246 113 246 113 310 113 c 0,7,8
 352 113 352 113 381 144.5 c 128,-1,9
 410 176 410 176 410 220 c 0,10,11
 410 272 410 272 377 309 c 128,-1,12
 344 346 344 346 297 346 c 0,13,14
 282 346 282 346 265.5 343 c 128,-1,15
 249 340 249 340 230 333 c 1,16,-1
 204 393 l 1,17,18
 264 398 264 398 310.5 434.5 c 128,-1,19
 357 471 357 471 357 513 c 0,20,21
 357 551 357 551 325.5 578.5 c 128,-1,22
 294 606 294 606 250 606 c 0,23,24
 220 606 220 606 186 583.5 c 128,-1,25
 152 561 152 561 124 519 c 1,26,-1
 71 559 l 1,27,28
 108 613 108 613 156 642.5 c 128,-1,29
 204 672 204 672 250 672 c 0,30,31
 322 672 322 672 372.5 625.5 c 128,-1,32
 423 579 423 579 423 513 c 0,33,34
 423 479 423 479 407 448 c 128,-1,35
 391 417 391 417 364 393 c 1,36,37
 414 364 414 364 456.5 348.5 c 128,-1,38
 499 333 499 333 530 333 c 0,39,40
 539 333 539 333 556 341 c 128,-1,41
 573 349 573 349 603 366 c 1,42,-1
 603 606 l 1,43,-1
 483 606 l 1,44,-1
 483 666 l 1,45,-1
 846 666 l 1,46,-1
 570 846 l 1,47,-1
 610 905 l 1,48,-1
 903 672 l 1,49,-1
 763 959 l 1,50,-1
 830 999 l 1,51,-1
 940 666 l 1,52,-1
 1056 666 l 1,53,-1
 1056 606 l 1,54,-1
 943 606 l 1,55,-1
 943 0 l 1,56,-1
 876 0 l 1,57,-1
 876 606 l 1,58,-1
 670 606 l 1,59,-1
 670 0 l 1,60,-1
 603 0 l 1,61,-1
 603 300 l 1,62,63
 587 286 587 286 570.5 279.5 c 128,-1,64
 554 273 554 273 537 273 c 0,65,66
 509 273 509 273 486 278.5 c 128,-1,67
 463 284 463 284 450 293 c 1,68,69
 463 282 463 282 470 263 c 128,-1,70
 477 244 477 244 477 220 c 0,71,72
 477 148 477 148 428.5 97.5 c 128,-1,73
 380 47 380 47 310 47 c 1,74,-1
 310 47 l 1,0,1
EndSplineSet
EndChar

StartChar: u0915
Encoding: 2325 2325 36
Width: 749
GlyphClass: 2
Flags: W
AnchorPoint: "Anchor-3" 380 1 basechar 0
AnchorPoint: "Anchor-0" 381 664 basechar 0
LayerCount: 2
Fore
SplineSet
-13 606 m 5,0,-1
 -13 666 l 5,1,-1
 763 666 l 5,2,-1
 763 606 l 5,3,-1
 411 606 l 5,4,-1
 411 426 l 5,5,6
 433 463 433 463 470 484.5 c 132,-1,7
 507 506 507 506 551 506 c 4,8,9
 615 506 615 506 659.5 453.5 c 132,-1,10
 704 401 704 401 704 326 c 4,11,12
 704 262 704 262 671 199.5 c 132,-1,13
 638 137 638 137 578 87 c 5,14,-1
 518 127 l 5,15,16
 574 166 574 166 606 219 c 132,-1,17
 638 272 638 272 638 326 c 4,18,19
 638 373 638 373 612.5 406 c 132,-1,20
 587 439 587 439 551 439 c 4,21,22
 505 439 505 439 465.5 404 c 132,-1,23
 426 369 426 369 411 313 c 5,24,-1
 411 0 l 5,25,-1
 345 0 l 5,26,-1
 345 200 l 5,27,28
 321 172 321 172 286.5 156 c 132,-1,29
 252 140 252 140 212 140 c 4,30,31
 140 140 140 140 89.5 190.5 c 132,-1,32
 39 241 39 241 39 313 c 4,33,34
 39 393 39 393 97.5 449.5 c 132,-1,35
 156 506 156 506 238 506 c 4,36,37
 262 506 262 506 279.5 502.5 c 132,-1,38
 297 499 297 499 305 493 c 5,39,-1
 292 426 l 5,40,41
 280 433 280 433 266.5 436 c 132,-1,42
 253 439 253 439 238 439 c 4,43,44
 184 439 184 439 144.5 402 c 132,-1,45
 105 365 105 365 105 313 c 4,46,47
 105 269 105 269 136.5 237.5 c 132,-1,48
 168 206 168 206 212 206 c 4,49,50
 250 206 250 206 286 229.5 c 132,-1,51
 322 253 322 253 345 293 c 5,52,-1
 345 606 l 5,53,-1
 -13 606 l 5,54,-1
 -13 606 l 5,0,-1
EndSplineSet
EndChar

StartChar: u0916
Encoding: 2326 2326 37
Width: 825
GlyphClass: 2
Flags: W
AnchorPoint: "Anchor-3" 695 29 basechar 0
AnchorPoint: "Anchor-0" 693 664 basechar 0
LayerCount: 2
Fore
SplineSet
-13 606 m 1,0,-1
 -13 666 l 1,1,-1
 839 666 l 1,2,-1
 839 606 l 1,3,-1
 726 606 l 1,4,-1
 726 0 l 1,5,-1
 659 0 l 1,6,-1
 659 133 l 1,7,8
 615 71 615 71 548 35.5 c 128,-1,9
 481 0 481 0 406 0 c 0,10,11
 290 0 290 0 184.5 122.5 c 128,-1,12
 79 245 79 245 27 439 c 1,13,-1
 80 466 l 1,14,15
 95 423 95 423 120.5 398 c 128,-1,16
 146 373 146 373 173 373 c 0,17,18
 196 373 196 373 211 398 c 128,-1,19
 226 423 226 423 226 459 c 2,20,-1
 226 606 l 1,21,-1
 -13 606 l 1,22,-1
 -13 606 l 1,0,-1
406 60 m 1,23,24
 481 60 481 60 549 102.5 c 128,-1,25
 617 145 617 145 659 220 c 1,26,-1
 659 273 l 1,27,28
 633 250 633 250 605.5 238 c 128,-1,29
 578 226 578 226 553 226 c 0,30,31
 486 226 486 226 439.5 268 c 128,-1,32
 393 310 393 310 393 369 c 0,33,34
 393 429 393 429 439.5 471 c 128,-1,35
 486 513 486 513 553 513 c 0,36,37
 578 513 578 513 600 507.5 c 128,-1,38
 622 502 622 502 639 493 c 1,39,-1
 639 426 l 1,40,41
 613 435 613 435 591 440.5 c 128,-1,42
 569 446 569 446 553 446 c 0,43,44
 514 446 514 446 486.5 423.5 c 128,-1,45
 459 401 459 401 459 369 c 256,46,47
 459 337 459 337 486.5 315 c 128,-1,48
 514 293 514 293 553 293 c 0,49,50
 574 293 574 293 601.5 307 c 128,-1,51
 629 321 629 321 659 346 c 1,52,-1
 659 606 l 1,53,-1
 293 606 l 1,54,-1
 293 459 l 2,55,56
 293 395 293 395 257.5 350.5 c 128,-1,57
 222 306 222 306 173 306 c 0,58,59
 164 306 164 306 155 308 c 128,-1,60
 146 310 146 310 140 313 c 1,61,62
 181 198 181 198 254.5 129 c 128,-1,63
 328 60 328 60 406 60 c 1,64,-1
 406 60 l 1,23,24
EndSplineSet
EndChar

StartChar: u0917
Encoding: 2327 2327 38
Width: 517
GlyphClass: 2
Flags: W
AnchorPoint: "Anchor-0" 386 664 basechar 0
LayerCount: 2
Fore
SplineSet
-13 606 m 1,0,-1
 -13 666 l 1,1,-1
 531 666 l 1,2,-1
 531 606 l 1,3,-1
 418 606 l 1,4,-1
 418 0 l 1,5,-1
 352 0 l 1,6,-1
 352 606 l 1,7,-1
 185 606 l 1,8,-1
 185 280 l 2,9,10
 185 264 185 264 175 252 c 128,-1,11
 165 240 165 240 152 240 c 0,12,13
 127 240 127 240 73 302.5 c 128,-1,14
 19 365 19 365 19 393 c 0,15,16
 19 403 19 403 27 411 c 128,-1,17
 35 419 35 419 45 419 c 2,18,-1
 92 419 l 2,19,20
 103 419 103 419 111 429 c 128,-1,21
 119 439 119 439 119 453 c 2,22,-1
 119 606 l 1,23,-1
 -13 606 l 1,24,-1
 -13 606 l 1,0,-1
EndSplineSet
EndChar

StartChar: u0918
Encoding: 2328 2328 39
Width: 636
GlyphClass: 2
Flags: W
AnchorPoint: "Anchor-0" 506 664 basechar 0
LayerCount: 2
Fore
SplineSet
-13 606 m 1,0,-1
 -13 666 l 1,1,-1
 650 666 l 1,2,-1
 650 606 l 1,3,-1
 537 606 l 1,4,-1
 537 0 l 1,5,-1
 470 0 l 1,6,-1
 470 213 l 1,7,8
 422 165 422 165 368 139 c 128,-1,9
 314 113 314 113 264 113 c 0,10,11
 184 113 184 113 127.5 161.5 c 128,-1,12
 71 210 71 210 71 280 c 0,13,14
 71 316 71 316 90 348 c 128,-1,15
 109 380 109 380 144 399 c 1,16,17
 101 414 101 414 76 449.5 c 128,-1,18
 51 485 51 485 51 526 c 0,19,20
 51 546 51 546 59.5 566.5 c 128,-1,21
 68 587 68 587 84 606 c 1,22,-1
 -13 606 l 1,23,-1
 -13 606 l 1,0,-1
264 180 m 1,24,25
 314 180 314 180 368 211 c 128,-1,26
 422 242 422 242 470 300 c 1,27,-1
 470 606 l 1,28,-1
 164 606 l 1,29,30
 142 594 142 594 129.5 572 c 128,-1,31
 117 550 117 550 117 526 c 0,32,33
 117 490 117 490 150.5 464.5 c 128,-1,34
 184 439 184 439 230 439 c 2,35,-1
 317 439 l 1,36,-1
 337 380 l 1,37,-1
 277 380 l 2,38,39
 220 380 220 380 178.5 350.5 c 128,-1,40
 137 321 137 321 137 280 c 0,41,42
 137 238 137 238 174.5 209 c 128,-1,43
 212 180 212 180 264 180 c 1,44,-1
 264 180 l 1,24,25
EndSplineSet
PairPos2: "'blwm' Below Base Mark in Devanagari lookup 5" u093C dx=0 dy=0 dh=0 dv=0 dx=141 dy=43 dh=0 dv=0
EndChar

StartChar: u0919
Encoding: 2329 2329 40
Width: 717
GlyphClass: 2
Flags: W
AnchorPoint: "Anchor-3" 394 50 basechar 0
AnchorPoint: "Anchor-0" 499 664 basechar 0
LayerCount: 2
Fore
SplineSet
-13 606 m 1,0,-1
 -13 666 l 1,1,-1
 731 666 l 1,2,-1
 731 606 l 1,3,-1
 530 606 l 1,4,-1
 530 439 l 1,5,-1
 304 439 l 2,6,7
 290 439 290 439 280 431 c 128,-1,8
 270 423 270 423 270 413 c 0,9,10
 270 385 270 385 307.5 342.5 c 128,-1,11
 345 300 345 300 370 300 c 0,12,13
 393 300 393 300 433.5 316.5 c 128,-1,14
 474 333 474 333 497 333 c 0,15,16
 538 333 538 333 567.5 301.5 c 128,-1,17
 597 270 597 270 597 226 c 0,18,19
 597 138 597 138 538 75.5 c 128,-1,20
 479 13 479 13 397 13 c 0,21,22
 301 13 301 13 199 93.5 c 128,-1,23
 97 174 97 174 17 313 c 1,24,-1
 71 353 l 1,25,26
 144 226 144 226 231 153 c 128,-1,27
 318 80 318 80 397 80 c 0,28,29
 451 80 451 80 490.5 122.5 c 128,-1,30
 530 165 530 165 530 226 c 0,31,32
 530 242 530 242 520 254 c 128,-1,33
 510 266 510 266 497 266 c 0,34,35
 474 266 474 266 433.5 249.5 c 128,-1,36
 393 233 393 233 370 233 c 0,37,38
 329 233 329 233 266.5 301 c 128,-1,39
 204 369 204 369 204 413 c 0,40,41
 204 449 204 449 233 474 c 128,-1,42
 262 499 262 499 304 499 c 2,43,-1
 463 499 l 1,44,-1
 463 606 l 1,45,-1
 -13 606 l 1,46,-1
 -13 606 l 1,0,-1
652 333 m 1,47,48
 633 333 633 333 618 347 c 128,-1,49
 603 361 603 361 603 380 c 0,50,51
 603 398 603 398 618 412 c 128,-1,52
 633 426 633 426 652 426 c 0,53,54
 674 426 674 426 688.5 412 c 128,-1,55
 703 398 703 398 703 380 c 0,56,57
 703 361 703 361 688.5 347 c 128,-1,58
 674 333 674 333 652 333 c 1,59,-1
 652 333 l 1,47,48
EndSplineSet
PairPos2: "'blwm' Below Base Mark in Devanagari lookup 5" u093C dx=0 dy=0 dh=0 dv=0 dx=202 dy=-51 dh=0 dv=0
EndChar

StartChar: u091A
Encoding: 2330 2330 41
Width: 637
GlyphClass: 2
Flags: W
AnchorPoint: "Anchor-0" 503 664 basechar 0
LayerCount: 2
Fore
SplineSet
-13 606 m 1,0,-1
 -13 666 l 1,1,-1
 651 666 l 1,2,-1
 651 606 l 1,3,-1
 538 606 l 1,4,-1
 538 0 l 1,5,-1
 471 0 l 1,6,-1
 471 240 l 1,7,8
 431 184 431 184 384 152 c 128,-1,9
 337 120 337 120 292 120 c 0,10,11
 225 120 225 120 178.5 166.5 c 128,-1,12
 132 213 132 213 132 280 c 0,13,14
 132 328 132 328 151 367 c 128,-1,15
 170 406 170 406 205 426 c 1,16,-1
 12 426 l 1,17,-1
 12 493 l 1,18,-1
 405 493 l 1,19,-1
 405 426 l 1,20,-1
 312 426 l 1,21,22
 261 407 261 407 229.5 367.5 c 128,-1,23
 198 328 198 328 198 280 c 0,24,25
 198 241 198 241 225.5 213.5 c 128,-1,26
 253 186 253 186 292 186 c 0,27,28
 334 186 334 186 382 227.5 c 128,-1,29
 430 269 430 269 471 340 c 1,30,-1
 471 606 l 1,31,-1
 -13 606 l 1,32,-1
 -13 606 l 1,0,-1
EndSplineSet
PairPos2: "'blwm' Below Base Mark in Devanagari lookup 5" u093C dx=0 dy=0 dh=0 dv=0 dx=51 dy=85 dh=0 dv=0
EndChar

StartChar: u091B
Encoding: 2331 2331 42
Width: 709
GlyphClass: 2
Flags: W
AnchorPoint: "Anchor-3" 322 61 basechar 0
AnchorPoint: "Anchor-0" 526 664 basechar 0
LayerCount: 2
Fore
SplineSet
310 33 m 1,0,1
 217 33 217 33 150.5 87.5 c 128,-1,2
 84 142 84 142 84 220 c 0,3,4
 84 268 84 268 103.5 308.5 c 128,-1,5
 123 349 123 349 157 373 c 1,6,7
 108 395 108 395 79.5 431 c 128,-1,8
 51 467 51 467 51 506 c 0,9,10
 51 539 51 539 61.5 566 c 128,-1,11
 72 593 72 593 91 606 c 1,12,-1
 -13 606 l 1,13,-1
 -13 666 l 1,14,-1
 723 666 l 1,15,-1
 723 606 l 1,16,-1
 557 606 l 1,17,-1
 557 506 l 1,18,19
 606 497 606 497 638 457.5 c 128,-1,20
 670 418 670 418 670 366 c 0,21,22
 670 249 670 249 553.5 141 c 128,-1,23
 437 33 437 33 310 33 c 1,24,-1
 310 33 l 1,0,1
310 100 m 1,25,26
 353 100 353 100 395.5 117 c 128,-1,27
 438 134 438 134 477 166 c 1,28,29
 431 212 431 212 407.5 262 c 128,-1,30
 384 312 384 312 384 360 c 0,31,32
 384 415 384 415 413.5 456.5 c 128,-1,33
 443 498 443 498 490 506 c 1,34,-1
 490 606 l 1,35,-1
 170 606 l 1,36,37
 145 585 145 585 131 559 c 128,-1,38
 117 533 117 533 117 506 c 0,39,40
 117 467 117 467 152.5 440 c 128,-1,41
 188 413 188 413 237 413 c 2,42,-1
 310 413 l 1,43,-1
 310 346 l 1,44,-1
 257 346 l 2,45,46
 213 346 213 346 181.5 309 c 128,-1,47
 150 272 150 272 150 220 c 0,48,49
 150 170 150 170 197 135 c 128,-1,50
 244 100 244 100 310 100 c 1,51,-1
 310 100 l 1,25,26
523 220 m 1,52,53
 561 246 561 246 582 285 c 128,-1,54
 603 324 603 324 603 366 c 0,55,56
 603 397 603 397 580 418 c 128,-1,57
 557 439 557 439 523 439 c 0,58,59
 493 439 493 439 471.5 416 c 128,-1,60
 450 393 450 393 450 360 c 0,61,62
 450 318 450 318 469.5 281 c 128,-1,63
 489 244 489 244 523 220 c 1,64,-1
 523 220 l 1,52,53
EndSplineSet
PairPos2: "'blwm' Below Base Mark in Devanagari lookup 5" u093C dx=0 dy=0 dh=0 dv=0 dx=144 dy=-21 dh=0 dv=0
EndChar

StartChar: u091C
Encoding: 2332 2332 43
Width: 728
GlyphClass: 2
Flags: W
AnchorPoint: "Anchor-0" 596 664 basechar 0
LayerCount: 2
Fore
SplineSet
309 80 m 1,0,1
 237 80 237 80 159 176.5 c 128,-1,2
 81 273 81 273 23 433 c 1,3,-1
 83 459 l 1,4,5
 134 317 134 317 196 231.5 c 128,-1,6
 258 146 258 146 309 146 c 0,7,8
 342 146 342 146 365.5 171.5 c 128,-1,9
 389 197 389 197 389 233 c 0,10,11
 389 290 389 290 359.5 350.5 c 128,-1,12
 330 411 330 411 276 466 c 1,13,-1
 562 466 l 1,14,-1
 562 606 l 1,15,-1
 -13 606 l 1,16,-1
 -13 666 l 1,17,-1
 742 666 l 1,18,-1
 742 606 l 1,19,-1
 629 606 l 1,20,-1
 629 0 l 1,21,-1
 562 0 l 1,22,-1
 562 399 l 1,23,-1
 402 399 l 1,24,25
 429 362 429 362 442 319.5 c 128,-1,26
 455 277 455 277 455 233 c 0,27,28
 455 169 455 169 412.5 124.5 c 128,-1,29
 370 80 370 80 309 80 c 1,30,-1
 309 80 l 1,0,1
EndSplineSet
EndChar

StartChar: u091D
Encoding: 2333 2333 44
Width: 731
GlyphClass: 2
Flags: W
AnchorPoint: "Anchor-0" 600 664 basechar 0
LayerCount: 2
Fore
SplineSet
318 -47 m 1,0,1
 274 -27 274 -27 237.5 -1.5 c 128,-1,2
 201 24 201 24 172 53 c 1,3,4
 120 53 120 53 82.5 76.5 c 128,-1,5
 45 100 45 100 45 133 c 0,6,7
 45 156 45 156 60.5 171 c 128,-1,8
 76 186 76 186 99 186 c 0,9,10
 127 186 127 186 155.5 169 c 128,-1,11
 184 152 184 152 205 120 c 1,12,13
 262 130 262 130 300 165.5 c 128,-1,14
 338 201 338 201 338 246 c 0,15,16
 338 262 338 262 328 274 c 128,-1,17
 318 286 318 286 305 286 c 0,18,19
 285 286 285 286 248.5 273 c 128,-1,20
 212 260 212 260 192 260 c 0,21,22
 156 260 156 260 100.5 322.5 c 128,-1,23
 45 385 45 385 45 426 c 0,24,25
 45 462 45 462 74.5 487.5 c 128,-1,26
 104 513 104 513 145 513 c 2,27,-1
 312 513 l 1,28,-1
 312 606 l 1,29,-1
 -13 606 l 1,30,-1
 -13 666 l 1,31,-1
 744 666 l 1,32,-1
 744 606 l 1,33,-1
 631 606 l 1,34,-1
 631 0 l 1,35,-1
 565 0 l 1,36,-1
 565 266 l 1,37,38
 543 257 543 257 521 251.5 c 128,-1,39
 499 246 499 246 478 246 c 0,40,41
 459 246 459 246 441 249.5 c 128,-1,42
 423 253 423 253 405 260 c 1,43,44
 405 185 405 185 361 136 c 128,-1,45
 317 87 317 87 238 73 c 1,46,47
 272 45 272 45 300.5 26.5 c 128,-1,48
 329 8 329 8 352 0 c 1,49,-1
 318 -47 l 1,50,-1
 318 -47 l 1,0,1
478 306 m 1,51,52
 493 306 493 306 515 313 c 128,-1,53
 537 320 537 320 565 333 c 1,54,-1
 565 606 l 1,55,-1
 378 606 l 1,56,-1
 378 446 l 1,57,-1
 145 446 l 2,58,59
 132 446 132 446 122 440 c 128,-1,60
 112 434 112 434 112 426 c 0,61,62
 112 401 112 401 142 363.5 c 128,-1,63
 172 326 172 326 192 326 c 256,64,65
 212 326 212 326 248.5 339.5 c 128,-1,66
 285 353 285 353 305 353 c 0,67,68
 324 353 324 353 341 347.5 c 128,-1,69
 358 342 358 342 372 333 c 0,70,71
 390 320 390 320 417.5 313 c 128,-1,72
 445 306 445 306 478 306 c 1,73,-1
 478 306 l 1,51,52
EndSplineSet
PairPos2: "'blwm' Below Base Mark in Devanagari lookup 5" u093C dx=0 dy=0 dh=0 dv=0 dx=-85 dy=-16 dh=0 dv=0
EndChar

StartChar: u091E
Encoding: 2334 2334 45
Width: 737
GlyphClass: 2
Flags: W
AnchorPoint: "Anchor-0" 603 664 basechar 0
LayerCount: 2
Fore
SplineSet
218 120 m 1,0,1
 166 120 166 120 113 153 c 128,-1,2
 60 186 60 186 19 246 c 1,3,-1
 65 293 l 1,4,5
 93 244 93 244 134.5 215 c 128,-1,6
 176 186 176 186 218 186 c 0,7,8
 270 186 270 186 307.5 225.5 c 128,-1,9
 345 265 345 265 345 320 c 0,10,11
 345 366 345 366 313.5 399.5 c 128,-1,12
 282 433 282 433 238 433 c 0,13,14
 206 433 206 433 176 419 c 128,-1,15
 146 405 146 405 125 380 c 1,16,-1
 79 433 l 1,17,18
 111 465 111 465 152 482 c 128,-1,19
 193 499 193 499 238 499 c 0,20,21
 298 499 298 499 346.5 460 c 128,-1,22
 395 421 395 421 411 360 c 1,23,24
 419 350 419 350 436.5 345 c 128,-1,25
 454 340 454 340 478 340 c 0,26,27
 507 340 507 340 531 346.5 c 128,-1,28
 555 353 555 353 571 366 c 1,29,-1
 571 606 l 1,30,-1
 -13 606 l 1,31,-1
 -13 666 l 1,32,-1
 751 666 l 1,33,-1
 751 606 l 1,34,-1
 638 606 l 1,35,-1
 638 0 l 1,36,-1
 571 0 l 1,37,-1
 571 293 l 1,38,39
 545 284 545 284 521 278.5 c 128,-1,40
 497 273 497 273 478 273 c 0,41,42
 462 273 462 273 445.5 278.5 c 128,-1,43
 429 284 429 284 411 293 c 1,44,45
 398 218 398 218 343.5 169 c 128,-1,46
 289 120 289 120 218 120 c 1,47,-1
 218 120 l 1,0,1
EndSplineSet
PairPos2: "'blwm' Below Base Mark in Devanagari lookup 5" u093C dx=0 dy=0 dh=0 dv=0 dx=24 dy=43 dh=0 dv=0
EndChar

StartChar: u091F
Encoding: 2335 2335 46
Width: 565
GlyphClass: 2
Flags: W
AnchorPoint: "Anchor-3" 324 45 basechar 0
AnchorPoint: "Anchor-0" 421 664 basechar 0
LayerCount: 2
Fore
SplineSet
325 13 m 1,0,1
 209 13 209 13 127 95 c 128,-1,2
 45 177 45 177 45 293 c 0,3,4
 45 368 45 368 91.5 420.5 c 128,-1,5
 138 473 138 473 205 473 c 2,6,-1
 385 473 l 1,7,-1
 385 606 l 1,8,-1
 -13 606 l 1,9,-1
 -13 666 l 1,10,-1
 579 666 l 1,11,-1
 579 606 l 1,12,-1
 451 606 l 1,13,-1
 451 406 l 1,14,-1
 205 406 l 2,15,16
 166 406 166 406 139 373 c 128,-1,17
 112 340 112 340 112 293 c 0,18,19
 112 205 112 205 174.5 142.5 c 128,-1,20
 237 80 237 80 325 80 c 0,21,22
 381 80 381 80 427 105 c 128,-1,23
 473 130 473 130 498 173 c 1,24,-1
 551 127 l 1,25,26
 521 75 521 75 460 44 c 128,-1,27
 399 13 399 13 325 13 c 1,28,-1
 325 13 l 1,0,1
EndSplineSet
PairPos2: "'blwm' Below Base Mark in Devanagari lookup 5" u093C dx=0 dy=0 dh=0 dv=0 dx=280 dy=-59 dh=0 dv=0
EndChar

StartChar: u0920
Encoding: 2336 2336 47
Width: 580
GlyphClass: 2
Flags: W
AnchorPoint: "Anchor-3" 316 39 basechar 0
AnchorPoint: "Anchor-0" 422 664 basechar 0
LayerCount: 2
Fore
SplineSet
324 7 m 1,0,1
 220 7 220 7 132 96.5 c 128,-1,2
 44 186 44 186 44 293 c 0,3,4
 44 370 44 370 94.5 424.5 c 128,-1,5
 145 479 145 479 217 479 c 2,6,-1
 384 479 l 1,7,-1
 384 606 l 1,8,-1
 -13 606 l 1,9,-1
 -13 666 l 1,10,-1
 594 666 l 1,11,-1
 594 606 l 1,12,-1
 450 606 l 1,13,-1
 450 413 l 1,14,-1
 217 413 l 2,15,16
 173 413 173 413 142 377.5 c 128,-1,17
 111 342 111 342 111 293 c 0,18,19
 111 212 111 212 178 142.5 c 128,-1,20
 245 73 245 73 324 73 c 0,21,22
 381 73 381 73 422 115.5 c 128,-1,23
 463 158 463 158 463 220 c 0,24,25
 463 257 463 257 442.5 295.5 c 128,-1,26
 422 334 422 334 384 366 c 1,27,-1
 437 406 l 1,28,29
 481 369 481 369 505.5 320.5 c 128,-1,30
 530 272 530 272 530 220 c 0,31,32
 530 132 530 132 469.5 69.5 c 128,-1,33
 409 7 409 7 324 7 c 1,34,-1
 324 7 l 1,0,1
EndSplineSet
PairPos2: "'blwm' Below Base Mark in Devanagari lookup 5" u093C dx=0 dy=0 dh=0 dv=0 dx=248 dy=-40 dh=0 dv=0
EndChar

StartChar: u0921
Encoding: 2337 2337 48
Width: 631
GlyphClass: 2
Flags: W
AnchorPoint: "Anchor-3" 378 45 basechar 0
AnchorPoint: "Anchor-0" 495 664 basechar 0
LayerCount: 2
Fore
SplineSet
385 13 m 1,0,1
 280 13 280 13 180.5 92.5 c 128,-1,2
 81 172 81 172 19 306 c 1,3,-1
 72 340 l 1,4,5
 128 221 128 221 212.5 150.5 c 128,-1,6
 297 80 297 80 385 80 c 0,7,8
 439 80 439 80 478.5 121 c 128,-1,9
 518 162 518 162 518 220 c 0,10,11
 518 236 518 236 508 248 c 128,-1,12
 498 260 498 260 485 260 c 0,13,14
 463 260 463 260 424.5 246.5 c 128,-1,15
 386 233 386 233 365 233 c 0,16,17
 314 233 314 233 253 297 c 128,-1,18
 192 361 192 361 192 413 c 0,19,20
 192 449 192 449 217 474 c 128,-1,21
 242 499 242 499 278 499 c 2,22,-1
 458 499 l 1,23,-1
 458 606 l 1,24,-1
 -13 606 l 1,25,-1
 -13 666 l 1,26,-1
 644 666 l 1,27,-1
 644 606 l 1,28,-1
 525 606 l 1,29,-1
 525 433 l 1,30,-1
 278 433 l 2,31,32
 270 433 270 433 264 427 c 128,-1,33
 258 421 258 421 258 413 c 0,34,35
 258 385 258 385 298 342.5 c 128,-1,36
 338 300 338 300 365 300 c 0,37,38
 386 300 386 300 424.5 313 c 128,-1,39
 463 326 463 326 485 326 c 0,40,41
 526 326 526 326 555.5 295 c 128,-1,42
 585 264 585 264 585 220 c 0,43,44
 585 134 585 134 526 73.5 c 128,-1,45
 467 13 467 13 385 13 c 1,46,-1
 385 13 l 1,0,1
EndSplineSet
EndChar

StartChar: u0922
Encoding: 2338 2338 49
Width: 579
GlyphClass: 2
Flags: W
AnchorPoint: "Anchor-3" 332 47 basechar 0
AnchorPoint: "Anchor-0" 428 664 basechar 0
LayerCount: 2
Fore
SplineSet
-13 606 m 1,0,-1
 -13 666 l 1,1,-1
 593 666 l 1,2,-1
 593 606 l 1,3,-1
 455 606 l 1,4,-1
 455 406 l 1,5,-1
 196 406 l 2,6,7
 160 406 160 406 134.5 375 c 128,-1,8
 109 344 109 344 109 300 c 0,9,10
 109 222 109 222 178.5 151 c 128,-1,11
 248 80 248 80 329 73 c 1,12,13
 306 92 306 92 294 122 c 128,-1,14
 282 152 282 152 282 186 c 0,15,16
 282 238 282 238 319.5 275.5 c 128,-1,17
 357 313 357 313 409 313 c 0,18,19
 463 313 463 313 502.5 273.5 c 128,-1,20
 542 234 542 234 542 180 c 0,21,22
 542 111 542 111 479.5 62 c 128,-1,23
 417 13 417 13 329 13 c 0,24,25
 222 13 222 13 132.5 103 c 128,-1,26
 43 193 43 193 43 300 c 0,27,28
 43 372 43 372 87.5 422.5 c 128,-1,29
 132 473 132 473 196 473 c 2,30,-1
 389 473 l 1,31,-1
 389 606 l 1,32,-1
 -13 606 l 1,33,-1
 -13 606 l 1,0,-1
395 80 m 1,34,35
 430 87 430 87 452.5 114.5 c 128,-1,36
 475 142 475 142 475 180 c 0,37,38
 475 208 475 208 456 227 c 128,-1,39
 437 246 437 246 409 246 c 0,40,41
 384 246 384 246 366.5 229 c 128,-1,42
 349 212 349 212 349 186 c 0,43,44
 349 154 349 154 361 126.5 c 128,-1,45
 373 99 373 99 395 80 c 1,46,-1
 395 80 l 1,34,35
EndSplineSet
EndChar

StartChar: u0923
Encoding: 2339 2339 50
Width: 669
GlyphClass: 2
Flags: W
AnchorPoint: "Anchor-3" 529 29 basechar 0
AnchorPoint: "Anchor-0" 540 664 basechar 0
LayerCount: 2
Fore
SplineSet
224 160 m 1,0,1
 157 160 157 160 110.5 208.5 c 128,-1,2
 64 257 64 257 64 326 c 2,3,-1
 64 606 l 1,4,-1
 -13 606 l 1,5,-1
 -13 666 l 1,6,-1
 683 666 l 1,7,-1
 683 606 l 1,8,-1
 570 606 l 1,9,-1
 570 0 l 1,10,-1
 503 0 l 1,11,-1
 503 606 l 1,12,-1
 377 606 l 1,13,-1
 377 326 l 2,14,15
 377 257 377 257 331.5 208.5 c 128,-1,16
 286 160 286 160 224 160 c 1,17,-1
 224 160 l 1,0,1
224 226 m 1,18,19
 260 226 260 226 285 255.5 c 128,-1,20
 310 285 310 285 310 326 c 2,21,-1
 310 606 l 1,22,-1
 130 606 l 1,23,-1
 130 326 l 2,24,25
 130 285 130 285 157.5 255.5 c 128,-1,26
 185 226 185 226 224 226 c 1,27,-1
 224 226 l 1,18,19
EndSplineSet
PairPos2: "'blwm' Below Base Mark in Devanagari lookup 5" u093C dx=0 dy=0 dh=0 dv=0 dx=56 dy=93 dh=0 dv=0
EndChar

StartChar: u0924
Encoding: 2340 2340 51
Width: 608
GlyphClass: 2
Flags: W
AnchorPoint: "Anchor-0" 478 664 basechar 0
LayerCount: 2
Fore
SplineSet
43 326 m 1,0,1
 43 390 43 390 84 434.5 c 128,-1,2
 125 479 125 479 182 479 c 2,3,-1
 442 479 l 1,4,-1
 442 606 l 1,5,-1
 -13 606 l 1,6,-1
 -13 666 l 1,7,-1
 622 666 l 1,8,-1
 622 606 l 1,9,-1
 509 606 l 1,10,-1
 509 0 l 1,11,-1
 442 0 l 1,12,-1
 442 413 l 1,13,-1
 182 413 l 2,14,15
 152 413 152 413 130.5 387.5 c 128,-1,16
 109 362 109 362 109 326 c 0,17,18
 109 262 109 262 154.5 189 c 128,-1,19
 200 116 200 116 282 47 c 1,20,-1
 242 0 l 1,21,22
 148 80 148 80 95.5 165 c 128,-1,23
 43 250 43 250 43 326 c 1,24,-1
 43 326 l 1,0,1
EndSplineSet
PairPos2: "'blwm' Below Base Mark in Devanagari lookup 5" u093C dx=0 dy=0 dh=0 dv=0 dx=-24 dy=93 dh=0 dv=0
EndChar

StartChar: u0925
Encoding: 2341 2341 52
Width: 685
GlyphClass: 2
Flags: W
AnchorPoint: "Anchor-0" 555 664 basechar 0
LayerCount: 2
Fore
SplineSet
300 133 m 1,0,1
 205 133 205 133 131 199 c 128,-1,2
 57 265 57 265 40 366 c 1,3,4
 51 362 51 362 73.5 361 c 128,-1,5
 96 360 96 360 140 360 c 0,6,7
 212 360 212 360 262.5 401 c 128,-1,8
 313 442 313 442 313 499 c 0,9,10
 313 549 313 549 281.5 584 c 128,-1,11
 250 619 250 619 206 619 c 0,12,13
 168 619 168 619 140.5 598 c 128,-1,14
 113 577 113 577 113 546 c 0,15,16
 113 521 113 521 136.5 503.5 c 128,-1,17
 160 486 160 486 193 486 c 1,18,-1
 193 419 l 1,19,20
 127 419 127 419 87 454 c 128,-1,21
 47 489 47 489 47 546 c 256,22,23
 47 603 47 603 93.5 644.5 c 128,-1,24
 140 686 140 686 206 686 c 0,25,26
 278 686 278 686 329 631.5 c 128,-1,27
 380 577 380 577 380 499 c 0,28,29
 380 414 380 414 308 353.5 c 128,-1,30
 236 293 236 293 133 293 c 1,31,32
 153 250 153 250 198.5 225 c 128,-1,33
 244 200 244 200 300 200 c 0,34,35
 354 200 354 200 411.5 233 c 128,-1,36
 469 266 469 266 519 326 c 1,37,-1
 519 606 l 1,38,-1
 453 606 l 1,39,-1
 453 666 l 1,40,-1
 699 666 l 1,41,-1
 699 606 l 1,42,-1
 586 606 l 1,43,-1
 586 0 l 1,44,-1
 519 0 l 1,45,-1
 519 240 l 1,46,47
 469 189 469 189 411.5 161 c 128,-1,48
 354 133 354 133 300 133 c 1,49,-1
 300 133 l 1,0,1
EndSplineSet
PairPos2: "'blwm' Below Base Mark in Devanagari lookup 5" u093C dx=0 dy=0 dh=0 dv=0 dx=-27 dy=104 dh=0 dv=0
EndChar

StartChar: u0926
Encoding: 2342 2342 53
Width: 541
GlyphClass: 2
Flags: W
AnchorPoint: "Anchor-3" 458 7 basechar 0
AnchorPoint: "Anchor-0" 417 666 basechar 0
LayerCount: 2
Fore
SplineSet
-21 606 m 1,0,-1
 -21 666 l 1,1,-1
 555 666 l 1,2,-1
 555 606 l 1,3,-1
 449 606 l 1,4,-1
 449 433 l 1,5,-1
 189 433 l 2,6,7
 150 433 150 433 123 405.5 c 128,-1,8
 96 378 96 378 96 340 c 0,9,10
 96 268 96 268 172 217 c 128,-1,11
 248 166 248 166 356 166 c 1,12,13
 356 213 356 213 377 246.5 c 128,-1,14
 398 280 398 280 429 280 c 0,15,16
 451 280 451 280 466.5 264.5 c 128,-1,17
 482 249 482 249 482 226 c 0,18,19
 482 200 482 200 466 173 c 128,-1,20
 450 146 450 146 422 127 c 1,21,-1
 495 0 l 1,22,-1
 435 -27 l 1,23,-1
 362 107 l 1,24,25
 224 107 224 107 126.5 175.5 c 128,-1,26
 29 244 29 244 29 340 c 0,27,28
 29 406 29 406 75.5 452.5 c 128,-1,29
 122 499 122 499 189 499 c 2,30,-1
 382 499 l 1,31,-1
 382 606 l 1,32,-1
 -21 606 l 1,33,-1
 -21 606 l 1,0,-1
EndSplineSet
PairPos2: "'blwm' Below Base Mark in Devanagari lookup 5" u093C dx=0 dy=0 dh=0 dv=0 dx=61 dy=96 dh=0 dv=0
EndChar

StartChar: u0927
Encoding: 2343 2343 54
Width: 648
GlyphClass: 2
Flags: W
AnchorPoint: "Anchor-0" 520 664 basechar 0
LayerCount: 2
Fore
SplineSet
276 113 m 1,0,1
 201 113 201 113 148.5 154.5 c 128,-1,2
 96 196 96 196 96 253 c 0,3,4
 96 289 96 289 110 319 c 128,-1,5
 124 349 124 349 149 366 c 1,6,7
 96 403 96 403 66 451 c 128,-1,8
 36 499 36 499 36 546 c 0,9,10
 36 603 36 603 75.5 644.5 c 128,-1,11
 115 686 115 686 169 686 c 0,12,13
 226 686 226 686 261 655.5 c 128,-1,14
 296 625 296 625 296 573 c 0,15,16
 296 529 296 529 260.5 497.5 c 128,-1,17
 225 466 225 466 176 466 c 1,18,-1
 176 533 l 1,19,20
 198 533 198 533 213.5 545 c 128,-1,21
 229 557 229 557 229 573 c 0,22,23
 229 591 229 591 211.5 605 c 128,-1,24
 194 619 194 619 169 619 c 0,25,26
 141 619 141 619 122 598 c 128,-1,27
 103 577 103 577 103 546 c 0,28,29
 103 507 103 507 129.5 470 c 128,-1,30
 156 433 156 433 202 406 c 1,31,32
 224 415 224 415 249 420.5 c 128,-1,33
 274 426 274 426 302 426 c 2,34,-1
 342 426 l 1,35,-1
 382 360 l 1,36,-1
 309 360 l 2,37,38
 248 360 248 360 205 328.5 c 128,-1,39
 162 297 162 297 162 253 c 0,40,41
 162 222 162 222 195.5 201 c 128,-1,42
 229 180 229 180 276 180 c 0,43,44
 329 180 329 180 383.5 215 c 128,-1,45
 438 250 438 250 482 313 c 1,46,-1
 482 606 l 1,47,-1
 336 606 l 1,48,-1
 336 666 l 1,49,-1
 662 666 l 1,50,-1
 662 606 l 1,51,-1
 549 606 l 1,52,-1
 549 0 l 1,53,-1
 482 0 l 1,54,-1
 482 220 l 1,55,56
 439 169 439 169 385.5 141 c 128,-1,57
 332 113 332 113 276 113 c 1,58,-1
 276 113 l 1,0,1
EndSplineSet
PairPos2: "'blwm' Below Base Mark in Devanagari lookup 5" u093C dx=0 dy=0 dh=0 dv=0 dx=-37 dy=91 dh=0 dv=0
EndChar

StartChar: u0928
Encoding: 2344 2344 55
Width: 585
GlyphClass: 2
Flags: W
AnchorPoint: "Anchor-0" 455 664 basechar 0
LayerCount: 2
Fore
SplineSet
20 399 m 1,0,1
 20 413 20 413 34 423 c 128,-1,2
 48 433 48 433 67 433 c 2,3,-1
 419 433 l 1,4,-1
 419 606 l 1,5,-1
 -13 606 l 1,6,-1
 -13 666 l 1,7,-1
 599 666 l 1,8,-1
 599 606 l 1,9,-1
 486 606 l 1,10,-1
 486 0 l 1,11,-1
 419 0 l 1,12,-1
 419 366 l 1,13,-1
 226 366 l 2,14,15
 210 366 210 366 198 358 c 128,-1,16
 186 350 186 350 186 340 c 2,17,-1
 186 273 l 2,18,19
 186 257 186 257 176 245 c 128,-1,20
 166 233 166 233 153 233 c 0,21,22
 130 233 130 233 75 302.5 c 128,-1,23
 20 372 20 372 20 399 c 1,24,-1
 20 399 l 1,0,1
EndSplineSet
EndChar

StartChar: u0929
Encoding: 2345 2345 56
Width: 585
GlyphClass: 2
Flags: W
AnchorPoint: "Anchor-0" 452 666 basechar 0
LayerCount: 2
Fore
SplineSet
20 399 m 1,0,1
 20 413 20 413 34 423 c 128,-1,2
 48 433 48 433 67 433 c 2,3,-1
 419 433 l 1,4,-1
 419 606 l 1,5,-1
 -13 606 l 1,6,-1
 -13 666 l 1,7,-1
 599 666 l 1,8,-1
 599 606 l 1,9,-1
 486 606 l 1,10,-1
 486 0 l 1,11,-1
 419 0 l 1,12,-1
 419 366 l 1,13,-1
 226 366 l 2,14,15
 210 366 210 366 198 358 c 128,-1,16
 186 350 186 350 186 340 c 2,17,-1
 186 273 l 2,18,19
 186 257 186 257 176 245 c 128,-1,20
 166 233 166 233 153 233 c 0,21,22
 130 233 130 233 75 302.5 c 128,-1,23
 20 372 20 372 20 399 c 1,24,-1
 20 399 l 1,0,1
226 -7 m 1,25,-1
 173 40 l 1,26,-1
 226 93 l 1,27,-1
 280 40 l 1,28,-1
 226 -7 l 1,29,-1
 226 -7 l 1,25,-1
EndSplineSet
LCarets2: 1 0 
Ligature2: "'nukt' Nukta Forms in Devanagari lookup 48" u0928 u093C
EndChar

StartChar: u092A
Encoding: 2346 2346 57
Width: 536
GlyphClass: 2
Flags: W
AnchorPoint: "Anchor-0" 404 664 basechar 0
LayerCount: 2
Fore
SplineSet
57 366 m 1,0,-1
 57 606 l 1,1,-1
 -13 606 l 1,2,-1
 -13 666 l 1,3,-1
 550 666 l 1,4,-1
 550 606 l 1,5,-1
 437 606 l 1,6,-1
 437 0 l 1,7,-1
 370 0 l 1,8,-1
 370 253 l 1,9,10
 341 224 341 224 306.5 208.5 c 128,-1,11
 272 193 272 193 237 193 c 0,12,13
 162 193 162 193 109.5 243.5 c 128,-1,14
 57 294 57 294 57 366 c 1,15,-1
 57 366 l 1,0,-1
237 260 m 1,16,17
 278 260 278 260 314 285 c 128,-1,18
 350 310 350 310 370 353 c 1,19,-1
 370 606 l 1,20,-1
 124 606 l 1,21,-1
 124 366 l 2,22,23
 124 322 124 322 157 291 c 128,-1,24
 190 260 190 260 237 260 c 1,25,-1
 237 260 l 1,16,17
EndSplineSet
PairPos2: "'blwm' Below Base Mark in Devanagari lookup 5" u093C dx=0 dy=0 dh=0 dv=0 dx=154 dy=112 dh=0 dv=0
EndChar

StartChar: u092B
Encoding: 2347 2347 58
Width: 774
GlyphClass: 2
Flags: W
AnchorPoint: "Anchor-3" 391 23 basechar 0
AnchorPoint: "Anchor-0" 386 664 basechar 0
LayerCount: 2
Fore
SplineSet
55 373 m 1,0,-1
 55 606 l 1,1,-1
 -13 606 l 1,2,-1
 -13 666 l 1,3,-1
 788 666 l 1,4,-1
 788 606 l 1,5,-1
 421 606 l 1,6,-1
 421 419 l 1,7,8
 447 451 447 451 484 468.5 c 128,-1,9
 521 486 521 486 561 486 c 0,10,11
 630 486 630 486 678.5 431.5 c 128,-1,12
 727 377 727 377 727 300 c 0,13,14
 727 240 727 240 704.5 182 c 128,-1,15
 682 124 682 124 640 73 c 1,16,-1
 581 107 l 1,17,18
 619 145 619 145 639.5 195 c 128,-1,19
 660 245 660 245 660 300 c 0,20,21
 660 349 660 349 631 384 c 128,-1,22
 602 419 602 419 561 419 c 0,23,24
 526 419 526 419 489.5 398.5 c 128,-1,25
 453 378 453 378 421 340 c 1,26,-1
 421 0 l 1,27,-1
 354 0 l 1,28,-1
 354 266 l 1,29,30
 329 241 329 241 294.5 227 c 128,-1,31
 260 213 260 213 221 213 c 0,32,33
 152 213 152 213 103.5 259.5 c 128,-1,34
 55 306 55 306 55 373 c 1,35,-1
 55 373 l 1,0,-1
221 280 m 1,36,37
 260 280 260 280 295 299 c 128,-1,38
 330 318 330 318 354 353 c 1,39,-1
 354 606 l 1,40,-1
 121 606 l 1,41,-1
 121 373 l 2,42,43
 121 334 121 334 150.5 307 c 128,-1,44
 180 280 180 280 221 280 c 1,45,-1
 221 280 l 1,36,37
EndSplineSet
EndChar

StartChar: u092C
Encoding: 2348 2348 59
Width: 537
GlyphClass: 2
Flags: W
AnchorPoint: "Anchor-0" 407 666.215 basechar 0
LayerCount: 2
Fore
SplineSet
39 320 m 1,0,1
 39 399 39 399 97.5 456 c 128,-1,2
 156 513 156 513 238 513 c 0,3,4
 264 513 264 513 286 507.5 c 128,-1,5
 308 502 308 502 325 493 c 1,6,-1
 305 439 l 1,7,8
 290 446 290 446 273.5 449.5 c 128,-1,9
 257 453 257 453 238 453 c 0,10,11
 209 453 209 453 188.5 445.5 c 128,-1,12
 168 438 168 438 158 426 c 1,13,-1
 352 280 l 1,14,-1
 372 306 l 1,15,-1
 372 606 l 1,16,-1
 -13 606 l 1,17,-1
 -13 666 l 1,18,-1
 551 666 l 1,19,-1
 551 606 l 1,20,-1
 438 606 l 1,21,-1
 438 0 l 1,22,-1
 372 0 l 1,23,-1
 372 213 l 1,24,25
 340 181 340 181 302 163.5 c 128,-1,26
 264 146 264 146 225 146 c 0,27,28
 148 146 148 146 93.5 197 c 128,-1,29
 39 248 39 248 39 320 c 1,30,-1
 39 320 l 1,0,1
225 213 m 1,31,32
 249 213 249 213 269 219.5 c 128,-1,33
 289 226 289 226 305 240 c 1,34,-1
 125 386 l 1,35,36
 116 374 116 374 110.5 357.5 c 128,-1,37
 105 341 105 341 105 320 c 0,38,39
 105 276 105 276 140.5 244.5 c 128,-1,40
 176 213 176 213 225 213 c 1,41,-1
 225 213 l 1,31,32
EndSplineSet
PairPos2: "'blwm' Below Base Mark in Devanagari lookup 5" u093C dx=0 dy=0 dh=0 dv=0 dx=93 dy=93 dh=0 dv=0
EndChar

StartChar: u092D
Encoding: 2349 2349 60
Width: 657
GlyphClass: 2
Flags: W
AnchorPoint: "Anchor-0" 526 664 basechar 0
LayerCount: 2
Fore
SplineSet
119 326 m 1,0,1
 119 337 119 337 128.5 345 c 128,-1,2
 138 353 138 353 152 353 c 2,3,-1
 205 353 l 1,4,-1
 205 546 l 2,5,6
 205 574 205 574 187.5 593.5 c 128,-1,7
 170 613 170 613 145 613 c 256,8,9
 120 613 120 613 102.5 599 c 128,-1,10
 85 585 85 585 85 566 c 0,11,12
 85 543 85 543 102.5 528 c 128,-1,13
 120 513 120 513 145 513 c 1,14,-1
 145 446 l 1,15,16
 93 446 93 446 56 481.5 c 128,-1,17
 19 517 19 517 19 566 c 0,18,19
 19 613 19 613 56 646 c 128,-1,20
 93 679 93 679 145 679 c 256,21,22
 197 679 197 679 234.5 640 c 128,-1,23
 272 601 272 601 272 546 c 2,24,-1
 272 353 l 1,25,-1
 491 353 l 1,26,-1
 491 606 l 1,27,-1
 318 606 l 1,28,-1
 318 666 l 1,29,-1
 671 666 l 1,30,-1
 671 606 l 1,31,-1
 558 606 l 1,32,-1
 558 0 l 1,33,-1
 491 0 l 1,34,-1
 491 286 l 1,35,-1
 272 286 l 1,36,-1
 272 233 l 2,37,38
 272 222 272 222 262 214 c 128,-1,39
 252 206 252 206 238 206 c 0,40,41
 218 206 218 206 168.5 256 c 128,-1,42
 119 306 119 306 119 326 c 1,43,-1
 119 326 l 1,0,1
EndSplineSet
PairPos2: "'blwm' Below Base Mark in Devanagari lookup 5" u093C dx=0 dy=0 dh=0 dv=0 dx=99 dy=112 dh=0 dv=0
EndChar

StartChar: u092E
Encoding: 2350 2350 61
Width: 579
GlyphClass: 2
Flags: W
AnchorPoint: "Anchor-0" 447 664 basechar 0
LayerCount: 2
Fore
SplineSet
-13 606 m 1,0,-1
 -13 666 l 1,1,-1
 593 666 l 1,2,-1
 593 606 l 1,3,-1
 479 606 l 1,4,-1
 479 0 l 1,5,-1
 413 0 l 1,6,-1
 413 320 l 1,7,-1
 173 320 l 1,8,-1
 173 273 l 2,9,10
 173 257 173 257 167 245 c 128,-1,11
 161 233 161 233 153 233 c 0,12,13
 130 233 130 233 75 283 c 128,-1,14
 20 333 20 333 20 353 c 0,15,16
 20 366 20 366 30 376 c 128,-1,17
 40 386 40 386 53 386 c 2,18,-1
 107 386 l 1,19,-1
 107 606 l 1,20,-1
 -13 606 l 1,21,-1
 -13 606 l 1,0,-1
173 386 m 1,22,-1
 413 386 l 1,23,-1
 413 606 l 1,24,-1
 173 606 l 1,25,-1
 173 386 l 1,26,-1
 173 386 l 1,22,-1
EndSplineSet
PairPos2: "'blwm' Below Base Mark in Devanagari lookup 5" u093C dx=0 dy=0 dh=0 dv=0 dx=88 dy=136 dh=0 dv=0
EndChar

StartChar: u092F
Encoding: 2351 2351 62
Width: 596
GlyphClass: 2
Flags: W
AnchorPoint: "Anchor-3" 466 26 basechar 0
AnchorPoint: "Anchor-0" 464 664 basechar 0
LayerCount: 2
Fore
SplineSet
-13 606 m 1,0,-1
 -13 666 l 1,1,-1
 610 666 l 1,2,-1
 610 606 l 1,3,-1
 497 606 l 1,4,-1
 497 0 l 1,5,-1
 430 0 l 1,6,-1
 430 206 l 1,7,8
 391 168 391 168 346.5 147.5 c 128,-1,9
 302 127 302 127 257 127 c 0,10,11
 161 127 161 127 92.5 196.5 c 128,-1,12
 24 266 24 266 24 366 c 1,13,14
 100 366 100 366 145 395.5 c 128,-1,15
 190 425 190 425 190 473 c 0,16,17
 190 505 190 505 173 539.5 c 128,-1,18
 156 574 156 574 124 606 c 1,19,-1
 -13 606 l 1,20,-1
 -13 606 l 1,0,-1
257 193 m 1,21,22
 309 193 309 193 355.5 221.5 c 128,-1,23
 402 250 402 250 430 300 c 1,24,-1
 430 606 l 1,25,-1
 204 606 l 1,26,27
 229 575 229 575 243 540.5 c 128,-1,28
 257 506 257 506 257 473 c 0,29,30
 257 415 257 415 211.5 370 c 128,-1,31
 166 325 166 325 97 313 c 1,32,33
 107 261 107 261 152 227 c 128,-1,34
 197 193 197 193 257 193 c 1,35,-1
 257 193 l 1,21,22
EndSplineSet
EndChar

StartChar: u0930
Encoding: 2352 2352 63
Width: 436
GlyphClass: 2
Flags: W
AnchorPoint: "Anchor-0" 331 664 basechar 0
LayerCount: 2
Fore
SplineSet
-13 606 m 1,0,-1
 -13 666 l 1,1,-1
 450 666 l 1,2,-1
 450 606 l 1,3,-1
 360 606 l 1,4,-1
 360 453 l 2,5,6
 360 391 360 391 318.5 348.5 c 128,-1,7
 277 306 277 306 220 306 c 0,8,9
 212 306 212 306 198.5 309.5 c 128,-1,10
 185 313 185 313 166 320 c 1,11,12
 209 245 209 245 267.5 176.5 c 128,-1,13
 326 108 326 108 399 47 c 1,14,-1
 360 0 l 1,15,16
 253 89 253 89 167 202.5 c 128,-1,17
 81 316 81 316 20 446 c 1,18,-1
 80 479 l 1,19,20
 97 431 97 431 135.5 402 c 128,-1,21
 174 373 174 373 220 373 c 0,22,23
 250 373 250 373 271.5 396 c 128,-1,24
 293 419 293 419 293 453 c 2,25,-1
 293 606 l 1,26,-1
 -13 606 l 1,27,-1
 -13 606 l 1,0,-1
EndSplineSet
EndChar

StartChar: u0931
Encoding: 2353 2353 64
Width: 442
GlyphClass: 2
Flags: W
AnchorPoint: "Anchor-0" 335 665 basechar 0
LayerCount: 2
Fore
SplineSet
365 0 m 1,0,1
 258 89 258 89 172.5 202.5 c 128,-1,2
 87 316 87 316 25 446 c 1,3,-1
 85 493 l 1,4,5
 107 435 107 435 144.5 400.5 c 128,-1,6
 182 366 182 366 225 366 c 0,7,8
 256 366 256 366 277 391.5 c 128,-1,9
 298 417 298 417 298 453 c 2,10,-1
 298 606 l 1,11,-1
 -13 606 l 1,12,-1
 -13 666 l 1,13,-1
 455 666 l 1,14,-1
 455 606 l 1,15,-1
 365 606 l 1,16,-1
 365 453 l 2,17,18
 365 391 365 391 323.5 348.5 c 128,-1,19
 282 306 282 306 225 306 c 0,20,21
 217 306 217 306 203.5 309.5 c 128,-1,22
 190 313 190 313 172 320 c 1,23,24
 214 245 214 245 273 176.5 c 128,-1,25
 332 108 332 108 405 47 c 1,26,-1
 365 0 l 1,27,-1
 365 0 l 1,0,1
125 -7 m 1,28,-1
 72 40 l 1,29,-1
 125 93 l 1,30,-1
 178 40 l 1,31,-1
 125 -7 l 1,32,-1
 125 -7 l 1,28,-1
EndSplineSet
LCarets2: 1 0 
Ligature2: "'nukt' Nukta Forms in Devanagari lookup 48" u0930 u093C
EndChar

StartChar: u0932
Encoding: 2354 2354 65
Width: 727
GlyphClass: 2
Flags: W
AnchorPoint: "Anchor-0" 597 664 basechar 0
LayerCount: 2
Fore
SplineSet
-13 606 m 1,0,-1
 -13 666 l 1,1,-1
 740 666 l 1,2,-1
 740 606 l 1,3,-1
 627 606 l 1,4,-1
 627 0 l 1,5,-1
 561 0 l 1,6,-1
 561 399 l 1,7,8
 503 399 503 399 453 347.5 c 128,-1,9
 403 296 403 296 381 213 c 1,10,-1
 321 233 l 1,11,12
 326 265 326 265 337 291 c 128,-1,13
 348 317 348 317 361 333 c 1,14,15
 340 365 340 365 308 382 c 128,-1,16
 276 399 276 399 241 399 c 0,17,18
 186 399 186 399 147 360 c 128,-1,19
 108 321 108 321 108 266 c 0,20,21
 108 206 108 206 168.5 147.5 c 128,-1,22
 229 89 229 89 328 53 c 1,23,-1
 301 -7 l 1,24,25
 184 36 184 36 112.5 111 c 128,-1,26
 41 186 41 186 41 266 c 0,27,28
 41 349 41 349 99.5 407.5 c 128,-1,29
 158 466 158 466 241 466 c 0,30,31
 290 466 290 466 334 446.5 c 128,-1,32
 378 427 378 427 407 393 c 1,33,34
 437 427 437 427 477 446.5 c 128,-1,35
 517 466 517 466 561 466 c 1,36,-1
 561 606 l 1,37,-1
 -13 606 l 1,38,-1
 -13 606 l 1,0,-1
EndSplineSet
PairPos2: "'blwm' Below Base Mark in Devanagari lookup 5" u093C dx=0 dy=0 dh=0 dv=0 dx=-123 dy=85 dh=0 dv=0
EndChar

StartChar: u0933
Encoding: 2355 2355 66
Width: 735
GlyphClass: 2
Flags: W
AnchorPoint: "Anchor-3" 527 101 basechar 0
AnchorPoint: "Anchor-0" 519 664 basechar 0
LayerCount: 2
Fore
SplineSet
-13 606 m 1,0,-1
 -13 666 l 1,1,-1
 748 666 l 1,2,-1
 748 606 l 1,3,-1
 550 606 l 1,4,-1
 550 479 l 1,5,6
 611 469 611 469 650.5 412.5 c 128,-1,7
 690 356 690 356 690 280 c 0,8,9
 690 194 690 194 641.5 133.5 c 128,-1,10
 593 73 593 73 523 73 c 0,11,12
 482 73 482 73 440 109 c 128,-1,13
 398 145 398 145 370 206 c 1,14,15
 342 145 342 145 302 109 c 128,-1,16
 262 73 262 73 224 73 c 0,17,18
 149 73 149 73 96.5 131.5 c 128,-1,19
 44 190 44 190 44 274 c 0,20,21
 44 360 44 360 96.5 419.5 c 128,-1,22
 149 479 149 479 224 479 c 0,23,24
 270 479 270 479 310 446.5 c 128,-1,25
 350 414 350 414 370 360 c 1,26,27
 389 409 389 409 419 441 c 128,-1,28
 449 473 449 473 483 479 c 1,29,-1
 483 606 l 1,30,-1
 -13 606 l 1,31,-1
 -13 606 l 1,0,-1
224 140 m 1,32,33
 253 140 253 140 284.5 176.5 c 128,-1,34
 316 213 316 213 337 273 c 1,35,36
 320 338 320 338 288.5 378.5 c 128,-1,37
 257 419 257 419 224 419 c 0,38,39
 177 419 177 419 144 376.5 c 128,-1,40
 111 334 111 334 111 274 c 0,41,42
 111 218 111 218 144 179 c 128,-1,43
 177 140 177 140 224 140 c 1,44,-1
 224 140 l 1,32,33
523 133 m 1,45,46
 565 133 565 133 594 175.5 c 128,-1,47
 623 218 623 218 623 280 c 0,48,49
 623 337 623 337 594 378 c 128,-1,50
 565 419 565 419 523 419 c 0,51,52
 487 419 487 419 453 380 c 128,-1,53
 419 341 419 341 403 280 c 1,54,55
 427 213 427 213 460.5 173 c 128,-1,56
 494 133 494 133 523 133 c 1,57,-1
 523 133 l 1,45,46
EndSplineSet
EndChar

StartChar: u0934
Encoding: 2356 2356 67
Width: 733
GlyphClass: 2
Flags: W
AnchorPoint: "Anchor-3" 553 98 basechar 0
AnchorPoint: "Anchor-0" 515 664 basechar 0
LayerCount: 2
Fore
SplineSet
224 73 m 1,0,1
 149 73 149 73 96.5 134.5 c 128,-1,2
 44 196 44 196 44 282 c 0,3,4
 44 364 44 364 96.5 421.5 c 128,-1,5
 149 479 149 479 224 479 c 0,6,7
 270 479 270 479 310 446.5 c 128,-1,8
 350 414 350 414 370 360 c 1,9,10
 390 402 390 402 418 432 c 128,-1,11
 446 462 446 462 477 473 c 1,12,-1
 477 606 l 1,13,-1
 -13 606 l 1,14,-1
 -13 666 l 1,15,-1
 747 666 l 1,16,-1
 747 606 l 1,17,-1
 550 606 l 1,18,-1
 550 473 l 1,19,20
 611 457 611 457 650.5 403 c 128,-1,21
 690 349 690 349 690 280 c 0,22,23
 690 194 690 194 641.5 133.5 c 128,-1,24
 593 73 593 73 523 73 c 0,25,26
 482 73 482 73 440 109 c 128,-1,27
 398 145 398 145 370 206 c 1,28,29
 342 145 342 145 302 109 c 128,-1,30
 262 73 262 73 224 73 c 1,31,-1
 224 73 l 1,0,1
224 140 m 1,32,33
 253 140 253 140 284.5 176.5 c 128,-1,34
 316 213 316 213 337 273 c 1,35,36
 320 338 320 338 288.5 378.5 c 128,-1,37
 257 419 257 419 224 419 c 0,38,39
 177 419 177 419 144 378 c 128,-1,40
 111 337 111 337 111 280 c 0,41,42
 111 222 111 222 144 181 c 128,-1,43
 177 140 177 140 224 140 c 1,44,-1
 224 140 l 1,32,33
523 133 m 1,45,46
 565 133 565 133 594 175.5 c 128,-1,47
 623 218 623 218 623 280 c 0,48,49
 623 337 623 337 594 378 c 128,-1,50
 565 419 565 419 523 419 c 0,51,52
 487 419 487 419 453 380 c 128,-1,53
 419 341 419 341 403 280 c 1,54,55
 427 213 427 213 460.5 173 c 128,-1,56
 494 133 494 133 523 133 c 1,57,-1
 523 133 l 1,45,46
370 -20 m 1,58,-1
 317 33 l 1,59,-1
 370 87 l 1,60,-1
 423 33 l 1,61,-1
 370 -20 l 1,62,-1
 370 -20 l 1,58,-1
EndSplineSet
LCarets2: 1 0 
Ligature2: "'nukt' Nukta Forms in Devanagari lookup 48" u0933 u093C
EndChar

StartChar: u0935
Encoding: 2357 2357 68
Width: 543
GlyphClass: 2
Flags: W
AnchorPoint: "Anchor-0" 410 665.216 basechar 0
LayerCount: 2
Fore
SplineSet
-13 606 m 1,0,-1
 -13 666 l 1,1,-1
 557 666 l 1,2,-1
 557 606 l 1,3,-1
 443 606 l 1,4,-1
 443 0 l 1,5,-1
 377 0 l 1,6,-1
 377 213 l 1,7,8
 350 181 350 181 313.5 163.5 c 128,-1,9
 277 146 277 146 237 146 c 0,10,11
 154 146 154 146 95.5 199 c 128,-1,12
 37 252 37 252 37 326 c 0,13,14
 37 401 37 401 95.5 453.5 c 128,-1,15
 154 506 154 506 237 506 c 0,16,17
 261 506 261 506 283 499.5 c 128,-1,18
 305 493 305 493 324 479 c 1,19,-1
 290 426 l 1,20,21
 278 435 278 435 265 440.5 c 128,-1,22
 252 446 252 446 237 446 c 0,23,24
 182 446 182 446 143 411 c 128,-1,25
 104 376 104 376 104 326 c 0,26,27
 104 280 104 280 143 246.5 c 128,-1,28
 182 213 182 213 237 213 c 0,29,30
 276 213 276 213 313 239.5 c 128,-1,31
 350 266 350 266 377 313 c 1,32,-1
 377 606 l 1,33,-1
 -13 606 l 1,34,-1
 -13 606 l 1,0,-1
EndSplineSet
PairPos2: "'blwm' Below Base Mark in Devanagari lookup 5" u093C dx=0 dy=0 dh=0 dv=0 dx=99 dy=107 dh=0 dv=0
EndChar

StartChar: u0936
Encoding: 2358 2358 69
Width: 676
GlyphClass: 2
Flags: W
AnchorPoint: "Anchor-0" 545.5 664.151 basechar 0
LayerCount: 2
Fore
SplineSet
330 0 m 1,0,-1
 31 253 l 1,1,-1
 64 300 l 1,2,3
 93 276 93 276 110 264.5 c 128,-1,4
 127 253 127 253 137 253 c 0,5,6
 212 253 212 253 264.5 311.5 c 128,-1,7
 317 370 317 370 317 453 c 1,8,9
 300 422 300 422 267 404 c 128,-1,10
 234 386 234 386 197 386 c 0,11,12
 142 386 142 386 103 427.5 c 128,-1,13
 64 469 64 469 64 526 c 0,14,15
 64 590 64 590 106.5 634.5 c 128,-1,16
 149 679 149 679 210 679 c 0,17,18
 282 679 282 679 333 612.5 c 128,-1,19
 384 546 384 546 384 453 c 0,20,21
 384 350 384 350 323 278 c 128,-1,22
 262 206 262 206 177 206 c 1,23,-1
 370 47 l 1,24,-1
 330 0 l 1,25,-1
 330 0 l 1,0,-1
197 453 m 1,26,27
 230 453 230 453 259 473 c 128,-1,28
 288 493 288 493 304 526 c 1,29,30
 289 565 289 565 263.5 589 c 128,-1,31
 238 613 238 613 210 613 c 0,32,33
 177 613 177 613 153.5 587.5 c 128,-1,34
 130 562 130 562 130 526 c 0,35,36
 130 495 130 495 149.5 474 c 128,-1,37
 169 453 169 453 197 453 c 1,38,-1
 197 453 l 1,26,27
377 606 m 1,39,-1
 377 666 l 1,40,-1
 690 666 l 1,41,-1
 690 606 l 1,42,-1
 577 606 l 1,43,-1
 577 0 l 1,44,-1
 510 0 l 1,45,-1
 510 606 l 1,46,-1
 377 606 l 1,47,-1
 377 606 l 1,39,-1
EndSplineSet
PairPos2: "'blwm' Below Base Mark in Devanagari lookup 5" u093C dx=0 dy=0 dh=0 dv=0 dx=-43 dy=93 dh=0 dv=0
EndChar

StartChar: u0937
Encoding: 2359 2359 70
Width: 535
GlyphClass: 2
Flags: W
AnchorPoint: "Anchor-0" 403.5 666.218 basechar 0
LayerCount: 2
Fore
SplineSet
-13 606 m 1,0,-1
 -13 666 l 1,1,-1
 549 666 l 1,2,-1
 549 606 l 1,3,-1
 435 606 l 1,4,-1
 435 0 l 1,5,-1
 369 0 l 1,6,-1
 369 240 l 1,7,8
 341 220 341 220 305 210 c 128,-1,9
 269 200 269 200 229 200 c 0,10,11
 157 200 157 200 106.5 250.5 c 128,-1,12
 56 301 56 301 56 373 c 2,13,-1
 56 606 l 1,14,-1
 -13 606 l 1,15,-1
 -13 606 l 1,0,-1
229 266 m 1,16,17
 270 266 270 266 306 278 c 128,-1,18
 342 290 342 290 369 313 c 1,19,-1
 123 539 l 1,20,-1
 123 373 l 2,21,22
 123 329 123 329 154 297.5 c 128,-1,23
 185 266 185 266 229 266 c 1,24,-1
 229 266 l 1,16,17
369 386 m 1,25,-1
 369 606 l 1,26,-1
 136 606 l 1,27,-1
 369 386 l 1,28,-1
 369 386 l 1,25,-1
EndSplineSet
PairPos2: "'blwm' Below Base Mark in Devanagari lookup 5" u093C dx=0 dy=0 dh=0 dv=0 dx=141 dy=109 dh=0 dv=0
EndChar

StartChar: u0938
Encoding: 2360 2360 71
Width: 709
GlyphClass: 2
Flags: W
AnchorPoint: "Anchor-0" 576.5 664.639 basechar 0
LayerCount: 2
Fore
SplineSet
-13 606 m 1,0,-1
 -13 666 l 1,1,-1
 723 666 l 1,2,-1
 723 606 l 1,3,-1
 610 606 l 1,4,-1
 610 0 l 1,5,-1
 543 0 l 1,6,-1
 543 320 l 1,7,-1
 364 320 l 1,8,-1
 330 386 l 1,9,-1
 543 386 l 1,10,-1
 543 606 l 1,11,-1
 310 606 l 1,12,-1
 310 426 l 2,13,14
 310 374 310 374 277 337 c 128,-1,15
 244 300 244 300 197 300 c 0,16,17
 189 300 189 300 181.5 302 c 128,-1,18
 174 304 174 304 170 306 c 1,19,-1
 370 27 l 1,20,-1
 317 -7 l 1,21,-1
 17 419 l 1,22,-1
 71 459 l 1,23,24
 92 414 92 414 120.5 387 c 128,-1,25
 149 360 149 360 177 360 c 256,26,27
 205 360 205 360 224.5 379 c 128,-1,28
 244 398 244 398 244 426 c 2,29,-1
 244 606 l 1,30,-1
 -13 606 l 1,31,-1
 -13 606 l 1,0,-1
EndSplineSet
PairPos2: "'blwm' Below Base Mark in Devanagari lookup 5" u093C dx=0 dy=0 dh=0 dv=0 dx=-88 dy=117 dh=0 dv=0
EndChar

StartChar: u0939
Encoding: 2361 2361 72
Width: 527
GlyphClass: 2
Flags: W
AnchorPoint: "Anchor-3" 335 2 basechar 0
AnchorPoint: "Anchor-0" 401 666 basechar 0
LayerCount: 2
Fore
SplineSet
-13 606 m 1,0,-1
 -13 666 l 1,1,-1
 541 666 l 1,2,-1
 541 606 l 1,3,-1
 434 606 l 1,4,-1
 434 446 l 1,5,-1
 161 446 l 2,6,7
 148 446 148 446 138 440 c 128,-1,8
 128 434 128 434 128 426 c 0,9,10
 128 399 128 399 148 374 c 128,-1,11
 168 349 168 349 201 333 c 1,12,13
 222 342 222 342 247.5 347.5 c 128,-1,14
 273 353 273 353 301 353 c 0,15,16
 376 353 376 353 428.5 310.5 c 128,-1,17
 481 268 481 268 481 206 c 0,18,19
 481 172 481 172 467 143.5 c 128,-1,20
 453 115 453 115 427 100 c 1,21,-1
 374 146 l 1,22,23
 393 157 393 157 403.5 173 c 128,-1,24
 414 189 414 189 414 206 c 0,25,26
 414 240 414 240 381 263 c 128,-1,27
 348 286 348 286 301 286 c 0,28,29
 229 286 229 286 178.5 253 c 128,-1,30
 128 220 128 220 128 173 c 0,31,32
 128 112 128 112 214 69.5 c 128,-1,33
 300 27 300 27 421 27 c 1,34,-1
 407 -33 l 1,35,36
 264 -33 264 -33 162.5 27.5 c 128,-1,37
 61 88 61 88 61 173 c 0,38,39
 61 212 61 212 80.5 246 c 128,-1,40
 100 280 100 280 134 300 c 1,41,42
 100 329 100 329 80.5 362 c 128,-1,43
 61 395 61 395 61 426 c 0,44,45
 61 462 61 462 90.5 487.5 c 128,-1,46
 120 513 120 513 161 513 c 2,47,-1
 368 513 l 1,48,-1
 368 606 l 1,49,-1
 -13 606 l 1,50,-1
 -13 606 l 1,0,-1
EndSplineSet
PairPos2: "'blwm' Below Base Mark in Devanagari lookup 5" u093C dx=0 dy=0 dh=0 dv=0 dx=59 dy=59 dh=0 dv=0
EndChar

StartChar: u093C
Encoding: 2364 2364 73
Width: 0
GlyphClass: 4
Flags: W
LayerCount: 2
Fore
SplineSet
-526 -93 m 1,0,-1
 -579 -47 l 1,1,-1
 -526 7 l 1,2,-1
 -473 -47 l 1,3,-1
 -526 -93 l 1,4,-1
 -526 -93 l 1,0,-1
EndSplineSet
EndChar

StartChar: u093D
Encoding: 2365 2365 74
Width: 442
GlyphClass: 2
Flags: W
LayerCount: 2
Fore
SplineSet
245 5 m 1,0,1
 176 5 176 5 114.5 63 c 128,-1,2
 53 121 53 121 25 214 c 1,3,-1
 85 246 l 1,4,5
 108 170 108 170 152.5 123.5 c 128,-1,6
 197 77 197 77 245 77 c 0,7,8
 281 77 281 77 306.5 110.5 c 128,-1,9
 332 144 332 144 332 192 c 0,10,11
 332 236 332 236 294.5 284.5 c 128,-1,12
 257 333 257 333 192 376 c 0,13,14
 148 403 148 403 123.5 445 c 128,-1,15
 99 487 99 487 99 533 c 0,16,17
 99 582 99 582 140 617 c 128,-1,18
 181 652 181 652 238 652 c 2,19,-1
 398 652 l 1,20,-1
 398 585 l 1,21,-1
 238 585 l 2,22,23
 208 585 208 585 186.5 569 c 128,-1,24
 165 553 165 553 165 530 c 0,25,26
 165 498 165 498 199 457.5 c 128,-1,27
 233 417 233 417 292 378 c 0,28,29
 341 346 341 346 369.5 296 c 128,-1,30
 398 246 398 246 398 192 c 0,31,32
 398 115 398 115 353.5 60 c 128,-1,33
 309 5 309 5 245 5 c 1,34,-1
 245 5 l 1,0,1
EndSplineSet
EndChar

StartChar: u093E
Encoding: 2366 2366 75
Width: 266
GlyphClass: 2
Flags: W
LayerCount: 2
Fore
SplineSet
-13 606 m 1,0,-1
 -13 666 l 1,1,-1
 280 666 l 1,2,-1
 280 606 l 1,3,-1
 166 606 l 1,4,-1
 166 0 l 1,5,-1
 100 0 l 1,6,-1
 100 606 l 1,7,-1
 -13 606 l 1,8,-1
 -13 606 l 1,0,-1
EndSplineSet
EndChar

StartChar: u093F
Encoding: 2367 2367 76
Width: 266
GlyphClass: 2
Flags: W
LayerCount: 2
Fore
SplineSet
-13 606 m 1,0,-1
 -13 666 l 1,1,-1
 100 666 l 1,2,3
 91 678 91 678 85.5 700 c 128,-1,4
 80 722 80 722 80 752 c 0,5,6
 80 832 80 832 142.5 888.5 c 128,-1,7
 205 945 205 945 293 945 c 0,8,9
 398 945 398 945 499.5 874 c 128,-1,10
 601 803 601 803 672 679 c 1,11,-1
 593 679 l 1,12,13
 537 775 537 775 457 830.5 c 128,-1,14
 377 886 377 886 293 886 c 0,15,16
 232 886 232 886 189 846.5 c 128,-1,17
 146 807 146 807 146 752 c 0,18,19
 146 722 146 722 151.5 700 c 128,-1,20
 157 678 157 678 166 666 c 1,21,-1
 280 666 l 1,22,-1
 280 606 l 1,23,-1
 166 606 l 1,24,-1
 166 0 l 1,25,-1
 100 0 l 1,26,-1
 100 606 l 1,27,-1
 -13 606 l 1,28,-1
 -13 606 l 1,0,-1
EndSplineSet
Substitution2: "Single Substitution in Devanagari lookup 81-2" SignI_extended_1
Substitution2: "Singal Substitution in Devanagari lookup 80-1" glyph206
Substitution2: "Single Substitution lookup 78" glyph206
Substitution2: "Single Substitution lookup 77" glyph229
PairPos2: "'abvm' Above Base Mark in Devanagari lookup 4" u0902 dx=0 dy=0 dh=0 dv=0 dx=493 dy=15 dh=0 dv=0
EndChar

StartChar: u0940
Encoding: 2368 2368 77
Width: 266
GlyphClass: 2
Flags: W
AnchorPoint: "Anchor-1" 263 55 basechar 0
LayerCount: 2
Fore
SplineSet
-13 606 m 1,0,-1
 -13 666 l 1,1,-1
 100 666 l 1,2,3
 83 762 83 762 37.5 824 c 128,-1,4
 -8 886 -8 886 -60 886 c 0,5,6
 -99 886 -99 886 -126 860.5 c 128,-1,7
 -153 835 -153 835 -153 799 c 0,8,9
 -153 767 -153 767 -139 735.5 c 128,-1,10
 -125 704 -125 704 -100 679 c 1,11,-1
 -173 679 l 1,12,13
 -196 702 -196 702 -208 733 c 128,-1,14
 -220 764 -220 764 -220 799 c 0,15,16
 -220 860 -220 860 -173.5 902.5 c 128,-1,17
 -127 945 -127 945 -60 945 c 0,18,19
 17 945 17 945 81 866 c 128,-1,20
 145 787 145 787 166 666 c 1,21,-1
 280 666 l 1,22,-1
 280 606 l 1,23,-1
 166 606 l 1,24,-1
 166 0 l 1,25,-1
 100 0 l 1,26,-1
 100 606 l 1,27,-1
 -13 606 l 1,28,-1
 -13 606 l 1,0,-1
EndSplineSet
Substitution2: "Single Substitution lookup 76" glyph236
EndChar

StartChar: u0941
Encoding: 2369 2369 78
Width: 0
GlyphClass: 4
Flags: W
AnchorPoint: "Anchor-3" -143 61 mark 0
LayerCount: 2
Fore
SplineSet
-200 -273 m 1,0,1
 -272 -273 -272 -273 -350.5 -238.5 c 128,-1,2
 -429 -204 -429 -204 -506 -140 c 1,3,-1
 -459 -80 l 1,4,5
 -386 -141 -386 -141 -319.5 -173.5 c 128,-1,6
 -253 -206 -253 -206 -200 -206 c 0,7,8
 -142 -206 -142 -206 -101 -177 c 128,-1,9
 -60 -148 -60 -148 -60 -107 c 0,10,11
 -60 -73 -60 -73 -81.5 -50 c 128,-1,12
 -103 -27 -103 -27 -133 -27 c 0,13,14
 -165 -27 -165 -27 -193 -39 c 128,-1,15
 -221 -51 -221 -51 -240 -73 c 1,16,-1
 -286 -27 l 1,17,18
 -260 5 -260 5 -220 22.5 c 128,-1,19
 -180 40 -180 40 -133 40 c 0,20,21
 -76 40 -76 40 -34.5 -2.5 c 128,-1,22
 7 -45 7 -45 7 -107 c 0,23,24
 7 -176 7 -176 -54 -224.5 c 128,-1,25
 -115 -273 -115 -273 -200 -273 c 1,26,-1
 -200 -273 l 1,0,1
EndSplineSet
Substitution2: "Single Substitution lookup 75" glyph242
EndChar

StartChar: u0942
Encoding: 2370 2370 79
Width: 0
GlyphClass: 4
Flags: W
AnchorPoint: "Anchor-3" -130 69 mark 0
LayerCount: 2
Fore
SplineSet
-153 -253 m 1,0,1
 -210 -253 -210 -253 -251.5 -211.5 c 128,-1,2
 -293 -170 -293 -170 -293 -113 c 0,3,4
 -293 -47 -293 -47 -244.5 0 c 128,-1,5
 -196 47 -196 47 -127 47 c 0,6,7
 -40 47 -40 47 40.5 -28.5 c 128,-1,8
 121 -104 121 -104 166 -226 c 1,9,-1
 107 -253 l 1,10,11
 68 -148 68 -148 4 -84 c 128,-1,12
 -60 -20 -60 -20 -127 -20 c 0,13,14
 -168 -20 -168 -20 -197 -47.5 c 128,-1,15
 -226 -75 -226 -75 -226 -113 c 0,16,17
 -226 -144 -226 -144 -205 -165 c 128,-1,18
 -184 -186 -184 -186 -153 -186 c 0,19,20
 -137 -186 -137 -186 -118 -177.5 c 128,-1,21
 -99 -169 -99 -169 -80 -153 c 1,22,-1
 -47 -213 l 1,23,24
 -75 -233 -75 -233 -102 -243 c 128,-1,25
 -129 -253 -129 -253 -153 -253 c 1,26,-1
 -153 -253 l 1,0,1
EndSplineSet
Substitution2: "Single Substitution lookup 74" glyph243
EndChar

StartChar: u0943
Encoding: 2371 2371 80
Width: 0
GlyphClass: 4
Flags: W
AnchorPoint: "Anchor-3" -127 50 mark 0
LayerCount: 2
Fore
SplineSet
-168 -273 m 1,0,1
 -237 -273 -237 -273 -285.5 -228.5 c 128,-1,2
 -334 -184 -334 -184 -334 -120 c 0,3,4
 -334 -59 -334 -59 -281.5 -16 c 128,-1,5
 -229 27 -229 27 -154 27 c 2,6,-1
 -95 27 l 1,7,-1
 -95 -33 l 1,8,-1
 -154 -33 l 2,9,10
 -201 -33 -201 -33 -234.5 -58.5 c 128,-1,11
 -268 -84 -268 -84 -268 -120 c 256,12,13
 -268 -156 -268 -156 -238.5 -181 c 128,-1,14
 -209 -206 -209 -206 -168 -206 c 0,15,16
 -129 -206 -129 -206 -96.5 -194 c 128,-1,17
 -64 -182 -64 -182 -41 -160 c 1,18,-1
 -8 -220 l 1,19,20
 -39 -245 -39 -245 -80 -259 c 128,-1,21
 -121 -273 -121 -273 -168 -273 c 1,22,-1
 -168 -273 l 1,0,1
EndSplineSet
EndChar

StartChar: u0944
Encoding: 2372 2372 81
Width: 0
GlyphClass: 4
Flags: W
AnchorPoint: "Anchor-3" -130 69 mark 0
LayerCount: 2
Fore
SplineSet
-162 -266 m 1,0,1
 -232 -266 -232 -266 -280.5 -239 c 128,-1,2
 -329 -212 -329 -212 -329 -173 c 0,3,4
 -329 -152 -329 -152 -309 -132 c 128,-1,5
 -289 -112 -289 -112 -256 -100 c 1,6,7
 -282 -93 -282 -93 -299 -74.5 c 128,-1,8
 -316 -56 -316 -56 -316 -33 c 0,9,10
 -316 0 -316 0 -286.5 23.5 c 128,-1,11
 -257 47 -257 47 -216 47 c 2,12,-1
 -96 47 l 1,13,-1
 -96 0 l 1,14,-1
 -202 0 l 2,15,16
 -225 0 -225 0 -240.5 -10 c 128,-1,17
 -256 -20 -256 -20 -256 -33 c 0,18,19
 -256 -49 -256 -49 -232.5 -61 c 128,-1,20
 -209 -73 -209 -73 -176 -73 c 2,21,-1
 -129 -73 l 1,22,-1
 -129 -127 l 1,23,-1
 -189 -127 l 2,24,25
 -222 -127 -222 -127 -245.5 -140.5 c 128,-1,26
 -269 -154 -269 -154 -269 -173 c 0,27,28
 -269 -189 -269 -189 -241.5 -201 c 128,-1,29
 -214 -213 -214 -213 -176 -213 c 0,30,31
 -129 -213 -129 -213 -95 -206.5 c 128,-1,32
 -61 -200 -61 -200 -43 -186 c 1,33,-1
 -23 -233 l 1,34,35
 -45 -249 -45 -249 -81 -257.5 c 128,-1,36
 -117 -266 -117 -266 -162 -266 c 1,37,-1
 -162 -266 l 1,0,1
EndSplineSet
EndChar

StartChar: u0945
Encoding: 2373 2373 82
Width: 0
GlyphClass: 4
Flags: W
AnchorPoint: "Anchor-0" -127 665.882 mark 0
LayerCount: 2
Fore
SplineSet
-127 759 m 1,0,1
 -200 759 -200 759 -256.5 810 c 128,-1,2
 -313 861 -313 861 -326 939 c 1,3,-1
 -260 939 l 1,4,5
 -250 885 -250 885 -212 849 c 128,-1,6
 -174 813 -174 813 -127 813 c 0,7,8
 -79 813 -79 813 -41 849 c 128,-1,9
 -3 885 -3 885 7 939 c 1,10,-1
 73 939 l 1,11,12
 60 861 60 861 3.5 810 c 128,-1,13
 -53 759 -53 759 -127 759 c 1,14,-1
 -127 759 l 1,0,1
EndSplineSet
EndChar

StartChar: u0946
Encoding: 2374 2374 83
Width: 0
GlyphClass: 4
Flags: W
AnchorPoint: "Anchor-0" -127 665 mark 0
LayerCount: 2
Fore
SplineSet
-296 807 m 1,0,1
 -369 807 -369 807 -425.5 857.5 c 128,-1,2
 -482 908 -482 908 -495 987 c 1,3,-1
 -429 987 l 1,4,5
 -419 932 -419 932 -381.5 896 c 128,-1,6
 -344 860 -344 860 -296 860 c 0,7,8
 -213 860 -213 860 -154.5 803.5 c 128,-1,9
 -96 747 -96 747 -96 667 c 1,10,-1
 -162 667 l 1,11,12
 -162 724 -162 724 -201.5 765.5 c 128,-1,13
 -241 807 -241 807 -296 807 c 1,14,-1
 -296 807 l 1,0,1
EndSplineSet
PairPos2: "'abvm' Above Base Mark in Devanagari lookup 4" u0902 dx=0 dy=0 dh=0 dv=0 dx=8 dy=16 dh=0 dv=0
EndChar

StartChar: u0947
Encoding: 2375 2375 84
Width: 0
GlyphClass: 4
Flags: W
AnchorPoint: "Anchor-2" 0 0 basemark 0
AnchorPoint: "Anchor-0" -122 664 mark 0
LayerCount: 2
Fore
SplineSet
-169 666 m 1,0,-1
 -415 959 l 1,1,-1
 -369 999 l 1,2,-1
 -103 666 l 1,3,-1
 -169 666 l 1,4,-1
 -169 666 l 1,0,-1
EndSplineSet
EndChar

StartChar: u0948
Encoding: 2376 2376 85
Width: 0
GlyphClass: 4
Flags: W
AnchorPoint: "Anchor-2" 55 63 basemark 0
AnchorPoint: "Anchor-0" -135 664 mark 0
LayerCount: 2
Fore
SplineSet
-192 666 m 1,0,-1
 -478 846 l 1,1,-1
 -438 905 l 1,2,-1
 -145 672 l 1,3,-1
 -285 959 l 1,4,-1
 -218 999 l 1,5,-1
 -105 666 l 1,6,-1
 -192 666 l 1,7,-1
 -192 666 l 1,0,-1
EndSplineSet
EndChar

StartChar: u0949
Encoding: 2377 2377 86
Width: 266
GlyphClass: 2
Flags: W
LayerCount: 2
Fore
SplineSet
-13 606 m 1,0,-1
 -13 666 l 1,1,-1
 280 666 l 1,2,-1
 280 606 l 1,3,-1
 166 606 l 1,4,-1
 166 0 l 1,5,-1
 100 0 l 1,6,-1
 100 606 l 1,7,-1
 -13 606 l 1,8,-1
 -13 606 l 1,0,-1
0 752 m 1,9,10
 -73 752 -73 752 -129.5 803 c 128,-1,11
 -186 854 -186 854 -200 932 c 1,12,-1
 -133 932 l 1,13,14
 -124 878 -124 878 -86 842 c 128,-1,15
 -48 806 -48 806 0 806 c 256,16,17
 48 806 48 806 86 842 c 128,-1,18
 124 878 124 878 133 932 c 1,19,-1
 200 932 l 1,20,21
 186 854 186 854 129.5 803 c 128,-1,22
 73 752 73 752 0 752 c 1,23,-1
 0 752 l 1,9,10
EndSplineSet
EndChar

StartChar: u094A
Encoding: 2378 2378 87
Width: 266
GlyphClass: 2
Flags: W
LayerCount: 2
Fore
SplineSet
-13 606 m 1,0,-1
 -13 666 l 1,1,-1
 280 666 l 1,2,-1
 280 606 l 1,3,-1
 166 606 l 1,4,-1
 166 0 l 1,5,-1
 100 0 l 1,6,-1
 100 606 l 1,7,-1
 -13 606 l 1,8,-1
 -13 606 l 1,0,-1
-33 806 m 5,9,10
 -107 806 -107 806 -163.5 856.5 c 132,-1,11
 -220 907 -220 907 -233 986 c 5,12,-1
 -166 986 l 5,13,14
 -157 931 -157 931 -119 895 c 132,-1,15
 -81 859 -81 859 -33 859 c 4,16,17
 49 859 49 859 107.5 802.5 c 132,-1,18
 166 746 166 746 166 666 c 5,19,-1
 100 666 l 5,20,21
 100 723 100 723 60.5 764.5 c 132,-1,22
 21 806 21 806 -33 806 c 5,23,-1
 -33 806 l 5,9,10
EndSplineSet
EndChar

StartChar: u094B
Encoding: 2379 2379 88
Width: 266
GlyphClass: 2
Flags: W
AnchorPoint: "Anchor-1" 231 111 basechar 0
LayerCount: 2
Fore
SplineSet
-13 606 m 1,0,-1
 -13 666 l 1,1,-1
 95 666 l 1,2,-1
 -146 959 l 1,3,-1
 -100 999 l 1,4,-1
 161 666 l 1,5,-1
 280 666 l 1,6,-1
 280 606 l 1,7,-1
 166 606 l 1,8,-1
 166 0 l 1,9,-1
 100 0 l 1,10,-1
 100 606 l 1,11,-1
 -13 606 l 1,12,-1
 -13 606 l 1,0,-1
EndSplineSet
EndChar

StartChar: u094C
Encoding: 2380 2380 89
Width: 266
GlyphClass: 2
Flags: W
AnchorPoint: "Anchor-1" 335 71 basechar 0
LayerCount: 2
Fore
SplineSet
-13 606 m 1,0,-1
 -13 666 l 1,1,-1
 76 666 l 1,2,-1
 -200 846 l 1,3,-1
 -160 905 l 1,4,-1
 133 666 l 1,5,-1
 -7 959 l 1,6,-1
 60 999 l 1,7,-1
 170 666 l 1,8,-1
 280 666 l 1,9,-1
 280 606 l 1,10,-1
 166 606 l 1,11,-1
 166 0 l 1,12,-1
 100 0 l 1,13,-1
 100 606 l 1,14,-1
 -13 606 l 1,15,-1
 -13 606 l 1,0,-1
EndSplineSet
PairPos2: "'abvm' Above Base Mark in Devanagari lookup 4" u0902 dx=0 dy=0 dh=0 dv=0 dx=65 dy=-9 dh=0 dv=0
EndChar

StartChar: u094D
Encoding: 2381 2381 90
Width: 0
GlyphClass: 4
Flags: W
AnchorPoint: "Anchor-3" -119 42 mark 0
LayerCount: 2
Fore
SplineSet
-174 -100 m 1,0,-1
 -208 -53 l 1,1,-1
 -128 7 l 1,2,-1
 112 -180 l 1,3,-1
 72 -220 l 1,4,-1
 -128 -60 l 1,5,-1
 -174 -100 l 1,6,-1
 -174 -100 l 1,0,-1
EndSplineSet
EndChar

StartChar: u0950
Encoding: 2384 2384 91
Width: 977
GlyphClass: 2
Flags: W
LayerCount: 2
Fore
SplineSet
390 459 m 1,0,1
 390 501 390 501 359.5 530 c 128,-1,2
 329 559 329 559 286 559 c 0,3,4
 254 559 254 559 218 532.5 c 128,-1,5
 182 506 182 506 152 459 c 1,6,-1
 101 501 l 1,7,8
 138 559 138 559 187.5 593 c 128,-1,9
 237 627 237 627 288 627 c 0,10,11
 358 627 358 627 408 578 c 128,-1,12
 458 529 458 529 458 459 c 0,13,14
 458 430 458 430 442 400 c 128,-1,15
 426 370 426 370 398 346 c 1,16,17
 426 330 426 330 456.5 321.5 c 128,-1,18
 487 313 487 313 518 313 c 0,19,20
 550 313 550 313 578.5 331 c 128,-1,21
 607 349 607 349 625 380 c 0,22,23
 644 414 644 414 681.5 433.5 c 128,-1,24
 719 453 719 453 764 453 c 0,25,26
 834 453 834 453 882.5 392.5 c 128,-1,27
 931 332 931 332 931 246 c 0,28,29
 931 161 931 161 884.5 100.5 c 128,-1,30
 838 40 838 40 771 40 c 0,31,32
 702 40 702 40 653.5 90.5 c 128,-1,33
 605 141 605 141 605 213 c 1,34,-1
 664 213 l 1,35,36
 664 169 664 169 695.5 138 c 128,-1,37
 727 107 727 107 771 107 c 0,38,39
 810 107 810 107 837 148 c 128,-1,40
 864 189 864 189 864 246 c 0,41,42
 864 304 864 304 835 345 c 128,-1,43
 806 386 806 386 764 386 c 0,44,45
 734 386 734 386 703 365 c 128,-1,46
 672 344 672 344 651 306 c 0,47,48
 635 278 635 278 599 262 c 128,-1,49
 563 246 563 246 518 246 c 0,50,51
 510 246 510 246 493.5 249.5 c 128,-1,52
 477 253 477 253 451 260 c 1,53,54
 461 248 461 248 466 229 c 128,-1,55
 471 210 471 210 471 186 c 0,56,57
 471 115 471 115 424.5 64 c 128,-1,58
 378 13 378 13 312 13 c 0,59,60
 229 13 229 13 149 78.5 c 128,-1,61
 69 144 69 144 19 253 c 1,62,-1
 79 286 l 1,63,64
 123 192 123 192 186 136 c 128,-1,65
 249 80 249 80 312 80 c 0,66,67
 350 80 350 80 377.5 111 c 128,-1,68
 405 142 405 142 405 186 c 0,69,70
 405 233 405 233 383.5 266.5 c 128,-1,71
 362 300 362 300 332 300 c 0,72,73
 314 300 314 300 301 298 c 128,-1,74
 288 296 288 296 278 293 c 1,75,-1
 238 340 l 1,76,77
 301 345 301 345 345.5 380 c 128,-1,78
 390 415 390 415 390 459 c 1,79,-1
 390 459 l 1,0,1
698 606 m 1,80,81
 610 606 610 606 544 656.5 c 128,-1,82
 478 707 478 707 465 786 c 1,83,-1
 531 786 l 1,84,85
 553 726 553 726 598.5 689 c 128,-1,86
 644 652 644 652 698 652 c 0,87,88
 751 652 751 652 797 689 c 128,-1,89
 843 726 843 726 864 786 c 1,90,-1
 931 786 l 1,91,92
 917 707 917 707 851.5 656.5 c 128,-1,93
 786 606 786 606 698 606 c 1,94,-1
 698 606 l 1,80,81
664 739 m 1,95,-1
 664 812 l 1,96,-1
 738 812 l 1,97,-1
 738 739 l 1,98,-1
 664 739 l 1,99,-1
 664 739 l 1,95,-1
EndSplineSet
EndChar

StartChar: u0951
Encoding: 2385 2385 92
Width: 0
GlyphClass: 4
Flags: W
AnchorPoint: "Anchor-0" -127 666 mark 0
LayerCount: 2
Fore
SplineSet
-172 710 m 5,0,-1
 -172 1023 l 5,1,-1
 -85 1023 l 5,2,-1
 -85 710 l 5,3,-1
 -172 710 l 5,4,-1
 -172 710 l 5,0,-1
EndSplineSet
EndChar

StartChar: u0952
Encoding: 2386 2386 93
Width: 0
GlyphClass: 4
Flags: W
LayerCount: 2
Fore
SplineSet
-637 -159 m 1,0,-1
 -637 -99 l 1,1,-1
 -111 -99 l 1,2,-1
 -111 -159 l 1,3,-1
 -637 -159 l 1,4,-1
 -637 -159 l 1,0,-1
EndSplineSet
EndChar

StartChar: u0953
Encoding: 2387 2387 94
Width: 0
GlyphClass: 4
Flags: W
AnchorPoint: "Anchor-0" -69 664 mark 0
LayerCount: 2
Fore
SplineSet
-44 710 m 5,0,-1
 -98 921 l 5,1,-1
 -185 921 l 5,2,-1
 -93 710 l 5,3,-1
 -44 710 l 5,4,-1
 -44 710 l 5,0,-1
EndSplineSet
EndChar

StartChar: u0954
Encoding: 2388 2388 95
Width: 0
GlyphClass: 4
Flags: W
AnchorPoint: "Anchor-0" -143 665 mark 0
LayerCount: 2
Fore
SplineSet
-178 714 m 5,0,-1
 -124 925 l 5,1,-1
 -37 925 l 5,2,-1
 -129 714 l 5,3,-1
 -178 714 l 5,4,-1
 -178 714 l 5,0,-1
EndSplineSet
EndChar

StartChar: u0958
Encoding: 2392 2392 96
Width: 753
GlyphClass: 2
Flags: W
AnchorPoint: "Anchor-3" 386 23 basechar 0
AnchorPoint: "Anchor-0" 385 664.5 basechar 0
LayerCount: 2
Fore
SplineSet
-13 606 m 1,0,-1
 -13 666 l 1,1,-1
 767 666 l 1,2,-1
 767 606 l 1,3,-1
 417 606 l 1,4,-1
 417 426 l 1,5,6
 437 461 437 461 474 480 c 128,-1,7
 511 499 511 499 557 499 c 0,8,9
 621 499 621 499 665.5 448.5 c 128,-1,10
 710 398 710 398 710 326 c 0,11,12
 710 265 710 265 675 202.5 c 128,-1,13
 640 140 640 140 577 87 c 1,14,-1
 530 133 l 1,15,16
 583 178 583 178 613 229 c 128,-1,17
 643 280 643 280 643 326 c 0,18,19
 643 370 643 370 618 401.5 c 128,-1,20
 593 433 593 433 557 433 c 0,21,22
 509 433 509 433 470 399.5 c 128,-1,23
 431 366 431 366 417 313 c 1,24,-1
 417 0 l 1,25,-1
 350 0 l 1,26,-1
 350 206 l 1,27,28
 324 174 324 174 292.5 157 c 128,-1,29
 261 140 261 140 230 140 c 0,30,31
 150 140 150 140 93.5 190.5 c 128,-1,32
 37 241 37 241 37 313 c 0,33,34
 37 390 37 390 95.5 444.5 c 128,-1,35
 154 499 154 499 237 499 c 0,36,37
 261 499 261 499 278.5 496 c 128,-1,38
 296 493 296 493 304 486 c 1,39,-1
 284 426 l 1,40,41
 278 429 278 429 266 431 c 128,-1,42
 254 433 254 433 237 433 c 0,43,44
 182 433 182 433 143 397.5 c 128,-1,45
 104 362 104 362 104 313 c 0,46,47
 104 266 104 266 141 233 c 128,-1,48
 178 200 178 200 230 200 c 0,49,50
 260 200 260 200 292 226.5 c 128,-1,51
 324 253 324 253 350 300 c 1,52,-1
 350 606 l 1,53,-1
 -13 606 l 1,54,-1
 -13 606 l 1,0,-1
204 -13 m 1,55,-1
 150 40 l 1,56,-1
 204 93 l 1,57,-1
 257 40 l 1,58,-1
 204 -13 l 1,59,-1
 204 -13 l 1,55,-1
EndSplineSet
LCarets2: 1 0 
Ligature2: "'nukt' Nukta Forms in Devanagari lookup 48" u0915 u093C
EndChar

StartChar: u0959
Encoding: 2393 2393 97
Width: 836
GlyphClass: 2
Flags: W
AnchorPoint: "Anchor-0" 707 664 basechar 0
LayerCount: 2
Fore
SplineSet
-13 606 m 1,0,-1
 -13 666 l 1,1,-1
 850 666 l 1,2,-1
 850 606 l 1,3,-1
 736 606 l 1,4,-1
 736 0 l 1,5,-1
 670 0 l 1,6,-1
 670 133 l 1,7,8
 606 69 606 69 540 34.5 c 128,-1,9
 474 0 474 0 417 0 c 0,10,11
 340 0 340 0 261 58.5 c 128,-1,12
 182 117 182 117 124 220 c 0,13,14
 96 268 96 268 74.5 321 c 128,-1,15
 53 374 53 374 37 433 c 1,16,-1
 91 466 l 1,17,18
 105 423 105 423 127 398 c 128,-1,19
 149 373 149 373 170 373 c 0,20,21
 198 373 198 373 217.5 394 c 128,-1,22
 237 415 237 415 237 446 c 2,23,-1
 237 606 l 1,24,-1
 -13 606 l 1,25,-1
 -13 606 l 1,0,-1
417 67 m 1,26,27
 478 67 478 67 544.5 105.5 c 128,-1,28
 611 144 611 144 670 213 c 1,29,-1
 670 280 l 1,30,31
 643 257 643 257 612 245 c 128,-1,32
 581 233 581 233 550 233 c 0,33,34
 489 233 489 233 446 275.5 c 128,-1,35
 403 318 403 318 403 380 c 0,36,37
 403 441 403 441 452 483.5 c 128,-1,38
 501 526 501 526 570 526 c 0,39,40
 585 526 585 526 601.5 522.5 c 128,-1,41
 618 519 618 519 637 513 c 1,42,-1
 637 446 l 1,43,44
 619 453 619 453 602.5 456 c 128,-1,45
 586 459 586 459 570 459 c 0,46,47
 529 459 529 459 499.5 436 c 128,-1,48
 470 413 470 413 470 380 c 0,49,50
 470 346 470 346 493.5 322 c 128,-1,51
 517 298 517 298 550 298 c 0,52,53
 577 298 577 298 607.5 312 c 128,-1,54
 638 326 638 326 670 353 c 1,55,-1
 670 606 l 1,56,-1
 304 606 l 1,57,-1
 304 459 l 2,58,59
 304 398 304 398 272.5 355.5 c 128,-1,60
 241 313 241 313 197 313 c 0,61,62
 185 313 185 313 171.5 316.5 c 128,-1,63
 158 320 158 320 144 326 c 1,64,65
 186 209 186 209 261.5 138 c 128,-1,66
 337 67 337 67 417 67 c 1,67,-1
 417 67 l 1,26,27
104 -13 m 1,68,-1
 44 40 l 1,69,-1
 104 93 l 1,70,-1
 164 40 l 1,71,-1
 104 -13 l 1,72,-1
 104 -13 l 1,68,-1
EndSplineSet
LCarets2: 1 0 
Ligature2: "'nukt' Nukta Forms in Devanagari lookup 48" u0916 u093C
EndChar

StartChar: u095A
Encoding: 2394 2394 98
Width: 517
GlyphClass: 2
Flags: W
AnchorPoint: "Anchor-0" 392 666.223 basechar 0
LayerCount: 2
Fore
SplineSet
-13 606 m 1,0,-1
 -13 666 l 1,1,-1
 531 666 l 1,2,-1
 531 606 l 1,3,-1
 418 606 l 1,4,-1
 418 0 l 1,5,-1
 352 0 l 1,6,-1
 352 606 l 1,7,-1
 185 606 l 1,8,-1
 185 313 l 2,9,10
 185 294 185 294 177 280 c 128,-1,11
 169 266 169 266 158 266 c 0,12,13
 133 266 133 266 76 317.5 c 128,-1,14
 19 369 19 369 19 393 c 0,15,16
 19 403 19 403 27 411 c 128,-1,17
 35 419 35 419 45 419 c 2,18,-1
 92 419 l 2,19,20
 103 419 103 419 111 429 c 128,-1,21
 119 439 119 439 119 453 c 2,22,-1
 119 606 l 1,23,-1
 -13 606 l 1,24,-1
 -13 606 l 1,0,-1
132 -13 m 1,25,-1
 79 40 l 1,26,-1
 132 93 l 1,27,-1
 185 40 l 1,28,-1
 132 -13 l 1,29,-1
 132 -13 l 1,25,-1
EndSplineSet
LCarets2: 1 0 
Ligature2: "'nukt' Nukta Forms in Devanagari lookup 48" u0917 u093C
EndChar

StartChar: u095B
Encoding: 2395 2395 99
Width: 733
GlyphClass: 2
Flags: W
AnchorPoint: "Anchor-0" 603 664 basechar 0
LayerCount: 2
Fore
SplineSet
-13 606 m 1,0,-1
 -13 666 l 1,1,-1
 747 666 l 1,2,-1
 747 606 l 1,3,-1
 634 606 l 1,4,-1
 634 0 l 1,5,-1
 567 0 l 1,6,-1
 567 399 l 1,7,-1
 394 399 l 1,8,9
 423 358 423 358 438.5 325.5 c 128,-1,10
 454 293 454 293 454 273 c 0,11,12
 454 212 454 212 411.5 169.5 c 128,-1,13
 369 127 369 127 308 127 c 0,14,15
 228 127 228 127 150 210.5 c 128,-1,16
 72 294 72 294 21 433 c 1,17,-1
 75 466 l 1,18,19
 121 340 121 340 184.5 263 c 128,-1,20
 248 186 248 186 308 186 c 0,21,22
 341 186 341 186 364 211.5 c 128,-1,23
 387 237 387 237 387 273 c 0,24,25
 387 300 387 300 358.5 346.5 c 128,-1,26
 330 393 330 393 274 459 c 1,27,-1
 567 459 l 1,28,-1
 567 606 l 1,29,-1
 -13 606 l 1,30,-1
 -13 606 l 1,0,-1
181 -13 m 1,31,-1
 121 40 l 1,32,-1
 181 93 l 1,33,-1
 241 40 l 1,34,-1
 181 -13 l 1,35,-1
 181 -13 l 1,31,-1
EndSplineSet
LCarets2: 1 0 
Ligature2: "'nukt' Nukta Forms in Devanagari lookup 48" u091C u093C
EndChar

StartChar: u095C
Encoding: 2396 2396 100
Width: 632
GlyphClass: 2
Flags: W
AnchorPoint: "Anchor-3" 407 50 basechar 0
AnchorPoint: "Anchor-0" 502 664 basechar 0
LayerCount: 2
Fore
SplineSet
-13 606 m 1,0,-1
 -13 666 l 1,1,-1
 646 666 l 1,2,-1
 646 606 l 1,3,-1
 531 606 l 1,4,-1
 531 433 l 1,5,-1
 278 433 l 2,6,7
 270 433 270 433 264 427 c 128,-1,8
 258 421 258 421 258 413 c 0,9,10
 258 385 258 385 298 342.5 c 128,-1,11
 338 300 338 300 365 300 c 0,12,13
 386 300 386 300 428 313 c 128,-1,14
 470 326 470 326 491 326 c 0,15,16
 530 326 530 326 557.5 295 c 128,-1,17
 585 264 585 264 585 220 c 0,18,19
 585 134 585 134 526 73.5 c 128,-1,20
 467 13 467 13 385 13 c 0,21,22
 281 13 281 13 182 94.5 c 128,-1,23
 83 176 83 176 19 313 c 1,24,-1
 72 346 l 1,25,26
 129 224 129 224 213.5 152 c 128,-1,27
 298 80 298 80 385 80 c 0,28,29
 439 80 439 80 478.5 121 c 128,-1,30
 518 162 518 162 518 220 c 0,31,32
 518 236 518 236 510 248 c 128,-1,33
 502 260 502 260 491 260 c 0,34,35
 470 260 470 260 428 246.5 c 128,-1,36
 386 233 386 233 365 233 c 0,37,38
 314 233 314 233 253 297 c 128,-1,39
 192 361 192 361 192 413 c 0,40,41
 192 449 192 449 217 474 c 128,-1,42
 242 499 242 499 278 499 c 2,43,-1
 465 499 l 1,44,-1
 465 606 l 1,45,-1
 -13 606 l 1,46,-1
 -13 606 l 1,0,-1
385 -133 m 1,47,-1
 325 -87 l 1,48,-1
 385 -40 l 1,49,-1
 445 -87 l 1,50,-1
 385 -133 l 1,51,-1
 385 -133 l 1,47,-1
EndSplineSet
LCarets2: 1 0 
Ligature2: "'nukt' Nukta Forms in Devanagari lookup 48" u0921 u093C
EndChar

StartChar: u095D
Encoding: 2397 2397 101
Width: 572
GlyphClass: 2
Flags: W
AnchorPoint: "Anchor-3" 332 58 basechar 0
AnchorPoint: "Anchor-0" 427 664 basechar 0
LayerCount: 2
Fore
SplineSet
-13 606 m 1,0,-1
 -13 666 l 1,1,-1
 586 666 l 1,2,-1
 586 606 l 1,3,-1
 454 606 l 1,4,-1
 454 413 l 1,5,-1
 221 413 l 2,6,7
 174 413 174 413 141 379.5 c 128,-1,8
 108 346 108 346 108 300 c 0,9,10
 108 217 108 217 171 156 c 128,-1,11
 234 95 234 95 328 87 c 1,12,13
 302 108 302 108 288 138 c 128,-1,14
 274 168 274 168 274 200 c 0,15,16
 274 252 274 252 311.5 289 c 128,-1,17
 349 326 349 326 401 326 c 0,18,19
 455 326 455 326 494.5 287 c 128,-1,20
 534 248 534 248 534 193 c 0,21,22
 534 124 534 124 471.5 75.5 c 128,-1,23
 409 27 409 27 321 27 c 0,24,25
 217 27 217 27 129 112.5 c 128,-1,26
 41 198 41 198 41 300 c 0,27,28
 41 372 41 372 93.5 422.5 c 128,-1,29
 146 473 146 473 221 473 c 2,30,-1
 387 473 l 1,31,-1
 387 606 l 1,32,-1
 -13 606 l 1,33,-1
 -13 606 l 1,0,-1
394 100 m 1,34,35
 427 116 427 116 447 141 c 128,-1,36
 467 166 467 166 467 193 c 0,37,38
 467 224 467 224 448 245 c 128,-1,39
 429 266 429 266 401 266 c 256,40,41
 373 266 373 266 353.5 245 c 128,-1,42
 334 224 334 224 334 193 c 0,43,44
 334 173 334 173 350 148.5 c 128,-1,45
 366 124 366 124 394 100 c 1,46,-1
 394 100 l 1,34,35
321 -133 m 1,47,-1
 261 -87 l 1,48,-1
 321 -40 l 1,49,-1
 381 -87 l 1,50,-1
 321 -133 l 1,51,-1
 321 -133 l 1,47,-1
EndSplineSet
LCarets2: 1 0 
Ligature2: "'nukt' Nukta Forms in Devanagari lookup 48" u0922 u093C
EndChar

StartChar: u095E
Encoding: 2398 2398 102
Width: 765
GlyphClass: 2
Flags: W
AnchorPoint: "Anchor-3" 380 21 basechar 0
AnchorPoint: "Anchor-0" 379 664 basechar 0
LayerCount: 2
Fore
SplineSet
-13 606 m 1,0,-1
 -13 666 l 1,1,-1
 779 666 l 1,2,-1
 779 606 l 1,3,-1
 411 606 l 1,4,-1
 411 429 l 1,5,6
 439 457 439 457 474 471.5 c 128,-1,7
 509 486 509 486 545 486 c 0,8,9
 617 486 617 486 667.5 431.5 c 128,-1,10
 718 377 718 377 718 300 c 0,11,12
 718 240 718 240 695 182 c 128,-1,13
 672 124 672 124 631 73 c 1,14,-1
 571 107 l 1,15,16
 610 145 610 145 630.5 195 c 128,-1,17
 651 245 651 245 651 300 c 0,18,19
 651 349 651 349 620 384 c 128,-1,20
 589 419 589 419 545 419 c 0,21,22
 510 419 510 419 475.5 400 c 128,-1,23
 441 381 441 381 411 346 c 1,24,-1
 411 0 l 1,25,-1
 345 0 l 1,26,-1
 345 273 l 1,27,28
 316 244 316 244 281 228.5 c 128,-1,29
 246 213 246 213 212 213 c 0,30,31
 148 213 148 213 103.5 259.5 c 128,-1,32
 59 306 59 306 59 373 c 2,33,-1
 59 606 l 1,34,-1
 -13 606 l 1,35,-1
 -13 606 l 1,0,-1
212 273 m 1,36,37
 248 273 248 273 283 294.5 c 128,-1,38
 318 316 318 316 345 353 c 1,39,-1
 345 606 l 1,40,-1
 125 606 l 1,41,-1
 125 373 l 2,42,43
 125 332 125 332 150.5 302.5 c 128,-1,44
 176 273 176 273 212 273 c 1,45,-1
 212 273 l 1,36,37
172 -7 m 1,46,-1
 119 43 l 1,47,-1
 172 93 l 1,48,-1
 225 43 l 1,49,-1
 172 -7 l 1,50,-1
 172 -7 l 1,46,-1
EndSplineSet
LCarets2: 1 0 
Ligature2: "'nukt' Nukta Forms in Devanagari lookup 48" u092B u093C
EndChar

StartChar: u095F
Encoding: 2399 2399 103
Width: 596
GlyphClass: 2
Flags: W
AnchorPoint: "Anchor-0" 465 665.192 basechar 0
LayerCount: 2
Fore
SplineSet
257 127 m 1,0,1
 161 127 161 127 92.5 196.5 c 128,-1,2
 24 266 24 266 24 366 c 1,3,4
 100 366 100 366 145 395.5 c 128,-1,5
 190 425 190 425 190 473 c 0,6,7
 190 505 190 505 173 539.5 c 128,-1,8
 156 574 156 574 124 606 c 1,9,-1
 -13 606 l 1,10,-1
 -13 666 l 1,11,-1
 610 666 l 1,12,-1
 610 606 l 1,13,-1
 497 606 l 1,14,-1
 497 0 l 1,15,-1
 430 0 l 1,16,-1
 430 206 l 1,17,18
 398 168 398 168 353 147.5 c 128,-1,19
 308 127 308 127 257 127 c 1,20,-1
 257 127 l 1,0,1
257 193 m 1,21,22
 309 193 309 193 355.5 221.5 c 128,-1,23
 402 250 402 250 430 300 c 1,24,-1
 430 606 l 1,25,-1
 204 606 l 1,26,27
 229 575 229 575 243 540.5 c 128,-1,28
 257 506 257 506 257 473 c 0,29,30
 257 415 257 415 211.5 370 c 128,-1,31
 166 325 166 325 97 313 c 1,32,33
 107 261 107 261 152 227 c 128,-1,34
 197 193 197 193 257 193 c 1,35,-1
 257 193 l 1,21,22
164 -7 m 1,36,-1
 111 40 l 1,37,-1
 164 93 l 1,38,-1
 217 40 l 1,39,-1
 164 -7 l 1,40,-1
 164 -7 l 1,36,-1
EndSplineSet
LCarets2: 1 0 
Ligature2: "'nukt' Nukta Forms in Devanagari lookup 48" u092F u093C
EndChar

StartChar: u0960
Encoding: 2400 2400 104
Width: 882
GlyphClass: 2
Flags: W
AnchorPoint: "Anchor-3" 468 15 basechar 0
AnchorPoint: "Anchor-0" 467 666 basechar 0
LayerCount: 2
Fore
SplineSet
-13 606 m 1,0,-1
 -13 666 l 1,1,-1
 896 666 l 1,2,-1
 896 606 l 1,3,-1
 498 606 l 1,4,-1
 498 366 l 1,5,-1
 611 419 l 1,6,7
 603 450 603 450 620 474.5 c 128,-1,8
 637 499 637 499 664 499 c 0,9,10
 690 499 690 499 707 484 c 128,-1,11
 724 469 724 469 724 446 c 0,12,13
 724 425 724 425 717 409 c 128,-1,14
 710 393 710 393 698 386 c 1,15,-1
 744 300 l 1,16,17
 698 292 698 292 668 263 c 128,-1,18
 638 234 638 234 638 200 c 0,19,20
 638 158 638 158 669 129 c 128,-1,21
 700 100 700 100 744 100 c 0,22,23
 762 100 762 100 786 108.5 c 128,-1,24
 810 117 810 117 838 133 c 1,25,-1
 871 73 l 1,26,27
 836 57 836 57 803.5 48.5 c 128,-1,28
 771 40 771 40 744 40 c 0,29,30
 672 40 672 40 621.5 86.5 c 128,-1,31
 571 133 571 133 571 200 c 0,32,33
 571 240 571 240 594.5 274 c 128,-1,34
 618 308 618 308 658 326 c 1,35,-1
 631 366 l 1,36,-1
 498 306 l 1,37,-1
 498 0 l 1,38,-1
 431 0 l 1,39,-1
 431 253 l 1,40,-1
 158 127 l 1,41,-1
 119 180 l 1,42,-1
 378 300 l 1,43,-1
 298 373 l 2,44,45
 274 401 274 401 249.5 417 c 128,-1,46
 225 433 225 433 205 433 c 0,47,48
 177 433 177 433 138 415.5 c 128,-1,49
 99 398 99 398 52 366 c 1,50,-1
 12 413 l 1,51,52
 68 451 68 451 117 472 c 128,-1,53
 166 493 166 493 205 493 c 0,54,55
 229 493 229 493 259.5 477.5 c 128,-1,56
 290 462 290 462 325 433 c 2,57,-1
 431 326 l 1,58,-1
 431 606 l 1,59,-1
 -13 606 l 1,60,-1
 -13 606 l 1,0,-1
EndSplineSet
EndChar

StartChar: u0961
Encoding: 2401 2401 105
Width: 708
GlyphClass: 2
Flags: W
LayerCount: 2
Fore
SplineSet
250 0 m 1,0,1
 157 40 157 40 100.5 112.5 c 128,-1,2
 44 185 44 185 44 266 c 0,3,4
 44 346 44 346 92.5 402.5 c 128,-1,5
 141 459 141 459 210 459 c 0,6,7
 250 459 250 459 287 438 c 128,-1,8
 324 417 324 417 350 380 c 1,9,10
 370 411 370 411 398 432 c 128,-1,11
 426 453 426 453 457 459 c 1,12,-1
 457 606 l 1,13,-1
 -13 606 l 1,14,-1
 -13 666 l 1,15,-1
 722 666 l 1,16,-1
 722 606 l 1,17,-1
 523 606 l 1,18,-1
 523 459 l 1,19,20
 586 441 586 441 624.5 381.5 c 128,-1,21
 663 322 663 322 663 246 c 0,22,23
 663 168 663 168 612.5 107.5 c 128,-1,24
 562 47 562 47 483 33 c 0,25,26
 463 29 463 29 450 18 c 128,-1,27
 437 7 437 7 437 -7 c 0,28,29
 437 -29 437 -29 458 -44.5 c 128,-1,30
 479 -60 479 -60 510 -60 c 2,31,-1
 557 -60 l 1,32,-1
 557 -113 l 1,33,-1
 510 -113 l 2,34,35
 479 -113 479 -113 458 -127.5 c 128,-1,36
 437 -142 437 -142 437 -164 c 128,-1,37
 437 -186 437 -186 458 -203 c 128,-1,38
 479 -220 479 -220 510 -220 c 0,39,40
 543 -220 543 -220 576 -210 c 128,-1,41
 609 -200 609 -200 637 -180 c 1,42,-1
 663 -233 l 1,43,44
 631 -256 631 -256 592 -268 c 128,-1,45
 553 -280 553 -280 510 -280 c 0,46,47
 453 -280 453 -280 411.5 -246.5 c 128,-1,48
 370 -213 370 -213 370 -166 c 0,49,50
 370 -140 370 -140 386.5 -118 c 128,-1,51
 403 -96 403 -96 430 -87 c 1,52,53
 403 -80 403 -80 386.5 -57.5 c 128,-1,54
 370 -35 370 -35 370 -7 c 0,55,56
 370 35 370 35 401.5 65 c 128,-1,57
 433 95 433 95 478 99 c 0,58,59
 529 103 529 103 563 145.5 c 128,-1,60
 597 188 597 188 597 246 c 0,61,62
 597 308 597 308 563.5 350.5 c 128,-1,63
 530 393 530 393 483 393 c 0,64,65
 443 393 443 393 406 342.5 c 128,-1,66
 369 292 369 292 350 213 c 1,67,-1
 284 233 l 1,68,69
 289 257 289 257 297.5 280.5 c 128,-1,70
 306 304 306 304 317 326 c 1,71,72
 298 357 298 357 269.5 375 c 128,-1,73
 241 393 241 393 210 393 c 0,74,75
 169 393 169 393 140 355.5 c 128,-1,76
 111 318 111 318 111 266 c 0,77,78
 111 201 111 201 156 143 c 128,-1,79
 201 85 201 85 277 53 c 1,80,-1
 250 0 l 1,81,-1
 250 0 l 1,0,1
EndSplineSet
EndChar

StartChar: u0962
Encoding: 2402 2402 106
Width: 0
GlyphClass: 4
Flags: W
AnchorPoint: "Anchor-3" -141 37 mark 0
LayerCount: 2
Fore
SplineSet
-217 -306 m 1,0,1
 -288 -277 -288 -277 -330 -223.5 c 128,-1,2
 -372 -170 -372 -170 -372 -112 c 0,3,4
 -372 -53 -372 -53 -335 -12 c 128,-1,5
 -298 29 -298 29 -246 29 c 0,6,7
 -216 29 -216 29 -189 16 c 128,-1,8
 -162 3 -162 3 -145 -21 c 1,9,10
 -129 3 -129 3 -102 16 c 128,-1,11
 -75 29 -75 29 -43 29 c 0,12,13
 9 29 9 29 46.5 -18 c 128,-1,14
 84 -65 84 -65 84 -132 c 0,15,16
 84 -184 84 -184 53.5 -224.5 c 128,-1,17
 23 -265 23 -265 -27 -277 c 0,18,19
 -57 -285 -57 -285 -76.5 -307 c 128,-1,20
 -96 -329 -96 -329 -96 -356 c 0,21,22
 -96 -382 -96 -382 -76 -400.5 c 128,-1,23
 -56 -419 -56 -419 -27 -419 c 0,24,25
 0 -419 0 -419 23.5 -412.5 c 128,-1,26
 47 -406 47 -406 64 -394 c 1,27,-1
 80 -438 l 1,28,29
 56 -455 56 -455 28.5 -464 c 128,-1,30
 1 -473 1 -473 -27 -473 c 0,31,32
 -77 -473 -77 -473 -113 -438 c 128,-1,33
 -149 -403 -149 -403 -149 -356 c 128,-1,34
 -149 -309 -149 -309 -120 -273.5 c 128,-1,35
 -91 -238 -91 -238 -45 -230 c 0,36,37
 -12 -225 -12 -225 9.5 -197 c 128,-1,38
 31 -169 31 -169 31 -132 c 0,39,40
 31 -87 31 -87 9.5 -55.5 c 128,-1,41
 -12 -24 -12 -24 -43 -24 c 0,42,43
 -76 -24 -76 -24 -106 -61.5 c 128,-1,44
 -136 -99 -136 -99 -149 -156 c 1,45,-1
 -192 -136 l 1,46,47
 -188 -119 -188 -119 -182 -101.5 c 128,-1,48
 -176 -84 -176 -84 -168 -68 c 1,49,50
 -180 -48 -180 -48 -201 -36 c 128,-1,51
 -222 -24 -222 -24 -246 -24 c 0,52,53
 -276 -24 -276 -24 -297 -50 c 128,-1,54
 -318 -76 -318 -76 -318 -112 c 0,55,56
 -318 -157 -318 -157 -285.5 -197.5 c 128,-1,57
 -253 -238 -253 -238 -198 -261 c 1,58,-1
 -217 -306 l 1,59,-1
 -217 -306 l 1,0,1
EndSplineSet
EndChar

StartChar: u0963
Encoding: 2403 2403 107
Width: 0
GlyphClass: 4
Flags: W
AnchorPoint: "Anchor-3" -138 34 mark 0
LayerCount: 2
Fore
SplineSet
-217 -306 m 1,0,1
 -288 -277 -288 -277 -330 -223.5 c 128,-1,2
 -372 -170 -372 -170 -372 -112 c 0,3,4
 -372 -52 -372 -52 -335 -9.5 c 128,-1,5
 -298 33 -298 33 -246 33 c 0,6,7
 -214 33 -214 33 -186 18.5 c 128,-1,8
 -158 4 -158 4 -141 -21 c 1,9,10
 -125 4 -125 4 -100 18.5 c 128,-1,11
 -75 33 -75 33 -47 33 c 0,12,13
 9 33 9 33 49 -11.5 c 128,-1,14
 89 -56 89 -56 89 -120 c 0,15,16
 89 -180 89 -180 52.5 -226 c 128,-1,17
 16 -272 16 -272 -41 -281 c 0,18,19
 -56 -284 -56 -284 -66 -293 c 128,-1,20
 -76 -302 -76 -302 -76 -313 c 0,21,22
 -76 -329 -76 -329 -61.5 -339.5 c 128,-1,23
 -47 -350 -47 -350 -27 -350 c 2,24,-1
 5 -350 l 1,25,-1
 5 -389 l 1,26,-1
 -27 -389 l 2,27,28
 -47 -389 -47 -389 -61.5 -401 c 128,-1,29
 -76 -413 -76 -413 -76 -429 c 0,30,31
 -76 -442 -76 -442 -61.5 -452 c 128,-1,32
 -47 -462 -47 -462 -27 -462 c 0,33,34
 3 -462 3 -462 27.5 -455.5 c 128,-1,35
 52 -449 52 -449 71 -435 c 1,36,-1
 89 -483 l 1,37,38
 67 -499 67 -499 37.5 -507 c 128,-1,39
 8 -515 8 -515 -27 -515 c 0,40,41
 -69 -515 -69 -515 -99 -490 c 128,-1,42
 -129 -465 -129 -465 -129 -429 c 0,43,44
 -129 -409 -129 -409 -118.5 -393 c 128,-1,45
 -108 -377 -108 -377 -89 -370 c 1,46,47
 -107 -365 -107 -365 -118 -349 c 128,-1,48
 -129 -333 -129 -333 -129 -313 c 0,49,50
 -129 -282 -129 -282 -106.5 -259 c 128,-1,51
 -84 -236 -84 -236 -51 -233 c 0,52,53
 -13 -230 -13 -230 11.5 -197.5 c 128,-1,54
 36 -165 36 -165 36 -120 c 0,55,56
 36 -79 36 -79 12 -49.5 c 128,-1,57
 -12 -20 -12 -20 -47 -20 c 0,58,59
 -76 -20 -76 -20 -103 -56.5 c 128,-1,60
 -130 -93 -130 -93 -144 -150 c 1,61,-1
 -192 -136 l 1,62,63
 -188 -119 -188 -119 -182 -101.5 c 128,-1,64
 -176 -84 -176 -84 -168 -68 c 1,65,66
 -181 -45 -181 -45 -202.5 -32.5 c 128,-1,67
 -224 -20 -224 -20 -246 -20 c 0,68,69
 -276 -20 -276 -20 -297 -46.5 c 128,-1,70
 -318 -73 -318 -73 -318 -112 c 0,71,72
 -318 -157 -318 -157 -285 -197.5 c 128,-1,73
 -252 -238 -252 -238 -197 -262 c 1,74,-1
 -217 -306 l 1,75,-1
 -217 -306 l 1,0,1
EndSplineSet
EndChar

StartChar: u0964
Encoding: 2404 2404 108
Width: 366
GlyphClass: 2
Flags: W
LayerCount: 2
Fore
SplineSet
200 0 m 1,0,-1
 200 666 l 1,1,-1
 266 666 l 1,2,-1
 266 0 l 1,3,-1
 200 0 l 1,4,-1
 200 0 l 1,0,-1
EndSplineSet
EndChar

StartChar: u0965
Encoding: 2405 2405 109
Width: 579
GlyphClass: 2
Flags: W
LayerCount: 2
Fore
SplineSet
200 0 m 1,0,-1
 200 666 l 1,1,-1
 266 666 l 1,2,-1
 266 0 l 1,3,-1
 200 0 l 1,4,-1
 200 0 l 1,0,-1
413 0 m 1,5,-1
 413 666 l 1,6,-1
 479 666 l 1,7,-1
 479 0 l 1,8,-1
 413 0 l 1,9,-1
 413 0 l 1,5,-1
EndSplineSet
EndChar

StartChar: u0966
Encoding: 2406 2406 110
Width: 665
GlyphClass: 2
Flags: W
LayerCount: 2
Fore
SplineSet
333 100 m 1,0,1
 237 100 237 100 168.5 168.5 c 128,-1,2
 100 237 100 237 100 333 c 256,3,4
 100 429 100 429 168.5 497.5 c 128,-1,5
 237 566 237 566 333 566 c 256,6,7
 429 566 429 566 497.5 497.5 c 128,-1,8
 566 429 566 429 566 333 c 256,9,10
 566 237 566 237 497.5 168.5 c 128,-1,11
 429 100 429 100 333 100 c 1,12,-1
 333 100 l 1,0,1
333 166 m 1,13,14
 402 166 402 166 450.5 215 c 128,-1,15
 499 264 499 264 499 333 c 256,16,17
 499 402 499 402 450.5 450.5 c 128,-1,18
 402 499 402 499 333 499 c 256,19,20
 264 499 264 499 215 450.5 c 128,-1,21
 166 402 166 402 166 333 c 256,22,23
 166 264 166 264 215 215 c 128,-1,24
 264 166 264 166 333 166 c 1,25,-1
 333 166 l 1,13,14
EndSplineSet
EndChar

StartChar: u0967
Encoding: 2407 2407 111
Width: 665
GlyphClass: 2
Flags: W
LayerCount: 2
Fore
SplineSet
446 -33 m 1,0,-1
 446 386 l 1,1,2
 423 364 423 364 392 352 c 128,-1,3
 361 340 361 340 326 340 c 0,4,5
 254 340 254 340 203.5 392.5 c 128,-1,6
 153 445 153 445 153 519 c 0,7,8
 153 594 153 594 203.5 646.5 c 128,-1,9
 254 699 254 699 326 699 c 0,10,11
 411 699 411 699 462 644.5 c 128,-1,12
 513 590 513 590 513 499 c 2,13,-1
 513 -33 l 1,14,-1
 446 -33 l 1,15,-1
 446 -33 l 1,0,-1
326 399 m 1,16,17
 373 399 373 399 406 434.5 c 128,-1,18
 439 470 439 470 439 519 c 0,19,20
 439 571 439 571 406 608.5 c 128,-1,21
 373 646 373 646 326 646 c 0,22,23
 282 646 282 646 251 608.5 c 128,-1,24
 220 571 220 571 220 519 c 0,25,26
 220 470 220 470 251 434.5 c 128,-1,27
 282 399 282 399 326 399 c 1,28,-1
 326 399 l 1,16,17
EndSplineSet
EndChar

StartChar: u0968
Encoding: 2408 2408 112
Width: 665
GlyphClass: 2
Flags: W
LayerCount: 2
Fore
SplineSet
479 -47 m 1,0,-1
 306 186 l 1,1,2
 300 184 300 184 288 182 c 128,-1,3
 276 180 276 180 260 180 c 0,4,5
 218 180 218 180 189 203 c 128,-1,6
 160 226 160 226 160 260 c 0,7,8
 160 282 160 282 179 297.5 c 128,-1,9
 198 313 198 313 226 313 c 0,10,11
 252 313 252 313 280 299 c 128,-1,12
 308 285 308 285 333 260 c 1,13,14
 402 285 402 285 444 343.5 c 128,-1,15
 486 402 486 402 486 473 c 0,16,17
 486 542 486 542 441.5 590.5 c 128,-1,18
 397 639 397 639 333 639 c 0,19,20
 288 639 288 639 242 620.5 c 128,-1,21
 196 602 196 602 153 566 c 1,22,-1
 113 619 l 1,23,24
 164 660 164 660 220.5 683 c 128,-1,25
 277 706 277 706 333 706 c 0,26,27
 423 706 423 706 488 637.5 c 128,-1,28
 553 569 553 569 553 473 c 0,29,30
 553 385 553 385 503.5 313.5 c 128,-1,31
 454 242 454 242 373 213 c 1,32,-1
 533 -7 l 1,33,-1
 479 -47 l 1,34,-1
 479 -47 l 1,0,-1
EndSplineSet
EndChar

StartChar: u0969
Encoding: 2409 2409 113
Width: 664
GlyphClass: 2
Flags: W
LayerCount: 2
Fore
SplineSet
395 -146 m 1,0,1
 368 -130 368 -130 337 -87.5 c 128,-1,2
 306 -45 306 -45 276 20 c 1,3,4
 226 20 226 20 191 49.5 c 128,-1,5
 156 79 156 79 156 120 c 0,6,7
 156 142 156 142 173 157.5 c 128,-1,8
 190 173 190 173 216 173 c 128,-1,9
 242 173 242 173 271 150 c 128,-1,10
 300 127 300 127 322 87 c 1,11,12
 384 97 384 97 423 136.5 c 128,-1,13
 462 176 462 176 462 226 c 0,14,15
 462 281 462 281 415.5 320.5 c 128,-1,16
 369 360 369 360 302 360 c 2,17,-1
 229 360 l 1,18,-1
 196 419 l 1,19,-1
 316 419 l 2,20,21
 365 419 365 419 400 450.5 c 128,-1,22
 435 482 435 482 435 526 c 0,23,24
 435 567 435 567 398 596.5 c 128,-1,25
 361 626 361 626 309 626 c 0,26,27
 280 626 280 626 244.5 614 c 128,-1,28
 209 602 209 602 169 579 c 1,29,-1
 136 626 l 1,30,31
 174 658 174 658 220 675 c 128,-1,32
 266 692 266 692 316 692 c 0,33,34
 393 692 393 692 447.5 643.5 c 128,-1,35
 502 595 502 595 502 526 c 0,36,37
 502 485 502 485 478.5 447 c 128,-1,38
 455 409 455 409 415 386 c 1,39,40
 467 362 467 362 498 319 c 128,-1,41
 529 276 529 276 529 226 c 0,42,43
 529 157 529 157 476 102.5 c 128,-1,44
 423 48 423 48 342 33 c 1,45,46
 374 -23 374 -23 401.5 -57 c 128,-1,47
 429 -91 429 -91 449 -100 c 1,48,-1
 395 -146 l 1,49,-1
 395 -146 l 1,0,1
EndSplineSet
EndChar

StartChar: u096A
Encoding: 2410 2410 114
Width: 664
GlyphClass: 2
Flags: W
LayerCount: 2
Fore
SplineSet
336 0 m 1,0,1
 264 0 264 0 213 48.5 c 128,-1,2
 162 97 162 97 162 166 c 0,3,4
 162 218 162 218 194 266 c 128,-1,5
 226 314 226 314 282 346 c 1,6,7
 200 385 200 385 151.5 443 c 128,-1,8
 103 501 103 501 103 559 c 0,9,10
 103 593 103 593 118.5 624 c 128,-1,11
 134 655 134 655 162 679 c 1,12,-1
 216 646 l 1,13,14
 193 623 193 623 181 600.5 c 128,-1,15
 169 578 169 578 169 559 c 0,16,17
 169 509 169 509 215 461 c 128,-1,18
 261 413 261 413 336 386 c 1,19,20
 410 429 410 429 452.5 475.5 c 128,-1,21
 495 522 495 522 495 559 c 0,22,23
 495 578 495 578 483 602 c 128,-1,24
 471 626 471 626 449 652 c 1,25,-1
 509 686 l 1,26,27
 534 660 534 660 548 627 c 128,-1,28
 562 594 562 594 562 559 c 0,29,30
 562 505 562 505 517.5 447.5 c 128,-1,31
 473 390 473 390 395 346 c 1,32,33
 451 314 451 314 483 266 c 128,-1,34
 515 218 515 218 515 166 c 0,35,36
 515 97 515 97 462.5 48.5 c 128,-1,37
 410 0 410 0 336 0 c 1,38,-1
 336 0 l 1,0,1
336 60 m 1,39,40
 382 60 382 60 415.5 91.5 c 128,-1,41
 449 123 449 123 449 166 c 0,42,43
 449 206 449 206 418 244 c 128,-1,44
 387 282 387 282 336 306 c 1,45,46
 288 289 288 289 258.5 250.5 c 128,-1,47
 229 212 229 212 229 166 c 0,48,49
 229 123 229 123 260.5 91.5 c 128,-1,50
 292 60 292 60 336 60 c 1,51,-1
 336 60 l 1,39,40
EndSplineSet
EndChar

StartChar: u096B
Encoding: 2411 2411 115
Width: 665
GlyphClass: 2
Flags: W
LayerCount: 2
Fore
SplineSet
466 -87 m 1,0,-1
 433 -33 l 1,1,2
 461 -13 461 -13 477 8 c 128,-1,3
 493 29 493 29 493 47 c 0,4,5
 493 63 493 63 486 90 c 128,-1,6
 479 117 479 117 466 153 c 2,7,-1
 419 306 l 1,8,9
 397 290 397 290 369.5 281.5 c 128,-1,10
 342 273 342 273 313 273 c 0,11,12
 225 273 225 273 162.5 337.5 c 128,-1,13
 100 402 100 402 100 493 c 0,14,15
 100 555 100 555 113.5 611 c 128,-1,16
 127 667 127 667 153 712 c 1,17,-1
 213 686 l 1,18,19
 190 646 190 646 178 596.5 c 128,-1,20
 166 547 166 547 166 493 c 0,21,22
 166 426 166 426 209 379.5 c 128,-1,23
 252 333 252 333 313 333 c 0,24,25
 337 333 337 333 359 339.5 c 128,-1,26
 381 346 381 346 399 360 c 1,27,28
 393 374 393 374 389.5 402.5 c 128,-1,29
 386 431 386 431 386 473 c 0,30,31
 386 517 386 517 409.5 548 c 128,-1,32
 433 579 433 579 466 579 c 0,33,34
 494 579 494 579 513.5 548 c 128,-1,35
 533 517 533 517 533 473 c 0,36,37
 533 445 533 445 519 414.5 c 128,-1,38
 505 384 505 384 479 353 c 1,39,-1
 539 153 l 2,40,41
 553 117 553 117 559.5 90 c 128,-1,42
 566 63 566 63 566 47 c 0,43,44
 566 12 566 12 539.5 -24 c 128,-1,45
 513 -60 513 -60 466 -87 c 1,46,-1
 466 -87 l 1,0,-1
EndSplineSet
EndChar

StartChar: u096C
Encoding: 2412 2412 116
Width: 665
GlyphClass: 2
Flags: W
LayerCount: 2
Fore
SplineSet
499 -166 m 1,0,1
 479 -142 479 -142 456 -93.5 c 128,-1,2
 433 -45 433 -45 406 27 c 1,3,4
 304 27 304 27 232 83.5 c 128,-1,5
 160 140 160 140 160 220 c 0,6,7
 160 261 160 261 183 299 c 128,-1,8
 206 337 206 337 246 360 c 1,9,10
 192 369 192 369 156 414 c 128,-1,11
 120 459 120 459 120 519 c 0,12,13
 120 583 120 583 170.5 627.5 c 128,-1,14
 221 672 221 672 293 672 c 0,15,16
 340 672 340 672 379 663.5 c 128,-1,17
 418 655 418 655 446 639 c 1,18,-1
 426 579 l 1,19,20
 390 593 390 593 356 599.5 c 128,-1,21
 322 606 322 606 293 606 c 0,22,23
 249 606 249 606 217.5 580.5 c 128,-1,24
 186 555 186 555 186 519 c 0,25,26
 186 470 186 470 221.5 434.5 c 128,-1,27
 257 399 257 399 306 399 c 2,28,-1
 413 399 l 1,29,-1
 439 346 l 1,30,-1
 366 346 l 2,31,32
 309 346 309 346 267.5 309 c 128,-1,33
 226 272 226 272 226 220 c 0,34,35
 226 165 226 165 277 126 c 128,-1,36
 328 87 328 87 399 87 c 1,37,38
 399 130 399 130 424.5 161.5 c 128,-1,39
 450 193 450 193 486 193 c 0,40,41
 505 193 505 193 519 175.5 c 128,-1,42
 533 158 533 158 533 133 c 0,43,44
 533 107 533 107 517 80 c 128,-1,45
 501 53 501 53 473 33 c 1,46,47
 479 9 479 9 498 -29.5 c 128,-1,48
 517 -68 517 -68 546 -120 c 1,49,-1
 499 -166 l 1,50,-1
 499 -166 l 1,0,1
EndSplineSet
EndChar

StartChar: u096D
Encoding: 2413 2413 117
Width: 665
GlyphClass: 2
Flags: W
LayerCount: 2
Fore
SplineSet
340 0 m 1,0,1
 234 0 234 0 160.5 103 c 128,-1,2
 87 206 87 206 87 353 c 0,3,4
 87 386 87 386 91.5 446 c 128,-1,5
 96 506 96 506 107 633 c 1,6,-1
 180 672 l 1,7,8
 166 597 166 597 159.5 517 c 128,-1,9
 153 437 153 437 153 353 c 0,10,11
 153 232 153 232 207.5 146 c 128,-1,12
 262 60 262 60 340 60 c 0,13,14
 384 60 384 60 424.5 96.5 c 128,-1,15
 465 133 465 133 486 193 c 1,16,17
 403 193 403 193 344.5 257.5 c 128,-1,18
 286 322 286 322 286 413 c 0,19,20
 286 493 286 493 327.5 549.5 c 128,-1,21
 369 606 369 606 426 606 c 0,22,23
 490 606 490 606 534.5 536 c 128,-1,24
 579 466 579 466 579 366 c 0,25,26
 579 200 579 200 514 100 c 128,-1,27
 449 0 449 0 340 0 c 1,28,-1
 340 0 l 1,0,1
499 240 m 1,29,30
 506 277 506 277 509.5 309 c 128,-1,31
 513 341 513 341 513 366 c 0,32,33
 513 441 513 441 487.5 493.5 c 128,-1,34
 462 546 462 546 426 546 c 0,35,36
 393 546 393 546 369.5 506.5 c 128,-1,37
 346 467 346 467 346 413 c 0,38,39
 346 341 346 341 390.5 290.5 c 128,-1,40
 435 240 435 240 499 240 c 1,41,-1
 499 240 l 1,29,30
EndSplineSet
EndChar

StartChar: u096E
Encoding: 2414 2414 118
Width: 665
GlyphClass: 2
Flags: W
LayerCount: 2
Fore
SplineSet
346 0 m 1,0,1
 244 0 244 0 172 62.5 c 128,-1,2
 100 125 100 125 100 213 c 0,3,4
 100 250 100 250 115 287 c 128,-1,5
 130 324 130 324 160 353 c 2,6,-1
 473 679 l 1,7,-1
 519 633 l 1,8,-1
 213 313 l 2,9,10
 194 293 194 293 183.5 267 c 128,-1,11
 173 241 173 241 173 213 c 0,12,13
 173 149 173 149 223.5 104.5 c 128,-1,14
 274 60 274 60 346 60 c 0,15,16
 386 60 386 60 431.5 88 c 128,-1,17
 477 116 477 116 519 166 c 1,18,-1
 566 120 l 1,19,20
 518 63 518 63 460.5 31.5 c 128,-1,21
 403 0 403 0 346 0 c 1,22,-1
 346 0 l 1,0,1
EndSplineSet
EndChar

StartChar: u096F
Encoding: 2415 2415 119
Width: 664
GlyphClass: 2
Flags: W
LayerCount: 2
Fore
SplineSet
415 -93 m 1,0,-1
 395 -33 l 1,1,2
 431 -33 431 -33 456.5 -19 c 128,-1,3
 482 -5 482 -5 482 13 c 0,4,5
 482 24 482 24 470.5 40.5 c 128,-1,6
 459 57 459 57 435 87 c 2,7,-1
 229 313 l 2,8,9
 174 368 174 368 145 428.5 c 128,-1,10
 116 489 116 489 116 546 c 0,11,12
 116 621 116 621 170.5 673.5 c 128,-1,13
 225 726 225 726 302 726 c 0,14,15
 377 726 377 726 429.5 669.5 c 128,-1,16
 482 613 482 613 482 533 c 0,17,18
 482 455 482 455 437.5 400.5 c 128,-1,19
 393 346 393 346 329 346 c 0,20,21
 324 346 324 346 314 347.5 c 128,-1,22
 304 349 304 349 282 353 c 1,23,-1
 509 100 l 2,24,25
 529 77 529 77 539 54.5 c 128,-1,26
 549 32 549 32 549 13 c 0,27,28
 549 -27 549 -27 510 -57.5 c 128,-1,29
 471 -88 471 -88 415 -93 c 1,30,-1
 415 -93 l 1,0,-1
302 406 m 1,31,32
 346 406 346 406 377.5 443.5 c 128,-1,33
 409 481 409 481 409 533 c 0,34,35
 409 582 409 582 377.5 617 c 128,-1,36
 346 652 346 652 302 652 c 0,37,38
 253 652 253 652 217.5 617 c 128,-1,39
 182 582 182 582 182 533 c 0,40,41
 182 481 182 481 217.5 443.5 c 128,-1,42
 253 406 253 406 302 406 c 1,43,-1
 302 406 l 1,31,32
EndSplineSet
EndChar

StartChar: u0970
Encoding: 2416 2416 120
Width: 545
GlyphClass: 2
Flags: W
LayerCount: 2
Fore
SplineSet
273 325 m 1,0,1
 201 325 201 325 150.5 375 c 128,-1,2
 100 425 100 425 100 496 c 0,3,4
 100 566 100 566 150.5 616 c 128,-1,5
 201 666 201 666 273 666 c 256,6,7
 345 666 345 666 395.5 616 c 128,-1,8
 446 566 446 566 446 496 c 0,9,10
 446 425 446 425 395.5 375 c 128,-1,11
 345 325 345 325 273 325 c 1,12,-1
 273 325 l 1,0,1
274 381 m 1,13,14
 320 381 320 381 352.5 414.5 c 128,-1,15
 385 448 385 448 385 496 c 256,16,17
 385 544 385 544 352.5 577 c 128,-1,18
 320 610 320 610 274 610 c 0,19,20
 229 610 229 610 196.5 577 c 128,-1,21
 164 544 164 544 164 496 c 256,22,23
 164 448 164 448 196.5 414.5 c 128,-1,24
 229 381 229 381 274 381 c 1,25,-1
 274 381 l 1,13,14
EndSplineSet
EndChar

StartChar: afii61664
Encoding: 8204 8204 121
Width: 0
GlyphClass: 2
Flags: W
LayerCount: 2
Fore
SplineSet
0 -326 m 1,0,-1
 0 999 l 1,1,-1
 53 999 l 1,2,-1
 53 -326 l 1,3,-1
 0 -326 l 1,4,-1
 0 -326 l 1,0,-1
EndSplineSet
EndChar

StartChar: afii301
Encoding: 8205 8205 122
Width: 0
GlyphClass: 2
Flags: W
LayerCount: 2
Fore
SplineSet
0 -326 m 1,0,-1
 0 999 l 1,1,-1
 226 999 l 1,2,-1
 226 945 l 1,3,-1
 53 945 l 1,4,-1
 53 -326 l 1,5,-1
 0 -326 l 1,6,-1
 0 -326 l 1,0,-1
EndSplineSet
EndChar

StartChar: endash
Encoding: 8211 8211 123
Width: 665
GlyphClass: 2
Flags: W
LayerCount: 2
Fore
SplineSet
0 280 m 1,0,-1
 0 340 l 1,1,-1
 666 340 l 1,2,-1
 666 280 l 1,3,-1
 0 280 l 1,4,-1
 0 280 l 1,0,-1
EndSplineSet
EndChar

StartChar: emdash
Encoding: 8212 8212 124
Width: 1331
GlyphClass: 2
Flags: W
LayerCount: 2
Fore
SplineSet
0 280 m 1,0,-1
 0 340 l 1,1,-1
 1332 340 l 1,2,-1
 1332 280 l 1,3,-1
 0 280 l 1,4,-1
 0 280 l 1,0,-1
EndSplineSet
EndChar

StartChar: quoteleft
Encoding: 8216 8216 125
Width: 352
GlyphClass: 2
Flags: W
LayerCount: 2
Fore
SplineSet
100 579 m 1,0,-1
 200 826 l 1,1,-1
 253 826 l 1,2,-1
 193 579 l 1,3,-1
 100 579 l 1,4,-1
 100 579 l 1,0,-1
EndSplineSet
EndChar

StartChar: quoteright
Encoding: 8217 8217 126
Width: 386
GlyphClass: 2
Flags: W
LayerCount: 2
Fore
SplineSet
100 579 m 1,0,-1
 180 846 l 1,1,-1
 286 846 l 1,2,-1
 160 579 l 1,3,-1
 100 579 l 1,4,-1
 100 579 l 1,0,-1
EndSplineSet
EndChar

StartChar: quotedblleft
Encoding: 8220 8220 127
Width: 539
GlyphClass: 2
Flags: W
LayerCount: 2
Fore
SplineSet
100 579 m 1,0,-1
 200 826 l 1,1,-1
 253 826 l 1,2,-1
 193 579 l 1,3,-1
 100 579 l 1,4,-1
 100 579 l 1,0,-1
286 579 m 1,5,-1
 386 826 l 1,6,-1
 439 826 l 1,7,-1
 380 579 l 1,8,-1
 286 579 l 1,9,-1
 286 579 l 1,5,-1
EndSplineSet
EndChar

StartChar: quotedblright
Encoding: 8221 8221 128
Width: 572
GlyphClass: 2
Flags: W
LayerCount: 2
Fore
SplineSet
100 579 m 1,0,-1
 180 846 l 1,1,-1
 286 846 l 1,2,-1
 160 579 l 1,3,-1
 100 579 l 1,4,-1
 100 579 l 1,0,-1
286 579 m 1,5,-1
 366 846 l 1,6,-1
 473 846 l 1,7,-1
 346 579 l 1,8,-1
 286 579 l 1,9,-1
 286 579 l 1,5,-1
EndSplineSet
EndChar

StartChar: ellipsis
Encoding: 8230 8230 129
Width: 1038
GlyphClass: 2
Flags: W
LayerCount: 2
Fore
SplineSet
100 0 m 1,0,-1
 100 60 l 1,1,-1
 246 60 l 1,2,-1
 246 0 l 1,3,-1
 100 0 l 1,4,-1
 100 0 l 1,0,-1
446 0 m 1,5,-1
 446 60 l 1,6,-1
 593 60 l 1,7,-1
 593 0 l 1,8,-1
 446 0 l 1,9,-1
 446 0 l 1,5,-1
792 0 m 1,10,-1
 792 60 l 1,11,-1
 939 60 l 1,12,-1
 939 0 l 1,13,-1
 792 0 l 1,14,-1
 792 0 l 1,10,-1
EndSplineSet
EndChar

StartChar: minus
Encoding: 8722 8722 130
Width: 692
GlyphClass: 2
Flags: W
LayerCount: 2
Fore
SplineSet
100 293 m 1,0,-1
 100 366 l 1,1,-1
 593 366 l 1,2,-1
 593 293 l 1,3,-1
 100 293 l 1,4,-1
 100 293 l 1,0,-1
EndSplineSet
EndChar

StartChar: uni25CC
Encoding: 9676 9676 131
Width: 918
GlyphClass: 2
Flags: W
LayerCount: 2
Fore
SplineSet
411 644 m 1,0,1
 411 664 411 664 425 678 c 128,-1,2
 439 692 439 692 459 692 c 256,3,4
 479 692 479 692 493 678 c 128,-1,5
 507 664 507 664 507 644 c 0,6,7
 507 625 507 625 493 611 c 128,-1,8
 479 597 479 597 459 597 c 256,9,10
 439 597 439 597 425 611 c 128,-1,11
 411 625 411 625 411 644 c 1,12,-1
 411 644 l 1,0,1
411 21 m 1,13,14
 411 41 411 41 425 55 c 128,-1,15
 439 69 439 69 459 69 c 256,16,17
 479 69 479 69 493 55 c 128,-1,18
 507 41 507 41 507 21 c 256,19,20
 507 1 507 1 493 -13 c 128,-1,21
 479 -27 479 -27 459 -27 c 256,22,23
 439 -27 439 -27 425 -13 c 128,-1,24
 411 1 411 1 411 21 c 1,25,-1
 411 21 l 1,13,14
100 333 m 1,26,27
 100 353 100 353 114 367 c 128,-1,28
 128 381 128 381 148 381 c 256,29,30
 168 381 168 381 182 367 c 128,-1,31
 196 353 196 353 196 333 c 256,32,33
 196 313 196 313 182 299 c 128,-1,34
 168 285 168 285 148 285 c 256,35,36
 128 285 128 285 114 299 c 128,-1,37
 100 313 100 313 100 333 c 1,38,-1
 100 333 l 1,26,27
723 333 m 1,39,40
 723 353 723 353 737 367 c 128,-1,41
 751 381 751 381 771 381 c 256,42,43
 791 381 791 381 805 367 c 128,-1,44
 819 353 819 353 819 333 c 256,45,46
 819 313 819 313 805 299 c 128,-1,47
 791 285 791 285 771 285 c 256,48,49
 751 285 751 285 737 299 c 128,-1,50
 723 313 723 313 723 333 c 1,51,-1
 723 333 l 1,39,40
142 177 m 1,52,53
 142 197 142 197 156 211 c 128,-1,54
 170 225 170 225 190 225 c 256,55,56
 210 225 210 225 224 211 c 128,-1,57
 238 197 238 197 238 177 c 256,58,59
 238 157 238 157 224 143 c 128,-1,60
 210 129 210 129 190 129 c 256,61,62
 170 129 170 129 156 143 c 128,-1,63
 142 157 142 157 142 177 c 1,64,-1
 142 177 l 1,52,53
682 489 m 1,65,66
 682 509 682 509 696 523 c 128,-1,67
 710 537 710 537 730 537 c 256,68,69
 750 537 750 537 764 523 c 128,-1,70
 778 509 778 509 778 489 c 256,71,72
 778 469 778 469 764 455 c 128,-1,73
 750 441 750 441 730 441 c 256,74,75
 710 441 710 441 696 455 c 128,-1,76
 682 469 682 469 682 489 c 1,77,-1
 682 489 l 1,65,66
567 603 m 1,78,79
 567 623 567 623 581 637 c 128,-1,80
 595 651 595 651 615 651 c 256,81,82
 635 651 635 651 649 637 c 128,-1,83
 663 623 663 623 663 603 c 256,84,85
 663 583 663 583 649 569 c 128,-1,86
 635 555 635 555 615 555 c 256,87,88
 595 555 595 555 581 569 c 128,-1,89
 567 583 567 583 567 603 c 1,90,-1
 567 603 l 1,78,79
256 64 m 1,91,92
 256 84 256 84 270 98 c 128,-1,93
 284 112 284 112 304 112 c 256,94,95
 324 112 324 112 338 98 c 128,-1,96
 352 84 352 84 352 64 c 256,97,98
 352 44 352 44 338 29.5 c 128,-1,99
 324 15 324 15 304 15 c 256,100,101
 284 15 284 15 270 29.5 c 128,-1,102
 256 44 256 44 256 64 c 1,103,-1
 256 64 l 1,91,92
142 489 m 1,104,105
 142 509 142 509 156 523 c 128,-1,106
 170 537 170 537 190 537 c 256,107,108
 210 537 210 537 224 523 c 128,-1,109
 238 509 238 509 238 489 c 256,110,111
 238 469 238 469 224 455 c 128,-1,112
 210 441 210 441 190 441 c 256,113,114
 170 441 170 441 156 455 c 128,-1,115
 142 469 142 469 142 489 c 1,116,-1
 142 489 l 1,104,105
682 177 m 1,117,118
 682 197 682 197 696 211 c 128,-1,119
 710 225 710 225 730 225 c 256,120,121
 750 225 750 225 764 211 c 128,-1,122
 778 197 778 197 778 177 c 256,123,124
 778 157 778 157 764 143 c 128,-1,125
 750 129 750 129 730 129 c 256,126,127
 710 129 710 129 696 143 c 128,-1,128
 682 157 682 157 682 177 c 1,129,-1
 682 177 l 1,117,118
256 603 m 1,130,131
 256 623 256 623 270 637 c 128,-1,132
 284 651 284 651 304 651 c 256,133,134
 324 651 324 651 338 637 c 128,-1,135
 352 623 352 623 352 603 c 256,136,137
 352 583 352 583 338 569 c 128,-1,138
 324 555 324 555 304 555 c 256,139,140
 284 555 284 555 270 569 c 128,-1,141
 256 583 256 583 256 603 c 1,142,-1
 256 603 l 1,130,131
567 64 m 1,143,144
 567 84 567 84 581 98 c 128,-1,145
 595 112 595 112 615 112 c 256,146,147
 635 112 635 112 649 98 c 128,-1,148
 663 84 663 84 663 64 c 256,149,150
 663 44 663 44 649 29.5 c 128,-1,151
 635 15 635 15 615 15 c 256,152,153
 595 15 595 15 581 29.5 c 128,-1,154
 567 44 567 44 567 64 c 1,155,-1
 567 64 l 1,143,144
EndSplineSet
EndChar

StartChar: numbersign
Encoding: 35 35 132
Width: 934
GlyphClass: 2
Flags: W
LayerCount: 2
Fore
SplineSet
166 450 m 1,0,-1
 166 511 l 1,1,-1
 360 511 l 1,2,-1
 409 668 l 1,3,-1
 470 668 l 1,4,-1
 421 511 l 1,5,-1
 626 511 l 1,6,-1
 675 668 l 1,7,-1
 738 668 l 1,8,-1
 688 511 l 1,9,-1
 835 511 l 1,10,-1
 835 450 l 1,11,-1
 667 450 l 1,12,-1
 601 245 l 1,13,-1
 768 245 l 1,14,-1
 768 181 l 1,15,-1
 581 181 l 1,16,-1
 523 -1 l 1,17,-1
 461 -1 l 1,18,-1
 519 181 l 1,19,-1
 314 181 l 1,20,-1
 256 -1 l 1,21,-1
 194 -1 l 1,22,-1
 253 181 l 1,23,-1
 100 181 l 1,24,-1
 100 245 l 1,25,-1
 272 245 l 1,26,-1
 338 450 l 1,27,-1
 166 450 l 1,28,-1
 166 450 l 1,0,-1
606 450 m 1,29,-1
 401 450 l 1,30,-1
 333 245 l 1,31,-1
 539 245 l 1,32,-1
 606 450 l 1,33,-1
 606 450 l 1,29,-1
EndSplineSet
EndChar

StartChar: dollar
Encoding: 36 36 133
Width: 712
GlyphClass: 2
Flags: W
LayerCount: 2
Fore
SplineSet
100 225 m 1,0,-1
 161 225 l 1,1,2
 161 165 161 165 205.5 116 c 128,-1,3
 250 67 250 67 320 49 c 1,4,-1
 320 341 l 1,5,6
 233 350 233 350 174.5 406 c 128,-1,7
 116 462 116 462 116 535 c 0,8,9
 116 606 116 606 174 660 c 128,-1,10
 232 714 232 714 320 724 c 1,11,-1
 320 839 l 1,12,-1
 385 839 l 1,13,-1
 385 724 l 1,14,15
 474 714 474 714 533.5 655.5 c 128,-1,16
 593 597 593 597 593 519 c 1,17,-1
 529 519 l 1,18,19
 529 574 529 574 487.5 615 c 128,-1,20
 446 656 446 656 385 666 c 1,21,-1
 385 389 l 1,22,23
 483 376 483 376 548 320 c 128,-1,24
 613 264 613 264 613 194 c 0,25,26
 613 117 613 117 547.5 59 c 128,-1,27
 482 1 482 1 385 -9 c 1,28,-1
 385 -101 l 1,29,-1
 320 -101 l 1,30,-1
 320 -9 l 1,31,32
 225 4 225 4 162.5 70.5 c 128,-1,33
 100 137 100 137 100 225 c 1,34,-1
 100 225 l 1,0,-1
385 49 m 1,35,36
 457 57 457 57 505.5 98.5 c 128,-1,37
 554 140 554 140 554 194 c 128,-1,38
 554 248 554 248 505.5 287 c 128,-1,39
 457 326 457 326 385 332 c 1,40,-1
 385 49 l 1,41,-1
 385 49 l 1,35,36
320 666 m 1,42,43
 258 654 258 654 218 617.5 c 128,-1,44
 178 581 178 581 178 535 c 0,45,46
 178 486 178 486 218 446.5 c 128,-1,47
 258 407 258 407 320 398 c 1,48,-1
 320 666 l 1,49,-1
 320 666 l 1,42,43
EndSplineSet
EndChar

StartChar: percent
Encoding: 37 37 134
Width: 885
GlyphClass: 2
Flags: W
LayerCount: 2
Fore
SplineSet
146 0 m 1,0,-1
 666 726 l 1,1,-1
 739 726 l 1,2,-1
 220 0 l 1,3,-1
 146 0 l 1,4,-1
 146 0 l 1,0,-1
262 393 m 1,5,6
 194 393 194 393 147 440 c 128,-1,7
 100 487 100 487 100 555 c 256,8,9
 100 623 100 623 147 671 c 128,-1,10
 194 719 194 719 262 719 c 256,11,12
 330 719 330 719 378 671 c 128,-1,13
 426 623 426 623 426 555 c 256,14,15
 426 487 426 487 378 440 c 128,-1,16
 330 393 330 393 262 393 c 1,17,-1
 262 393 l 1,5,6
262 459 m 1,18,19
 302 459 302 459 331 487 c 128,-1,20
 360 515 360 515 360 555 c 256,21,22
 360 595 360 595 331 623.5 c 128,-1,23
 302 652 302 652 262 652 c 256,24,25
 222 652 222 652 194 623.5 c 128,-1,26
 166 595 166 595 166 555 c 256,27,28
 166 515 166 515 194 487 c 128,-1,29
 222 459 222 459 262 459 c 1,30,-1
 262 459 l 1,18,19
622 7 m 1,31,32
 554 7 554 7 506.5 54 c 128,-1,33
 459 101 459 101 459 169 c 256,34,35
 459 237 459 237 506.5 285 c 128,-1,36
 554 333 554 333 622 333 c 256,37,38
 690 333 690 333 738 285 c 128,-1,39
 786 237 786 237 786 169 c 256,40,41
 786 101 786 101 738 54 c 128,-1,42
 690 7 690 7 622 7 c 1,43,-1
 622 7 l 1,31,32
622 67 m 1,44,45
 662 67 662 67 690.5 96 c 128,-1,46
 719 125 719 125 719 166 c 0,47,48
 719 208 719 208 690.5 237 c 128,-1,49
 662 266 662 266 622 266 c 256,50,51
 582 266 582 266 554 237 c 128,-1,52
 526 208 526 208 526 166 c 0,53,54
 526 125 526 125 554 96 c 128,-1,55
 582 67 582 67 622 67 c 1,56,-1
 622 67 l 1,44,45
EndSplineSet
EndChar

StartChar: ampersand
Encoding: 38 38 135
Width: 761
GlyphClass: 2
Flags: W
LayerCount: 2
Fore
SplineSet
100 174 m 1,0,1
 100 232 100 232 146 292 c 128,-1,2
 192 352 192 352 272 398 c 1,3,4
 225 457 225 457 201 508 c 128,-1,5
 177 559 177 559 177 598 c 0,6,7
 177 655 177 655 224.5 696.5 c 128,-1,8
 272 738 272 738 338 738 c 0,9,10
 402 738 402 738 448 691 c 128,-1,11
 494 644 494 644 494 578 c 0,12,13
 494 526 494 526 458 475.5 c 128,-1,14
 422 425 422 425 360 389 c 1,15,-1
 505 200 l 1,16,17
 513 232 513 232 517.5 260.5 c 128,-1,18
 522 289 522 289 522 314 c 1,19,-1
 579 314 l 1,20,21
 579 262 579 262 570.5 220 c 128,-1,22
 562 178 562 178 545 149 c 1,23,-1
 662 -5 l 1,24,-1
 582 -5 l 1,25,-1
 502 89 l 1,26,27
 469 41 469 41 416.5 14 c 128,-1,28
 364 -13 364 -13 305 -13 c 0,29,30
 220 -13 220 -13 160 42 c 128,-1,31
 100 97 100 97 100 174 c 1,32,-1
 100 174 l 1,0,1
166 184 m 1,33,34
 166 127 166 127 210 86 c 128,-1,35
 254 45 254 45 316 45 c 0,36,37
 360 45 360 45 401.5 70.5 c 128,-1,38
 443 96 443 96 474 140 c 1,39,-1
 304 352 l 1,40,41
 240 314 240 314 203 269.5 c 128,-1,42
 166 225 166 225 166 184 c 1,43,-1
 166 184 l 1,33,34
244 587 m 1,44,45
 244 562 244 562 264 522.5 c 128,-1,46
 284 483 284 483 322 434 c 1,47,48
 370 462 370 462 398 500.5 c 128,-1,49
 426 539 426 539 426 578 c 0,50,51
 426 621 426 621 402 651.5 c 128,-1,52
 378 682 378 682 345 682 c 0,53,54
 304 682 304 682 274 654 c 128,-1,55
 244 626 244 626 244 587 c 1,56,-1
 244 587 l 1,44,45
EndSplineSet
EndChar

StartChar: asterisk
Encoding: 42 42 136
Width: 680
GlyphClass: 2
Flags: W
LayerCount: 2
Fore
SplineSet
278 939 m 1,0,1
 278 963 278 963 297 979.5 c 128,-1,2
 316 996 316 996 341 996 c 0,3,4
 364 996 364 996 382.5 978 c 128,-1,5
 401 960 401 960 401 939 c 0,6,7
 401 916 401 916 385.5 872 c 128,-1,8
 370 828 370 828 341 764 c 1,9,10
 309 834 309 834 293.5 875 c 128,-1,11
 278 916 278 916 278 939 c 1,12,-1
 278 939 l 1,0,1
129 782 m 1,13,14
 108 794 108 794 102 817 c 128,-1,15
 96 840 96 840 108 860 c 256,16,17
 120 880 120 880 144.5 888.5 c 128,-1,18
 169 897 169 897 186 887 c 0,19,20
 208 875 208 875 239 839.5 c 128,-1,21
 270 804 270 804 310 747 c 1,22,23
 238 754 238 754 193.5 762 c 128,-1,24
 149 770 149 770 129 782 c 1,25,-1
 129 782 l 1,13,14
186 573 m 1,26,27
 166 561 166 561 143.5 569 c 128,-1,28
 121 577 121 577 108 598 c 0,29,30
 97 617 97 617 104 641.5 c 128,-1,31
 111 666 111 666 129 676 c 0,32,33
 149 688 149 688 195 697 c 128,-1,34
 241 706 241 706 310 712 c 1,35,36
 270 655 270 655 239 620 c 128,-1,37
 208 585 208 585 186 573 c 1,38,-1
 186 573 l 1,26,27
401 521 m 1,39,40
 401 497 401 497 383.5 479.5 c 128,-1,41
 366 462 366 462 341 462 c 0,42,43
 318 462 318 462 298 480.5 c 128,-1,44
 278 499 278 499 278 521 c 128,-1,45
 278 543 278 543 293.5 584.5 c 128,-1,46
 309 626 309 626 341 695 c 1,47,48
 370 631 370 631 385.5 587 c 128,-1,49
 401 543 401 543 401 521 c 1,50,-1
 401 521 l 1,39,40
555 676 m 1,51,52
 574 666 574 666 578.5 642.5 c 128,-1,53
 583 619 583 619 571 598 c 0,54,55
 561 578 561 578 536 570 c 128,-1,56
 511 562 511 562 494 573 c 0,57,58
 473 585 473 585 441.5 620 c 128,-1,59
 410 655 410 655 370 712 c 1,60,61
 442 706 442 706 488.5 697 c 128,-1,62
 535 688 535 688 555 676 c 1,63,-1
 555 676 l 1,51,52
494 887 m 1,64,65
 513 897 513 897 535.5 890 c 128,-1,66
 558 883 558 883 571 860 c 0,67,68
 582 842 582 842 577.5 816.5 c 128,-1,69
 573 791 573 791 555 782 c 0,70,71
 535 770 535 770 490 762 c 128,-1,72
 445 754 445 754 370 747 c 1,73,74
 410 804 410 804 441.5 839.5 c 128,-1,75
 473 875 473 875 494 887 c 1,76,-1
 494 887 l 1,64,65
EndSplineSet
EndChar

StartChar: plus
Encoding: 43 43 137
Width: 872
GlyphClass: 2
Flags: W
LayerCount: 2
Fore
SplineSet
393 20 m 1,0,-1
 393 300 l 1,1,-1
 100 300 l 1,2,-1
 100 386 l 1,3,-1
 393 386 l 1,4,-1
 393 659 l 1,5,-1
 479 659 l 1,6,-1
 479 386 l 1,7,-1
 772 386 l 1,8,-1
 772 300 l 1,9,-1
 479 300 l 1,10,-1
 479 20 l 1,11,-1
 393 20 l 1,12,-1
 393 20 l 1,0,-1
EndSplineSet
EndChar

StartChar: slash
Encoding: 47 47 138
Width: 672
GlyphClass: 2
Flags: W
LayerCount: 2
Fore
SplineSet
100 -180 m 1,0,-1
 493 886 l 1,1,-1
 573 886 l 1,2,-1
 180 -180 l 1,3,-1
 100 -180 l 1,4,-1
 100 -180 l 1,0,-1
EndSplineSet
EndChar

StartChar: zero
Encoding: 48 48 139
Width: 633
GlyphClass: 2
Flags: W
LayerCount: 2
Fore
SplineSet
65 350 m 1,0,1
 65 487 65 487 133 589.5 c 128,-1,2
 201 692 201 692 317 692 c 256,3,4
 433 692 433 692 501 589.5 c 128,-1,5
 569 487 569 487 569 350 c 0,6,7
 569 209 569 209 501.5 104.5 c 128,-1,8
 434 0 434 0 317 0 c 256,9,10
 200 0 200 0 132.5 104.5 c 128,-1,11
 65 209 65 209 65 350 c 1,12,-1
 65 350 l 1,0,1
136 350 m 1,13,14
 136 237 136 237 182 154 c 128,-1,15
 228 71 228 71 317 71 c 256,16,17
 406 71 406 71 452.5 154 c 128,-1,18
 499 237 499 237 499 350 c 0,19,20
 499 459 499 459 452 540.5 c 128,-1,21
 405 622 405 622 317 622 c 256,22,23
 229 622 229 622 182.5 540.5 c 128,-1,24
 136 459 136 459 136 350 c 1,25,-1
 136 350 l 1,13,14
EndSplineSet
EndChar

StartChar: one
Encoding: 49 49 140
Width: 635
GlyphClass: 2
Flags: W
LayerCount: 2
Fore
SplineSet
193 507 m 1,0,-1
 193 574 l 1,1,2
 269 574 269 574 327.5 611 c 128,-1,3
 386 648 386 648 391 714 c 1,4,-1
 442 714 l 1,5,-1
 442 0 l 1,6,-1
 362 0 l 1,7,-1
 362 507 l 1,8,-1
 193 507 l 1,9,-1
 193 507 l 1,0,-1
EndSplineSet
EndChar

StartChar: two
Encoding: 50 50 141
Width: 633
GlyphClass: 2
Flags: W
LayerCount: 2
Fore
SplineSet
79 7 m 1,0,1
 79 108 79 108 146 192 c 128,-1,2
 213 276 213 276 321 338 c 0,3,4
 390 378 390 378 432 424 c 128,-1,5
 474 470 474 470 474 529 c 0,6,7
 474 583 474 583 428 617.5 c 128,-1,8
 382 652 382 652 321 652 c 0,9,10
 257 652 257 652 211.5 607.5 c 128,-1,11
 166 563 166 563 166 499 c 2,12,-1
 166 455 l 1,13,-1
 85 455 l 1,14,-1
 85 499 l 2,15,16
 85 594 85 594 154.5 660.5 c 128,-1,17
 224 727 224 727 321 727 c 0,18,19
 415 727 415 727 485 671 c 128,-1,20
 555 615 555 615 555 529 c 0,21,22
 555 453 555 453 504.5 389.5 c 128,-1,23
 454 326 454 326 373 280 c 0,24,25
 366 276 366 276 277 225 c 128,-1,26
 188 174 188 174 173 88 c 1,27,-1
 555 88 l 1,28,-1
 555 7 l 1,29,-1
 79 7 l 1,30,-1
 79 7 l 1,0,1
EndSplineSet
EndChar

StartChar: three
Encoding: 51 51 142
Width: 635
GlyphClass: 2
Flags: W
LayerCount: 2
Fore
SplineSet
68 221 m 1,0,-1
 140 221 l 1,1,2
 140 154 140 154 192.5 110.5 c 128,-1,3
 245 67 245 67 317 67 c 0,4,5
 385 67 385 67 435.5 108.5 c 128,-1,6
 486 150 486 150 486 214 c 0,7,8
 486 270 486 270 435.5 301 c 128,-1,9
 385 332 385 332 317 332 c 2,10,-1
 250 332 l 1,11,-1
 250 413 l 1,12,-1
 317 413 l 2,13,14
 370 413 370 413 409.5 446 c 128,-1,15
 449 479 449 479 449 530 c 0,16,17
 449 578 449 578 409.5 608.5 c 128,-1,18
 370 639 370 639 317 639 c 0,19,20
 252 639 252 639 204 600 c 128,-1,21
 156 561 156 561 156 501 c 1,22,-1
 75 501 l 1,23,24
 75 591 75 591 144 652.5 c 128,-1,25
 213 714 213 714 309 714 c 0,26,27
 397 714 397 714 463 662 c 128,-1,28
 529 610 529 610 529 530 c 0,29,30
 529 481 529 481 508 439 c 128,-1,31
 487 397 487 397 449 374 c 1,32,33
 502 360 502 360 534.5 315 c 128,-1,34
 567 270 567 270 567 214 c 0,35,36
 567 117 567 117 493 51 c 128,-1,37
 419 -15 419 -15 317 -15 c 0,38,39
 214 -15 214 -15 141 54 c 128,-1,40
 68 123 68 123 68 221 c 1,41,-1
 68 221 l 1,0,-1
EndSplineSet
EndChar

StartChar: four
Encoding: 52 52 143
Width: 635
GlyphClass: 2
Flags: W
LayerCount: 2
Fore
SplineSet
76 185 m 1,0,-1
 76 257 l 1,1,-1
 384 714 l 1,2,-1
 465 714 l 1,3,-1
 465 257 l 1,4,-1
 559 257 l 1,5,-1
 559 185 l 1,6,-1
 465 185 l 1,7,-1
 465 0 l 1,8,-1
 384 0 l 1,9,-1
 384 185 l 1,10,-1
 76 185 l 1,11,-1
 76 185 l 1,0,-1
164 257 m 1,12,-1
 384 257 l 1,13,-1
 384 574 l 1,14,-1
 164 257 l 1,15,-1
 164 257 l 1,12,-1
EndSplineSet
EndChar

StartChar: five
Encoding: 53 53 144
Width: 635
GlyphClass: 2
Flags: W
LayerCount: 2
Fore
SplineSet
68 221 m 1,0,-1
 140 221 l 1,1,2
 140 160 140 160 190.5 120.5 c 128,-1,3
 241 81 241 81 309 81 c 0,4,5
 381 81 381 81 433.5 128 c 128,-1,6
 486 175 486 175 486 244 c 0,7,8
 486 314 486 314 433.5 363 c 128,-1,9
 381 412 381 412 309 412 c 0,10,11
 262 412 262 412 219.5 392.5 c 128,-1,12
 177 373 177 373 148 338 c 1,13,-1
 68 338 l 1,14,-1
 140 704 l 1,15,-1
 515 704 l 1,16,-1
 515 633 l 1,17,-1
 206 633 l 1,18,-1
 177 449 l 1,19,20
 198 474 198 474 231.5 483.5 c 128,-1,21
 265 493 265 493 309 493 c 0,22,23
 415 493 415 493 491 420.5 c 128,-1,24
 567 348 567 348 567 244 c 0,25,26
 567 141 567 141 490.5 70.5 c 128,-1,27
 414 0 414 0 309 0 c 0,28,29
 210 0 210 0 139 64 c 128,-1,30
 68 128 68 128 68 221 c 1,31,-1
 68 221 l 1,0,-1
EndSplineSet
EndChar

StartChar: six
Encoding: 54 54 145
Width: 635
GlyphClass: 2
Flags: W
LayerCount: 2
Fore
SplineSet
68 266 m 1,0,-1
 68 354 l 2,1,2
 68 498 68 498 141 606 c 128,-1,3
 214 714 214 714 338 714 c 0,4,5
 425 714 425 714 488 656 c 128,-1,6
 551 598 551 598 551 514 c 1,7,-1
 478 514 l 1,8,9
 478 567 478 567 436.5 603 c 128,-1,10
 395 639 395 639 338 639 c 0,11,12
 248 639 248 639 198 556 c 128,-1,13
 148 473 148 473 148 361 c 1,14,15
 169 406 169 406 215 430.5 c 128,-1,16
 261 455 261 455 317 455 c 0,17,18
 418 455 418 455 492.5 390 c 128,-1,19
 567 325 567 325 567 228 c 0,20,21
 567 127 567 127 493 56 c 128,-1,22
 419 -15 419 -15 317 -15 c 0,23,24
 210 -15 210 -15 139 69 c 128,-1,25
 68 153 68 153 68 266 c 1,26,-1
 68 266 l 1,0,-1
162 221 m 1,27,28
 162 157 162 157 207.5 112 c 128,-1,29
 253 67 253 67 317 67 c 0,30,31
 386 67 386 67 436 113.5 c 128,-1,32
 486 160 486 160 486 228 c 0,33,34
 486 294 486 294 436 339 c 128,-1,35
 386 384 386 384 317 384 c 0,36,37
 252 384 252 384 207 336 c 128,-1,38
 162 288 162 288 162 221 c 1,39,-1
 162 221 l 1,27,28
EndSplineSet
EndChar

StartChar: seven
Encoding: 55 55 146
Width: 635
GlyphClass: 2
Flags: W
LayerCount: 2
Fore
SplineSet
53 633 m 1,0,-1
 53 704 l 1,1,-1
 582 704 l 1,2,-1
 582 633 l 1,3,4
 442 534 442 534 376 366 c 128,-1,5
 310 198 310 198 310 0 c 1,6,-1
 216 0 l 1,7,8
 216 190 216 190 278.5 356.5 c 128,-1,9
 341 523 341 523 471 633 c 1,10,-1
 53 633 l 1,11,-1
 53 633 l 1,0,-1
EndSplineSet
EndChar

StartChar: eight
Encoding: 56 56 147
Width: 635
GlyphClass: 2
Flags: W
LayerCount: 2
Fore
SplineSet
53 214 m 1,0,1
 53 272 53 272 91.5 317 c 128,-1,2
 130 362 130 362 190 384 c 1,3,4
 142 411 142 411 112.5 448 c 128,-1,5
 83 485 83 485 83 530 c 0,6,7
 83 611 83 611 150.5 662.5 c 128,-1,8
 218 714 218 714 310 714 c 0,9,10
 405 714 405 714 475.5 663.5 c 128,-1,11
 546 613 546 613 546 530 c 0,12,13
 546 485 546 485 518 447.5 c 128,-1,14
 490 410 490 410 445 384 c 1,15,16
 505 362 505 362 543.5 317 c 128,-1,17
 582 272 582 272 582 214 c 0,18,19
 582 115 582 115 500.5 50 c 128,-1,20
 419 -15 419 -15 310 -15 c 0,21,22
 206 -15 206 -15 129.5 50.5 c 128,-1,23
 53 116 53 116 53 214 c 1,24,-1
 53 214 l 1,0,1
128 214 m 1,25,26
 128 149 128 149 182.5 108 c 128,-1,27
 237 67 237 67 310 67 c 0,28,29
 386 67 386 67 443.5 107.5 c 128,-1,30
 501 148 501 148 501 214 c 0,31,32
 501 277 501 277 444 311 c 128,-1,33
 387 345 387 345 310 345 c 0,34,35
 237 345 237 345 182.5 310.5 c 128,-1,36
 128 276 128 276 128 214 c 1,37,-1
 128 214 l 1,25,26
164 530 m 1,38,39
 164 479 164 479 208 449 c 128,-1,40
 252 419 252 419 310 419 c 0,41,42
 373 419 373 419 419 448.5 c 128,-1,43
 465 478 465 478 465 530 c 256,44,45
 465 582 465 582 419 610.5 c 128,-1,46
 373 639 373 639 310 639 c 0,47,48
 252 639 252 639 208 610 c 128,-1,49
 164 581 164 581 164 530 c 1,50,-1
 164 530 l 1,38,39
EndSplineSet
EndChar

StartChar: nine
Encoding: 57 57 148
Width: 635
GlyphClass: 2
Flags: W
LayerCount: 2
Fore
SplineSet
76 485 m 1,0,1
 76 581 76 581 144.5 647.5 c 128,-1,2
 213 714 213 714 310 714 c 0,3,4
 415 714 415 714 487 633.5 c 128,-1,5
 559 553 559 553 559 442 c 2,6,-1
 559 354 l 2,7,8
 559 186 559 186 489 85.5 c 128,-1,9
 419 -15 419 -15 304 -15 c 0,10,11
 218 -15 218 -15 158.5 46 c 128,-1,12
 99 107 99 107 99 192 c 1,13,-1
 178 192 l 1,14,15
 178 140 178 140 215 103.5 c 128,-1,16
 252 67 252 67 304 67 c 0,17,18
 380 67 380 67 425.5 139.5 c 128,-1,19
 471 212 471 212 471 332 c 1,20,21
 439 300 439 300 397.5 283 c 128,-1,22
 356 266 356 266 310 266 c 0,23,24
 214 266 214 266 145 329.5 c 128,-1,25
 76 393 76 393 76 485 c 1,26,-1
 76 485 l 1,0,1
157 485 m 1,27,28
 157 421 157 421 201.5 376.5 c 128,-1,29
 246 332 246 332 310 332 c 0,30,31
 377 332 377 332 424 376.5 c 128,-1,32
 471 421 471 421 471 485 c 0,33,34
 471 550 471 550 424 594.5 c 128,-1,35
 377 639 377 639 310 639 c 0,36,37
 246 639 246 639 201.5 594 c 128,-1,38
 157 549 157 549 157 485 c 1,39,-1
 157 485 l 1,27,28
EndSplineSet
EndChar

StartChar: less
Encoding: 60 60 149
Width: 661
GlyphClass: 2
Flags: W
LayerCount: 2
Fore
SplineSet
100 290 m 1,0,-1
 100 369 l 1,1,-1
 562 644 l 1,2,-1
 562 573 l 1,3,-1
 165 333 l 1,4,-1
 562 93 l 1,5,-1
 562 19 l 1,6,-1
 100 290 l 1,7,-1
 100 290 l 1,0,-1
EndSplineSet
EndChar

StartChar: equal
Encoding: 61 61 150
Width: 798
GlyphClass: 2
Flags: W
LayerCount: 2
Fore
SplineSet
100 153 m 1,0,-1
 100 220 l 1,1,-1
 699 220 l 1,2,-1
 699 153 l 1,3,-1
 100 153 l 1,4,-1
 100 153 l 1,0,-1
100 366 m 1,5,-1
 100 433 l 1,6,-1
 699 433 l 1,7,-1
 699 366 l 1,8,-1
 100 366 l 1,9,-1
 100 366 l 1,5,-1
EndSplineSet
EndChar

StartChar: greater
Encoding: 62 62 151
Width: 661
GlyphClass: 2
Flags: W
LayerCount: 2
Fore
SplineSet
562 290 m 1,0,-1
 100 19 l 1,1,-1
 100 93 l 1,2,-1
 497 333 l 1,3,-1
 100 573 l 1,4,-1
 100 644 l 1,5,-1
 562 369 l 1,6,-1
 562 290 l 1,7,-1
 562 290 l 1,0,-1
EndSplineSet
EndChar

StartChar: at
Encoding: 64 64 152
Width: 1043
GlyphClass: 2
Flags: W
LayerCount: 2
Fore
SplineSet
317 320 m 1,0,1
 317 398 317 398 371 454.5 c 128,-1,2
 425 511 425 511 502 511 c 0,3,4
 537 511 537 511 568 497 c 128,-1,5
 599 483 599 483 622 457 c 1,6,-1
 622 505 l 1,7,-1
 688 505 l 1,8,-1
 688 208 l 2,9,10
 688 188 688 188 705.5 173 c 128,-1,11
 723 158 723 158 748 158 c 0,12,13
 803 158 803 158 841.5 212 c 128,-1,14
 880 266 880 266 880 344 c 0,15,16
 880 475 880 475 779 568.5 c 128,-1,17
 678 662 678 662 535 662 c 0,18,19
 381 662 381 662 271.5 560 c 128,-1,20
 162 458 162 458 162 314 c 0,21,22
 162 184 162 184 271.5 92 c 128,-1,23
 381 0 381 0 535 0 c 0,24,25
 595 0 595 0 647.5 16 c 128,-1,26
 700 32 700 32 740 63 c 1,27,-1
 772 8 l 1,28,29
 722 -27 722 -27 661.5 -45.5 c 128,-1,30
 601 -64 601 -64 535 -64 c 0,31,32
 356 -64 356 -64 228 46.5 c 128,-1,33
 100 157 100 157 100 314 c 0,34,35
 100 483 100 483 228 603 c 128,-1,36
 356 723 356 723 535 723 c 0,37,38
 704 723 704 723 824 612 c 128,-1,39
 944 501 944 501 944 344 c 0,40,41
 944 241 944 241 887 168 c 128,-1,42
 830 95 830 95 748 95 c 0,43,44
 702 95 702 95 666.5 119.5 c 128,-1,45
 631 144 631 144 625 182 c 1,46,47
 607 152 607 152 574 135.5 c 128,-1,48
 541 119 541 119 502 119 c 0,49,50
 423 119 423 119 370 178 c 128,-1,51
 317 237 317 237 317 320 c 1,52,-1
 317 320 l 1,0,1
382 320 m 1,53,54
 382 265 382 265 416.5 225 c 128,-1,55
 451 185 451 185 502 185 c 256,56,57
 553 185 553 185 587.5 225 c 128,-1,58
 622 265 622 265 622 320 c 0,59,60
 622 374 622 374 587.5 413.5 c 128,-1,61
 553 453 553 453 502 453 c 256,62,63
 451 453 451 453 416.5 413.5 c 128,-1,64
 382 374 382 374 382 320 c 1,65,-1
 382 320 l 1,53,54
EndSplineSet
EndChar

StartChar: bracketleft
Encoding: 91 91 153
Width: 392
GlyphClass: 2
Flags: W
LayerCount: 2
Fore
SplineSet
100 -266 m 1,0,-1
 100 945 l 1,1,-1
 293 945 l 1,2,-1
 293 872 l 1,3,-1
 166 872 l 1,4,-1
 166 -193 l 1,5,-1
 293 -193 l 1,6,-1
 293 -266 l 1,7,-1
 100 -266 l 1,8,-1
 100 -266 l 1,0,-1
EndSplineSet
EndChar

StartChar: backslash
Encoding: 92 92 154
Width: 605
GlyphClass: 2
Flags: W
LayerCount: 2
Fore
SplineSet
506 -129 m 1,0,-1
 438 -129 l 1,1,-1
 100 812 l 1,2,-1
 168 812 l 1,3,-1
 506 -129 l 1,4,-1
 506 -129 l 1,0,-1
EndSplineSet
EndChar

StartChar: bracketright
Encoding: 93 93 155
Width: 392
GlyphClass: 2
Flags: W
LayerCount: 2
Fore
SplineSet
100 -266 m 1,0,-1
 100 -193 l 1,1,-1
 220 -193 l 1,2,-1
 220 872 l 1,3,-1
 100 872 l 1,4,-1
 100 945 l 1,5,-1
 293 945 l 1,6,-1
 293 -266 l 1,7,-1
 100 -266 l 1,8,-1
 100 -266 l 1,0,-1
EndSplineSet
EndChar

StartChar: asciicircum
Encoding: 94 94 156
Width: 671
GlyphClass: 4
Flags: W
LayerCount: 2
Fore
SplineSet
290 481 m 1,0,-1
 377 481 l 1,1,-1
 571 138 l 1,2,-1
 493 138 l 1,3,-1
 336 423 l 1,4,-1
 178 138 l 1,5,-1
 100 138 l 1,6,-1
 290 481 l 1,7,-1
 290 481 l 1,0,-1
EndSplineSet
EndChar

StartChar: braceleft
Encoding: 123 123 157
Width: 484
GlyphClass: 2
Flags: W
LayerCount: 2
Fore
SplineSet
100 310 m 1,0,1
 141 310 141 310 171 344 c 128,-1,2
 201 378 201 378 201 426 c 2,3,-1
 201 558 l 2,4,5
 201 651 201 651 255 717 c 128,-1,6
 309 783 309 783 385 783 c 1,7,-1
 385 731 l 1,8,9
 336 731 336 731 300.5 680.5 c 128,-1,10
 265 630 265 630 265 558 c 2,11,-1
 265 426 l 2,12,13
 265 381 265 381 242.5 345 c 128,-1,14
 220 309 220 309 182 296 c 1,15,16
 220 282 220 282 242.5 245.5 c 128,-1,17
 265 209 265 209 265 162 c 2,18,-1
 265 32 l 2,19,20
 265 -40 265 -40 300.5 -90.5 c 128,-1,21
 336 -141 336 -141 385 -141 c 1,22,-1
 385 -194 l 1,23,24
 309 -194 309 -194 255 -127.5 c 128,-1,25
 201 -61 201 -61 201 32 c 2,26,-1
 201 162 l 2,27,28
 201 209 201 209 171 241.5 c 128,-1,29
 141 274 141 274 100 274 c 1,30,-1
 100 310 l 1,31,-1
 100 310 l 1,0,1
EndSplineSet
EndChar

StartChar: bar
Encoding: 124 124 158
Width: 266
GlyphClass: 2
Flags: W
LayerCount: 2
Fore
SplineSet
100 -326 m 1,0,-1
 100 999 l 1,1,-1
 166 999 l 1,2,-1
 166 -326 l 1,3,-1
 100 -326 l 1,4,-1
 100 -326 l 1,0,-1
EndSplineSet
EndChar

StartChar: braceright
Encoding: 125 125 159
Width: 486
GlyphClass: 2
Flags: W
LayerCount: 2
Fore
SplineSet
386 345 m 1,0,-1
 386 309 l 1,1,2
 345 309 345 309 315 276.5 c 128,-1,3
 285 244 285 244 285 197 c 2,4,-1
 285 67 l 2,5,6
 285 -27 285 -27 231 -93.5 c 128,-1,7
 177 -160 177 -160 100 -160 c 1,8,-1
 100 -107 l 1,9,10
 150 -107 150 -107 185.5 -56 c 128,-1,11
 221 -5 221 -5 221 67 c 2,12,-1
 221 197 l 2,13,14
 221 241 221 241 244.5 277 c 128,-1,15
 268 313 268 313 306 326 c 1,16,17
 268 340 268 340 244.5 377 c 128,-1,18
 221 414 221 414 221 461 c 2,19,-1
 221 593 l 2,20,21
 221 664 221 664 185.5 715 c 128,-1,22
 150 766 150 766 100 766 c 1,23,-1
 100 818 l 1,24,25
 177 818 177 818 231 752 c 128,-1,26
 285 686 285 686 285 593 c 2,27,-1
 285 461 l 2,28,29
 285 413 285 413 315 379 c 128,-1,30
 345 345 345 345 386 345 c 1,31,-1
 386 345 l 1,0,-1
EndSplineSet
EndChar

StartChar: asciitilde
Encoding: 126 126 160
Width: 721
GlyphClass: 2
Flags: W
LayerCount: 2
Fore
SplineSet
136 304 m 1,0,-1
 100 349 l 1,1,2
 133 377 133 377 169.5 392 c 128,-1,3
 206 407 206 407 241 407 c 256,4,5
 276 407 276 407 304.5 399 c 128,-1,6
 333 391 333 391 352 376 c 0,7,8
 382 350 382 350 410 336 c 128,-1,9
 438 322 438 322 459 322 c 0,10,11
 495 322 495 322 528 338 c 128,-1,12
 561 354 561 354 585 382 c 1,13,-1
 622 340 l 1,14,15
 593 305 593 305 550 285.5 c 128,-1,16
 507 266 507 266 459 266 c 0,17,18
 429 266 429 266 401 275.5 c 128,-1,19
 373 285 373 285 352 304 c 0,20,21
 329 324 329 324 300.5 334 c 128,-1,22
 272 344 272 344 242 344 c 0,23,24
 214 344 214 344 186 334 c 128,-1,25
 158 324 158 324 136 304 c 1,26,-1
 136 304 l 1,0,-1
EndSplineSet
EndChar

StartChar: cent
Encoding: 162 162 161
Width: 749
GlyphClass: 2
Flags: W
LayerCount: 2
Fore
SplineSet
100 333 m 1,0,1
 100 483 100 483 176 574.5 c 128,-1,2
 252 666 252 666 378 666 c 0,3,4
 403 666 403 666 425 663 c 128,-1,5
 447 660 447 660 466 656 c 1,6,-1
 526 804 l 1,7,-1
 593 804 l 1,8,-1
 525 630 l 1,9,10
 577 595 577 595 608.5 546.5 c 128,-1,11
 640 498 640 498 644 446 c 1,12,-1
 570 446 l 1,13,14
 567 477 567 477 550 509 c 128,-1,15
 533 541 533 541 502 570 c 1,16,-1
 309 71 l 1,17,18
 329 65 329 65 346.5 62 c 128,-1,19
 364 59 364 59 378 59 c 0,20,21
 462 59 462 59 516.5 104.5 c 128,-1,22
 571 150 571 150 578 228 c 1,23,-1
 650 228 l 1,24,25
 640 123 640 123 566.5 60 c 128,-1,26
 493 -3 493 -3 378 -3 c 0,27,28
 356 -3 356 -3 332 0.5 c 128,-1,29
 308 4 308 4 285 11 c 1,30,-1
 232 -125 l 1,31,-1
 165 -125 l 1,32,-1
 229 37 l 1,33,34
 168 81 168 81 134 159.5 c 128,-1,35
 100 238 100 238 100 333 c 1,36,-1
 100 333 l 1,0,1
446 595 m 1,37,38
 425 599 425 599 407.5 602 c 128,-1,39
 390 605 390 605 378 605 c 0,40,41
 285 605 285 605 228.5 531 c 128,-1,42
 172 457 172 457 172 333 c 0,43,44
 172 265 172 265 192.5 205 c 128,-1,45
 213 145 213 145 252 101 c 1,46,-1
 446 595 l 1,47,-1
 446 595 l 1,37,38
EndSplineSet
EndChar

StartChar: multiply
Encoding: 215 215 162
Width: 665
GlyphClass: 2
Flags: W
LayerCount: 2
Fore
SplineSet
153 93 m 1,0,-1
 100 146 l 1,1,-1
 280 326 l 1,2,-1
 100 506 l 1,3,-1
 153 559 l 1,4,-1
 333 380 l 1,5,-1
 513 559 l 1,6,-1
 566 506 l 1,7,-1
 386 326 l 1,8,-1
 566 146 l 1,9,-1
 513 93 l 1,10,-1
 333 273 l 1,11,-1
 153 93 l 1,12,-1
 153 93 l 1,0,-1
EndSplineSet
EndChar

StartChar: divide
Encoding: 247 247 163
Width: 832
GlyphClass: 2
Flags: W
LayerCount: 2
Fore
SplineSet
499 553 m 1,0,1
 499 519 499 519 476 496 c 128,-1,2
 453 473 453 473 419 473 c 0,3,4
 389 473 389 473 367.5 496 c 128,-1,5
 346 519 346 519 346 553 c 0,6,7
 346 586 346 586 369.5 609.5 c 128,-1,8
 393 633 393 633 426 633 c 0,9,10
 457 633 457 633 478 609.5 c 128,-1,11
 499 586 499 586 499 553 c 1,12,-1
 499 553 l 1,0,1
732 286 m 1,13,-1
 100 286 l 1,14,-1
 100 366 l 1,15,-1
 732 366 l 1,16,-1
 732 286 l 1,17,-1
 732 286 l 1,13,-1
499 107 m 1,18,19
 499 73 499 73 476 50 c 128,-1,20
 453 27 453 27 419 27 c 0,21,22
 389 27 389 27 367.5 50 c 128,-1,23
 346 73 346 73 346 107 c 0,24,25
 346 137 346 137 367.5 158.5 c 128,-1,26
 389 180 389 180 419 180 c 0,27,28
 453 180 453 180 476 158.5 c 128,-1,29
 499 137 499 137 499 107 c 1,30,-1
 499 107 l 1,18,19
EndSplineSet
EndChar

StartChar: u0947_u0902.abvs
Encoding: 65571 -1 164
Width: 0
GlyphClass: 4
Flags: W
AnchorPoint: "Anchor-0" -122 636 mark 0
LayerCount: 2
Fore
SplineSet
-169 666 m 1,0,-1
 -415 952 l 1,1,-1
 -369 999 l 1,2,-1
 -103 666 l 1,3,-1
 -169 666 l 1,4,-1
 -169 666 l 1,0,-1
-136 866 m 1,5,-1
 -136 959 l 1,6,-1
 -36 959 l 1,7,-1
 -36 866 l 1,8,-1
 -136 866 l 1,9,-1
 -136 866 l 1,5,-1
EndSplineSet
Ligature2: "'abvs' Above Base Substitutions in Devanagari lookup 0" u0947 u0902
EndChar

StartChar: u0947_u0930_u094D.rphf.abvs
Encoding: 65572 -1 165
Width: 0
GlyphClass: 4
Flags: W
AnchorPoint: "Anchor-0" -117 644 mark 0
LayerCount: 2
Fore
SplineSet
-156 666 m 1,0,-1
 -415 952 l 1,1,-1
 -369 999 l 1,2,-1
 -222 826 l 1,3,4
 -214 878 -214 878 -171 911.5 c 128,-1,5
 -128 945 -128 945 -69 945 c 0,6,7
 -47 945 -47 945 -23 938.5 c 128,-1,8
 1 932 1 932 24 919 c 1,9,-1
 4 872 l 1,10,11
 -13 882 -13 882 -32 887 c 128,-1,12
 -51 892 -51 892 -69 892 c 0,13,14
 -108 892 -108 892 -135 865 c 128,-1,15
 -162 838 -162 838 -162 799 c 0,16,17
 -162 775 -162 775 -159 757.5 c 128,-1,18
 -156 740 -156 740 -149 732 c 2,19,-1
 -89 666 l 1,20,-1
 -156 666 l 1,21,-1
 -156 666 l 1,0,-1
EndSplineSet
Ligature2: "'abvs' Above Base Substitutions in Devanagari lookup 0" u0947 u0930_u094D.rphf
PairPos2: "'abvm' Above Base Mark in Devanagari lookup 4" u0902 dx=0 dy=0 dh=0 dv=0 dx=93 dy=-97 dh=0 dv=0
EndChar

StartChar: u0947_u0930_u094D.rphf.abvs_u0902.abvs
Encoding: 65573 -1 166
Width: 0
GlyphClass: 4
Flags: W
AnchorPoint: "Anchor-0" -127 644 mark 0
LayerCount: 2
Fore
SplineSet
-96 746 m 1,0,-1
 -96 819 l 1,1,-1
 -29 819 l 1,2,-1
 -29 746 l 1,3,-1
 -96 746 l 1,4,-1
 -96 746 l 1,0,-1
-156 666 m 1,5,-1
 -402 959 l 1,6,-1
 -356 999 l 1,7,-1
 -222 819 l 1,8,9
 -214 874 -214 874 -170.5 909.5 c 128,-1,10
 -127 945 -127 945 -69 945 c 0,11,12
 -44 945 -44 945 -20.5 940 c 128,-1,13
 3 935 3 935 24 925 c 1,14,-1
 4 872 l 1,15,16
 -13 882 -13 882 -32 887 c 128,-1,17
 -51 892 -51 892 -69 892 c 0,18,19
 -108 892 -108 892 -135 865 c 128,-1,20
 -162 838 -162 838 -162 799 c 0,21,22
 -162 775 -162 775 -159 757.5 c 128,-1,23
 -156 740 -156 740 -149 732 c 2,24,-1
 -96 666 l 1,25,-1
 -156 666 l 1,26,-1
 -156 666 l 1,5,-1
EndSplineSet
Ligature2: "'abvs' Above Base Substitutions in Devanagari lookup 0" u0947_u0930_u094D.rphf.abvs u0902
EndChar

StartChar: u0948_u0902.abvs
Encoding: 65574 -1 167
Width: 0
GlyphClass: 4
Flags: W
AnchorPoint: "Anchor-0" -138 636 mark 0
LayerCount: 2
Fore
SplineSet
-192 666 m 1,0,-1
 -478 806 l 1,1,-1
 -445 866 l 1,2,-1
 -145 672 l 1,3,-1
 -292 959 l 1,4,-1
 -225 999 l 1,5,-1
 -105 666 l 1,6,-1
 -192 666 l 1,7,-1
 -192 666 l 1,0,-1
-112 832 m 1,8,-1
 -112 925 l 1,9,-1
 -12 925 l 1,10,-1
 -12 832 l 1,11,-1
 -112 832 l 1,12,-1
 -112 832 l 1,8,-1
EndSplineSet
Ligature2: "'abvs' Above Base Substitutions in Devanagari lookup 0" u0948 u0902
EndChar

StartChar: u0948_u0930_u094D.rphf.abvs
Encoding: 65575 -1 168
Width: 0
GlyphClass: 4
Flags: W
AnchorPoint: "Anchor-0" -111 631 mark 0
LayerCount: 2
Fore
SplineSet
-172 666 m 1,0,-1
 -465 799 l 1,1,-1
 -431 866 l 1,2,-1
 -125 672 l 1,3,-1
 -292 959 l 1,4,-1
 -225 999 l 1,5,-1
 -165 859 l 1,6,7
 -145 899 -145 899 -106 922 c 128,-1,8
 -67 945 -67 945 -19 945 c 0,9,10
 0 945 0 945 18 942 c 128,-1,11
 36 939 36 939 55 932 c 1,12,-1
 55 872 l 1,13,14
 27 883 27 883 9 887.5 c 128,-1,15
 -9 892 -9 892 -19 892 c 0,16,17
 -65 892 -65 892 -98.5 863 c 128,-1,18
 -132 834 -132 834 -132 792 c 0,19,20
 -132 784 -132 784 -127.5 769.5 c 128,-1,21
 -123 755 -123 755 -112 732 c 2,22,-1
 -85 666 l 1,23,-1
 -172 666 l 1,24,-1
 -172 666 l 1,0,-1
EndSplineSet
Ligature2: "'abvs' Above Base Substitutions in Devanagari lookup 0" u0948 u0930_u094D.rphf
PairPos2: "'abvm' Above Base Mark in Devanagari lookup 4" u0902 dx=0 dy=0 dh=0 dv=0 dx=119 dy=-109 dh=0 dv=0
EndChar

StartChar: u0948_u0930_u094D.rphf.abvs_u0902.abvs
Encoding: 65576 -1 169
Width: 0
GlyphClass: 4
Flags: W
AnchorPoint: "Anchor-0" -103 631 mark 0
LayerCount: 2
Fore
SplineSet
-52 739 m 1,0,-1
 -52 812 l 1,1,-1
 21 812 l 1,2,-1
 21 739 l 1,3,-1
 -52 739 l 1,4,-1
 -52 739 l 1,0,-1
-172 666 m 1,5,-1
 -458 806 l 1,6,-1
 -431 866 l 1,7,-1
 -125 672 l 1,8,-1
 -292 959 l 1,9,-1
 -225 999 l 1,10,-1
 -165 859 l 1,11,12
 -145 899 -145 899 -106 922 c 128,-1,13
 -67 945 -67 945 -19 945 c 0,14,15
 0 945 0 945 18 942 c 128,-1,16
 36 939 36 939 55 932 c 1,17,-1
 55 872 l 1,18,19
 27 883 27 883 9 887.5 c 128,-1,20
 -9 892 -9 892 -19 892 c 0,21,22
 -65 892 -65 892 -98.5 863 c 128,-1,23
 -132 834 -132 834 -132 792 c 0,24,25
 -132 784 -132 784 -127.5 769.5 c 128,-1,26
 -123 755 -123 755 -112 732 c 2,27,-1
 -85 666 l 1,28,-1
 -172 666 l 1,29,-1
 -172 666 l 1,5,-1
EndSplineSet
Ligature2: "'abvs' Above Base Substitutions in Devanagari lookup 0" u0948_u0930_u094D.rphf.abvs u0902
EndChar

StartChar: u0930_u094D.rphf
Encoding: 65577 -1 170
Width: 0
GlyphClass: 4
Flags: W
AnchorPoint: "Anchor-0" -71 633 mark 0
LayerCount: 2
Fore
SplineSet
-128 666 m 1,0,1
 -162 695 -162 695 -181.5 729.5 c 128,-1,2
 -201 764 -201 764 -201 799 c 0,3,4
 -201 860 -201 860 -154.5 902.5 c 128,-1,5
 -108 945 -108 945 -41 945 c 0,6,7
 -23 945 -23 945 -5 942 c 128,-1,8
 13 939 13 939 32 932 c 1,9,-1
 32 872 l 1,10,11
 4 883 4 883 -14 887.5 c 128,-1,12
 -32 892 -32 892 -41 892 c 0,13,14
 -80 892 -80 892 -107 865 c 128,-1,15
 -134 838 -134 838 -134 799 c 0,16,17
 -134 762 -134 762 -109 726.5 c 128,-1,18
 -84 691 -84 691 -41 666 c 1,19,-1
 -128 666 l 1,20,-1
 -128 666 l 1,0,1
EndSplineSet
Ligature2: "'rphf' Reph Form in Devanagari lookup 72" u0930 u094D
EndChar

StartChar: u0930_u094D.rphf_u0902.abvs
Encoding: 65578 -1 171
Width: 0
GlyphClass: 4
Flags: W
AnchorPoint: "Anchor-0" -109 636 mark 0
LayerCount: 2
Fore
SplineSet
-168 666 m 1,0,1
 -197 695 -197 695 -212.5 729.5 c 128,-1,2
 -228 764 -228 764 -228 799 c 0,3,4
 -228 860 -228 860 -186.5 902.5 c 128,-1,5
 -145 945 -145 945 -88 945 c 0,6,7
 -57 945 -57 945 -35 942 c 128,-1,8
 -13 939 -13 939 -1 932 c 1,9,-1
 -1 879 l 1,10,11
 -16 886 -16 886 -37.5 889 c 128,-1,12
 -59 892 -59 892 -88 892 c 0,13,14
 -119 892 -119 892 -140 865 c 128,-1,15
 -161 838 -161 838 -161 799 c 0,16,17
 -161 767 -161 767 -144 732.5 c 128,-1,18
 -127 698 -127 698 -95 666 c 1,19,-1
 -168 666 l 1,20,-1
 -168 666 l 1,0,1
-75 759 m 1,21,-1
 -75 832 l 1,22,-1
 -1 832 l 1,23,-1
 -1 759 l 1,24,-1
 -75 759 l 1,25,-1
 -75 759 l 1,21,-1
EndSplineSet
Ligature2: "'abvs' Above Base Substitutions in Devanagari lookup 0" u0930_u094D.rphf u0902
EndChar

StartChar: glyph172
Encoding: 65579 -1 172
Width: 0
GlyphClass: 2
Flags: W
LayerCount: 2
Fore
SplineSet
-453 -33 m 1,0,-1
 -479 20 l 1,1,-1
 -127 200 l 1,2,-1
 -127 140 l 1,3,-1
 -453 -33 l 1,4,-1
 -453 -33 l 1,0,-1
EndSplineSet
EndChar

StartChar: u0930_u094D.blwf
Encoding: 65580 -1 173
Width: 0
GlyphClass: 4
Flags: W
AnchorPoint: "Anchor-3" -135 74 mark 0
LayerCount: 2
Fore
SplineSet
-360 -220 m 1,0,-1
 -180 47 l 1,1,-1
 -93 47 l 1,2,-1
 73 -220 l 1,3,-1
 7 -220 l 1,4,-1
 -133 0 l 1,5,-1
 -280 -220 l 1,6,-1
 -360 -220 l 1,7,-1
 -360 -220 l 1,0,-1
EndSplineSet
Ligature2: "'blwf' Below Base Forms in Devanagari lookup 2" u0930 u094D
EndChar

StartChar: u0936_u0930_u094D.blwf.vatu
Encoding: 65581 -1 174
Width: 709
GlyphClass: 2
Flags: W
AnchorPoint: "Anchor-0" 578 664 basechar 0
LayerCount: 2
Fore
SplineSet
13 290 m 1,0,-1
 197 409 l 1,1,2
 154 433 154 433 129.5 470 c 128,-1,3
 105 507 105 507 105 546 c 0,4,5
 105 598 105 598 141.5 635 c 128,-1,6
 178 672 178 672 230 672 c 0,7,8
 285 672 285 672 324.5 635 c 128,-1,9
 364 598 364 598 364 546 c 0,10,11
 364 511 364 511 347 478 c 128,-1,12
 330 445 330 445 300 419 c 1,13,-1
 490 340 l 1,14,-1
 543 380 l 1,15,-1
 543 606 l 1,16,-1
 423 606 l 1,17,-1
 423 666 l 1,18,-1
 723 666 l 1,19,-1
 723 606 l 1,20,-1
 610 606 l 1,21,-1
 610 0 l 1,22,-1
 543 0 l 1,23,-1
 543 300 l 1,24,-1
 230 60 l 1,25,-1
 184 113 l 1,26,-1
 437 300 l 1,27,-1
 257 373 l 1,28,-1
 57 240 l 1,29,-1
 13 290 l 1,30,-1
 13 290 l 1,0,-1
244 459 m 1,31,32
 269 477 269 477 283 500 c 128,-1,33
 297 523 297 523 297 546 c 0,34,35
 297 574 297 574 277.5 593.5 c 128,-1,36
 258 613 258 613 230 613 c 0,37,38
 205 613 205 613 187.5 593.5 c 128,-1,39
 170 574 170 574 170 546 c 0,40,41
 170 517 170 517 191 493 c 128,-1,42
 212 469 212 469 244 459 c 1,43,-1
 244 459 l 1,31,32
EndSplineSet
LCarets2: 1 0 
Ligature2: "'vatu' Vattu Variants in Devanagari lookup 73" u0936 u0930_u094D.blwf
EndChar

StartChar: u095E_u0930_u094D.blwf.vatu
Encoding: 65582 -1 175
Width: 794
GlyphClass: 2
Flags: W
AnchorPoint: "Anchor-3" 415 23 basechar 0
AnchorPoint: "Anchor-0" 412 664 basechar 0
LayerCount: 2
Fore
SplineSet
-13 606 m 1,0,-1
 -13 666 l 1,1,-1
 808 666 l 1,2,-1
 808 606 l 1,3,-1
 441 606 l 1,4,-1
 441 419 l 1,5,6
 467 451 467 451 504 468.5 c 128,-1,7
 541 486 541 486 581 486 c 0,8,9
 650 486 650 486 698.5 431.5 c 128,-1,10
 747 377 747 377 747 300 c 0,11,12
 747 240 747 240 724.5 182 c 128,-1,13
 702 124 702 124 660 73 c 1,14,-1
 601 107 l 1,15,16
 639 145 639 145 659.5 195 c 128,-1,17
 680 245 680 245 680 300 c 0,18,19
 680 349 680 349 651 384 c 128,-1,20
 622 419 622 419 581 419 c 0,21,22
 546 419 546 419 509.5 398.5 c 128,-1,23
 473 378 473 378 441 340 c 1,24,-1
 441 0 l 1,25,-1
 374 0 l 1,26,-1
 374 174 l 1,27,-1
 75 7 l 1,28,-1
 48 60 l 1,29,-1
 374 241 l 1,30,-1
 374 300 l 1,31,32
 345 270 345 270 310.5 255 c 128,-1,33
 276 240 276 240 241 240 c 0,34,35
 172 240 172 240 123.5 286.5 c 128,-1,36
 75 333 75 333 75 399 c 2,37,-1
 75 606 l 1,38,-1
 -13 606 l 1,39,-1
 -13 606 l 1,0,-1
241 306 m 1,40,41
 280 306 280 306 315 325.5 c 128,-1,42
 350 345 350 345 374 380 c 1,43,-1
 374 606 l 1,44,-1
 141 606 l 1,45,-1
 141 399 l 2,46,47
 141 361 141 361 170.5 333.5 c 128,-1,48
 200 306 200 306 241 306 c 1,49,-1
 241 306 l 1,40,41
248 -53 m 1,50,-1
 194 -4 l 1,51,-1
 248 47 l 1,52,-1
 301 -4 l 1,53,-1
 248 -53 l 1,54,-1
 248 -53 l 1,50,-1
EndSplineSet
LCarets2: 1 0 
Ligature2: "'vatu' Vattu Variants in Devanagari lookup 73" u095E u0930_u094D.blwf
EndChar

StartChar: u0924_u094D.half_u0924.pres
Encoding: 65583 -1 176
Width: 743
GlyphClass: 2
Flags: W
LayerCount: 2
Fore
SplineSet
-13 606 m 1,0,-1
 -13 666 l 1,1,-1
 756 666 l 1,2,-1
 756 606 l 1,3,-1
 643 606 l 1,4,-1
 643 0 l 1,5,-1
 577 0 l 1,6,-1
 577 426 l 1,7,-1
 370 426 l 2,8,9
 321 426 321 426 285.5 397 c 128,-1,10
 250 368 250 368 250 326 c 0,11,12
 250 242 250 242 297 167.5 c 128,-1,13
 344 93 344 93 423 47 c 1,14,-1
 384 0 l 1,15,16
 290 53 290 53 237 140.5 c 128,-1,17
 184 228 184 228 184 326 c 0,18,19
 184 356 184 356 196 381.5 c 128,-1,20
 208 407 208 407 230 426 c 1,21,-1
 11 426 l 1,22,-1
 11 486 l 1,23,-1
 577 486 l 1,24,-1
 577 606 l 1,25,-1
 -13 606 l 1,26,-1
 -13 606 l 1,0,-1
EndSplineSet
LCarets2: 1 0 
Ligature2: "'pres' Pre Base Substitutions in Devanagari lookup 57" u0924_u094D.half u0924
EndChar

StartChar: u0915_u094D_u0937.akhn
Encoding: 65584 -1 177
Width: 657
GlyphClass: 2
Flags: W
AnchorPoint: "Anchor-0" 528 666 basechar 0
LayerCount: 2
Fore
SplineSet
425 606 m 1,0,-1
 425 666 l 1,1,-1
 671 666 l 1,2,-1
 671 606 l 1,3,-1
 558 606 l 1,4,-1
 558 0 l 1,5,-1
 491 0 l 1,6,-1
 491 366 l 1,7,8
 469 353 469 353 443.5 346.5 c 128,-1,9
 418 340 418 340 391 340 c 0,10,11
 352 340 352 340 308 353 c 128,-1,12
 264 366 264 366 218 393 c 1,13,14
 172 381 172 381 142 349 c 128,-1,15
 112 317 112 317 112 280 c 0,16,17
 112 233 112 233 150 199.5 c 128,-1,18
 188 166 188 166 242 166 c 1,19,20
 237 178 237 178 234.5 185 c 128,-1,21
 232 192 232 192 232 196 c 0,22,23
 232 222 232 222 251 241 c 128,-1,24
 270 260 270 260 298 260 c 256,25,26
 326 260 326 260 345.5 240.5 c 128,-1,27
 365 221 365 221 365 193 c 0,28,29
 365 170 365 170 354.5 150 c 128,-1,30
 344 130 344 130 325 120 c 1,31,-1
 391 7 l 1,32,-1
 338 -27 l 1,33,-1
 258 107 l 1,34,35
 170 107 170 107 107.5 157.5 c 128,-1,36
 45 208 45 208 45 280 c 0,37,38
 45 326 45 326 78 366 c 128,-1,39
 111 406 111 406 165 426 c 1,40,41
 128 453 128 453 106.5 484 c 128,-1,42
 85 515 85 515 85 546 c 0,43,44
 85 603 85 603 126.5 644.5 c 128,-1,45
 168 686 168 686 225 686 c 256,46,47
 282 686 282 686 323.5 644.5 c 128,-1,48
 365 603 365 603 365 546 c 0,49,50
 365 511 365 511 343.5 479 c 128,-1,51
 322 447 322 447 285 426 c 1,52,53
 313 413 313 413 340.5 406 c 128,-1,54
 368 399 368 399 391 399 c 0,55,56
 413 399 413 399 438 408 c 128,-1,57
 463 417 463 417 491 433 c 1,58,-1
 491 606 l 1,59,-1
 425 606 l 1,60,-1
 425 606 l 1,0,-1
218 459 m 1,61,62
 254 473 254 473 276 497 c 128,-1,63
 298 521 298 521 298 546 c 0,64,65
 298 577 298 577 276 598 c 128,-1,66
 254 619 254 619 224 619 c 128,-1,67
 194 619 194 619 173 598 c 128,-1,68
 152 577 152 577 152 546 c 0,69,70
 152 527 152 527 169 504 c 128,-1,71
 186 481 186 481 218 459 c 1,72,-1
 218 459 l 1,61,62
EndSplineSet
LCarets2: 2 0 0 
Ligature2: "'akhn' Akhand in Devanagari lookup 1" u0915 u094D u0937
EndChar

StartChar: u091C_u094D_u091E.akhn
Encoding: 65585 -1 178
Width: 711
GlyphClass: 2
Flags: W
AnchorPoint: "Anchor-0" 579 665 basechar 0
LayerCount: 2
Fore
SplineSet
-13 606 m 1,0,-1
 -13 666 l 1,1,-1
 724 666 l 1,2,-1
 724 606 l 1,3,-1
 611 606 l 1,4,-1
 611 0 l 1,5,-1
 545 0 l 1,6,-1
 545 446 l 1,7,-1
 158 446 l 2,8,9
 145 446 145 446 135 440 c 128,-1,10
 125 434 125 434 125 426 c 0,11,12
 125 398 125 398 162.5 355.5 c 128,-1,13
 200 313 200 313 225 313 c 0,14,15
 240 313 240 313 256.5 316.5 c 128,-1,16
 273 320 273 320 292 326 c 0,17,18
 310 333 310 333 325 336.5 c 128,-1,19
 340 340 340 340 352 340 c 0,20,21
 382 340 382 340 403.5 308.5 c 128,-1,22
 425 277 425 277 425 233 c 0,23,24
 425 166 425 166 368.5 119.5 c 128,-1,25
 312 73 312 73 232 73 c 1,26,27
 244 47 244 47 277 27.5 c 128,-1,28
 310 8 310 8 358 0 c 1,29,-1
 312 -47 l 1,30,31
 269 -35 269 -35 231 -11.5 c 128,-1,32
 193 12 193 12 165 47 c 1,33,34
 113 47 113 47 76 72 c 128,-1,35
 39 97 39 97 39 133 c 0,36,37
 39 158 39 158 56 175.5 c 128,-1,38
 73 193 73 193 99 193 c 0,39,40
 113 193 113 193 137.5 173.5 c 128,-1,41
 162 154 162 154 192 120 c 1,42,43
 262 127 262 127 310 159.5 c 128,-1,44
 358 192 358 192 358 233 c 0,45,46
 358 252 358 252 348 266 c 128,-1,47
 338 280 338 280 325 280 c 0,48,49
 320 280 320 280 308.5 276.5 c 128,-1,50
 297 273 297 273 278 266 c 0,51,52
 260 260 260 260 245 256.5 c 128,-1,53
 230 253 230 253 218 253 c 0,54,55
 176 253 176 253 117.5 317 c 128,-1,56
 59 381 59 381 59 427 c 0,57,58
 59 463 59 463 88 488 c 128,-1,59
 117 513 117 513 158 513 c 2,60,-1
 545 513 l 1,61,-1
 545 606 l 1,62,-1
 -13 606 l 1,63,-1
 -13 606 l 1,0,-1
EndSplineSet
LCarets2: 2 0 0 
Ligature2: "'akhn' Akhand in Devanagari lookup 1" u091C u094D u091E
EndChar

StartChar: u0915_u094D.half
Encoding: 65586 -1 179
Width: 584
GlyphClass: 2
Flags: W
LayerCount: 2
Fore
SplineSet
-13 606 m 1,0,-1
 -13 666 l 1,1,-1
 598 666 l 1,2,-1
 598 606 l 1,3,-1
 411 606 l 1,4,-1
 411 426 l 1,5,6
 435 461 435 461 472.5 480 c 128,-1,7
 510 499 510 499 551 499 c 0,8,9
 563 499 563 499 578 496 c 128,-1,10
 593 493 593 493 611 486 c 1,11,-1
 611 413 l 1,12,13
 598 426 598 426 582.5 432.5 c 128,-1,14
 567 439 567 439 551 439 c 0,15,16
 501 439 501 439 461.5 401.5 c 128,-1,17
 422 364 422 364 411 306 c 1,18,-1
 411 0 l 1,19,-1
 345 0 l 1,20,-1
 345 200 l 1,21,22
 316 170 316 170 285 155 c 128,-1,23
 254 140 254 140 225 140 c 0,24,25
 148 140 148 140 93.5 190.5 c 128,-1,26
 39 241 39 241 39 313 c 0,27,28
 39 390 39 390 95.5 444.5 c 128,-1,29
 152 499 152 499 232 499 c 0,30,31
 250 499 250 499 268 496 c 128,-1,32
 286 493 286 493 305 486 c 1,33,-1
 298 426 l 1,34,35
 284 433 284 433 267 436 c 128,-1,36
 250 439 250 439 232 439 c 0,37,38
 180 439 180 439 142.5 402 c 128,-1,39
 105 365 105 365 105 313 c 0,40,41
 105 269 105 269 140.5 237.5 c 128,-1,42
 176 206 176 206 225 206 c 0,43,44
 256 206 256 206 288 231.5 c 128,-1,45
 320 257 320 257 345 300 c 1,46,-1
 345 606 l 1,47,-1
 -13 606 l 1,48,-1
 -13 606 l 1,0,-1
EndSplineSet
LCarets2: 1 0 
Ligature2: "'half' Half Forms in Devanagari lookup 47" u0915 u094D
EndChar

StartChar: u0916_u094D.half
Encoding: 65587 -1 180
Width: 656
GlyphClass: 2
Flags: W
LayerCount: 2
Fore
SplineSet
-13 606 m 1,0,-1
 -13 666 l 1,1,-1
 670 666 l 1,2,-1
 670 606 l 1,3,-1
 297 606 l 1,4,-1
 297 426 l 2,5,6
 297 372 297 372 263.5 332.5 c 128,-1,7
 230 293 230 293 184 293 c 0,8,9
 165 293 165 293 153 296.5 c 128,-1,10
 141 300 141 300 137 306 c 1,11,12
 166 194 166 194 241 127 c 128,-1,13
 316 60 316 60 410 60 c 0,14,15
 490 60 490 60 562.5 98.5 c 128,-1,16
 635 137 635 137 683 206 c 1,17,-1
 683 127 l 1,18,19
 633 67 633 67 561.5 33.5 c 128,-1,20
 490 0 490 0 410 0 c 0,21,22
 273 0 273 0 169 118.5 c 128,-1,23
 65 237 65 237 31 433 c 1,24,-1
 77 459 l 1,25,26
 99 414 99 414 126 387 c 128,-1,27
 153 360 153 360 177 360 c 0,28,29
 200 360 200 360 215 379 c 128,-1,30
 230 398 230 398 230 426 c 2,31,-1
 230 606 l 1,32,-1
 -13 606 l 1,33,-1
 -13 606 l 1,0,-1
537 233 m 1,34,35
 475 233 475 233 432.5 274.5 c 128,-1,36
 390 316 390 316 390 373 c 0,37,38
 390 434 390 434 434.5 476.5 c 128,-1,39
 479 519 479 519 543 519 c 0,40,41
 573 519 573 519 600 512.5 c 128,-1,42
 627 506 627 506 650 493 c 1,43,-1
 623 433 l 1,44,45
 606 442 606 442 586 447.5 c 128,-1,46
 566 453 566 453 543 453 c 0,47,48
 507 453 507 453 482 429.5 c 128,-1,49
 457 406 457 406 457 373 c 0,50,51
 457 342 457 342 480 321 c 128,-1,52
 503 300 503 300 537 300 c 0,53,54
 577 300 577 300 615.5 319 c 128,-1,55
 654 338 654 338 683 373 c 1,56,-1
 683 293 l 1,57,58
 654 264 654 264 616 248.5 c 128,-1,59
 578 233 578 233 537 233 c 1,60,-1
 537 233 l 1,34,35
EndSplineSet
LCarets2: 1 0 
Ligature2: "'half' Half Forms in Devanagari lookup 47" u0916 u094D
EndChar

StartChar: u0917_u094D.half
Encoding: 65588 -1 181
Width: 253
GlyphClass: 2
Flags: W
LayerCount: 2
Fore
SplineSet
-13 606 m 1,0,-1
 -13 666 l 1,1,-1
 266 666 l 1,2,-1
 266 606 l 1,3,-1
 192 606 l 1,4,-1
 192 266 l 2,5,6
 192 250 192 250 184 238 c 128,-1,7
 176 226 176 226 165 226 c 0,8,9
 138 226 138 226 78.5 286 c 128,-1,10
 19 346 19 346 19 373 c 0,11,12
 19 389 19 389 27 401 c 128,-1,13
 35 413 35 413 45 413 c 2,14,-1
 99 413 l 2,15,16
 109 413 109 413 117 425 c 128,-1,17
 125 437 125 437 125 453 c 2,18,-1
 125 606 l 1,19,-1
 -13 606 l 1,20,-1
 -13 606 l 1,0,-1
EndSplineSet
LCarets2: 1 0 
Ligature2: "'half' Half Forms in Devanagari lookup 47" u0917 u094D
EndChar

StartChar: u0918_u094D.half
Encoding: 65589 -1 182
Width: 478
GlyphClass: 2
Flags: W
LayerCount: 2
Fore
SplineSet
-13 606 m 1,0,-1
 -13 666 l 1,1,-1
 491 666 l 1,2,-1
 491 606 l 1,3,-1
 158 606 l 1,4,5
 136 587 136 587 124 564.5 c 128,-1,6
 112 542 112 542 112 519 c 0,7,8
 112 483 112 483 139 458 c 128,-1,9
 166 433 166 433 205 433 c 2,10,-1
 318 433 l 1,11,-1
 352 373 l 1,12,-1
 258 373 l 2,13,14
 214 373 214 373 183 341.5 c 128,-1,15
 152 310 152 310 152 266 c 0,16,17
 152 230 152 230 187 205 c 128,-1,18
 222 180 222 180 272 180 c 128,-1,19
 322 180 322 180 382.5 212.5 c 128,-1,20
 443 245 443 245 505 306 c 1,21,-1
 505 226 l 1,22,23
 439 172 439 172 379.5 142.5 c 128,-1,24
 320 113 320 113 272 113 c 0,25,26
 194 113 194 113 139.5 157.5 c 128,-1,27
 85 202 85 202 85 266 c 0,28,29
 85 306 85 306 101 338 c 128,-1,30
 117 370 117 370 145 386 c 1,31,32
 101 398 101 398 73 435.5 c 128,-1,33
 45 473 45 473 45 519 c 0,34,35
 45 538 45 538 54 560.5 c 128,-1,36
 63 583 63 583 79 606 c 1,37,-1
 -13 606 l 1,38,-1
 -13 606 l 1,0,-1
EndSplineSet
LCarets2: 1 0 
Ligature2: "'half' Half Forms in Devanagari lookup 47" u0918 u094D
EndChar

StartChar: u0919_u094D.half
Encoding: 65590 -1 183
Width: 723
GlyphClass: 2
Flags: W
LayerCount: 2
Fore
SplineSet
-13 606 m 1,0,-1
 -13 666 l 1,1,-1
 736 666 l 1,2,-1
 736 606 l 1,3,-1
 530 606 l 1,4,-1
 530 439 l 1,5,-1
 304 439 l 2,6,7
 290 439 290 439 280 431 c 128,-1,8
 270 423 270 423 270 413 c 0,9,10
 270 385 270 385 307.5 342.5 c 128,-1,11
 345 300 345 300 370 300 c 0,12,13
 393 300 393 300 433.5 316.5 c 128,-1,14
 474 333 474 333 497 333 c 0,15,16
 538 333 538 333 567.5 301.5 c 128,-1,17
 597 270 597 270 597 226 c 0,18,19
 597 138 597 138 538 75.5 c 128,-1,20
 479 13 479 13 397 13 c 0,21,22
 304 13 304 13 200 95 c 128,-1,23
 96 177 96 177 17 313 c 1,24,-1
 71 353 l 1,25,26
 149 218 149 218 231 149 c 128,-1,27
 313 80 313 80 397 80 c 0,28,29
 451 80 451 80 490.5 122.5 c 128,-1,30
 530 165 530 165 530 226 c 0,31,32
 530 242 530 242 520 254 c 128,-1,33
 510 266 510 266 497 266 c 0,34,35
 474 266 474 266 433.5 249.5 c 128,-1,36
 393 233 393 233 370 233 c 0,37,38
 326 233 326 233 258 311 c 128,-1,39
 190 389 190 389 190 439 c 0,40,41
 190 465 190 465 211.5 482 c 128,-1,42
 233 499 233 499 264 499 c 2,43,-1
 463 499 l 1,44,-1
 463 606 l 1,45,-1
 -13 606 l 1,46,-1
 -13 606 l 1,0,-1
656 333 m 1,47,48
 634 333 634 333 618.5 347 c 128,-1,49
 603 361 603 361 603 380 c 0,50,51
 603 398 603 398 618.5 412 c 128,-1,52
 634 426 634 426 656 426 c 0,53,54
 679 426 679 426 694.5 412 c 128,-1,55
 710 398 710 398 710 380 c 0,56,57
 710 361 710 361 694.5 347 c 128,-1,58
 679 333 679 333 656 333 c 1,59,-1
 656 333 l 1,47,48
350 -87 m 1,60,-1
 324 -33 l 1,61,-1
 397 0 l 1,62,-1
 637 -180 l 1,63,-1
 597 -220 l 1,64,-1
 397 -60 l 1,65,-1
 350 -87 l 1,66,-1
 350 -87 l 1,60,-1
EndSplineSet
LCarets2: 1 0 
Ligature2: "'half' Half Forms in Devanagari lookup 47" u0919 u094D
EndChar

StartChar: u091A_u094D.half
Encoding: 65591 -1 184
Width: 478
GlyphClass: 2
Flags: W
LayerCount: 2
Fore
SplineSet
292 120 m 1,0,1
 225 120 225 120 178.5 166.5 c 128,-1,2
 132 213 132 213 132 280 c 0,3,4
 132 325 132 325 151 363.5 c 128,-1,5
 170 402 170 402 205 426 c 1,6,-1
 12 426 l 1,7,-1
 12 493 l 1,8,-1
 398 493 l 1,9,-1
 398 426 l 1,10,-1
 318 426 l 1,11,12
 264 401 264 401 231 361 c 128,-1,13
 198 321 198 321 198 280 c 0,14,15
 198 241 198 241 225.5 213.5 c 128,-1,16
 253 186 253 186 292 186 c 0,17,18
 337 186 337 186 394 239.5 c 128,-1,19
 451 293 451 293 505 386 c 1,20,-1
 505 280 l 1,21,22
 453 205 453 205 396.5 162.5 c 128,-1,23
 340 120 340 120 292 120 c 1,24,-1
 292 120 l 1,0,1
-13 606 m 1,25,-1
 -13 666 l 1,26,-1
 491 666 l 1,27,-1
 491 606 l 1,28,-1
 -13 606 l 1,29,-1
 -13 606 l 1,25,-1
EndSplineSet
LCarets2: 1 0 
Ligature2: "'half' Half Forms in Devanagari lookup 47" u091A u094D
EndChar

StartChar: u091B_u094D.half
Encoding: 65592 -1 185
Width: 709
GlyphClass: 2
Flags: W
LayerCount: 2
Fore
SplineSet
310 33 m 1,0,1
 217 33 217 33 150.5 87.5 c 128,-1,2
 84 142 84 142 84 220 c 0,3,4
 84 268 84 268 103.5 308.5 c 128,-1,5
 123 349 123 349 157 373 c 1,6,7
 108 395 108 395 79.5 431 c 128,-1,8
 51 467 51 467 51 506 c 0,9,10
 51 539 51 539 61.5 566 c 128,-1,11
 72 593 72 593 91 606 c 1,12,-1
 -13 606 l 1,13,-1
 -13 666 l 1,14,-1
 723 666 l 1,15,-1
 723 606 l 1,16,-1
 170 606 l 1,17,18
 145 585 145 585 131 559 c 128,-1,19
 117 533 117 533 117 506 c 0,20,21
 117 467 117 467 152.5 440 c 128,-1,22
 188 413 188 413 237 413 c 2,23,-1
 310 413 l 1,24,-1
 310 346 l 1,25,-1
 257 346 l 2,26,27
 213 346 213 346 181.5 309 c 128,-1,28
 150 272 150 272 150 220 c 0,29,30
 150 170 150 170 197 135 c 128,-1,31
 244 100 244 100 310 100 c 0,32,33
 353 100 353 100 395.5 117 c 128,-1,34
 438 134 438 134 477 166 c 1,35,36
 431 212 431 212 407.5 262 c 128,-1,37
 384 312 384 312 384 360 c 0,38,39
 384 421 384 421 425 463.5 c 128,-1,40
 466 506 466 506 523 506 c 0,41,42
 585 506 585 506 627.5 464.5 c 128,-1,43
 670 423 670 423 670 366 c 0,44,45
 670 249 670 249 553.5 141 c 128,-1,46
 437 33 437 33 310 33 c 1,47,-1
 310 33 l 1,0,1
523 220 m 1,48,49
 561 246 561 246 582 285 c 128,-1,50
 603 324 603 324 603 366 c 0,51,52
 603 397 603 397 580 418 c 128,-1,53
 557 439 557 439 523 439 c 0,54,55
 493 439 493 439 471.5 416 c 128,-1,56
 450 393 450 393 450 360 c 0,57,58
 450 318 450 318 469.5 281 c 128,-1,59
 489 244 489 244 523 220 c 1,60,-1
 523 220 l 1,48,49
EndSplineSet
LCarets2: 1 0 
Ligature2: "'half' Half Forms in Devanagari lookup 47" u091B u094D
EndChar

StartChar: u091C_u094D.half
Encoding: 65593 -1 186
Width: 588
GlyphClass: 2
Flags: W
LayerCount: 2
Fore
SplineSet
322 73 m 1,0,1
 248 73 248 73 165.5 173.5 c 128,-1,2
 83 274 83 274 23 439 c 1,3,-1
 83 466 l 1,4,5
 134 322 134 322 200 234 c 128,-1,6
 266 146 266 146 322 146 c 0,7,8
 356 146 356 146 379 171.5 c 128,-1,9
 402 197 402 197 402 233 c 0,10,11
 402 288 402 288 373 346.5 c 128,-1,12
 344 405 344 405 289 459 c 1,13,-1
 615 459 l 1,14,-1
 615 399 l 1,15,-1
 409 399 l 1,16,17
 438 365 438 365 453.5 322.5 c 128,-1,18
 469 280 469 280 469 233 c 0,19,20
 469 166 469 166 426.5 119.5 c 128,-1,21
 384 73 384 73 322 73 c 1,22,-1
 322 73 l 1,0,1
-13 606 m 1,23,-1
 -13 666 l 1,24,-1
 602 666 l 1,25,-1
 602 606 l 1,26,-1
 -13 606 l 1,27,-1
 -13 606 l 1,23,-1
EndSplineSet
LCarets2: 1 0 
Ligature2: "'half' Half Forms in Devanagari lookup 47" u091C u094D
EndChar

StartChar: u091D_u094D.half
Encoding: 65594 -1 187
Width: 544
GlyphClass: 2
Flags: W
LayerCount: 2
Fore
SplineSet
345 -47 m 1,0,1
 338 -36 338 -36 295 -12 c 128,-1,2
 252 12 252 12 218 40 c 1,3,4
 144 40 144 40 91.5 65.5 c 128,-1,5
 39 91 39 91 39 127 c 0,6,7
 39 149 39 149 56 164.5 c 128,-1,8
 73 180 73 180 99 180 c 0,9,10
 134 180 134 180 166 160.5 c 128,-1,11
 198 141 198 141 218 107 c 1,12,13
 286 125 286 125 329 160.5 c 128,-1,14
 372 196 372 196 372 233 c 0,15,16
 372 256 372 256 356.5 271 c 128,-1,17
 341 286 341 286 318 286 c 0,18,19
 298 286 298 286 261.5 269.5 c 128,-1,20
 225 253 225 253 205 253 c 0,21,22
 168 253 168 253 110 318.5 c 128,-1,23
 52 384 52 384 52 426 c 0,24,25
 52 459 52 459 79.5 482.5 c 128,-1,26
 107 506 107 506 145 506 c 2,27,-1
 312 506 l 1,28,-1
 312 606 l 1,29,-1
 -13 606 l 1,30,-1
 -13 666 l 1,31,-1
 558 666 l 1,32,-1
 558 606 l 1,33,-1
 378 606 l 1,34,-1
 378 446 l 1,35,-1
 145 446 l 2,36,37
 134 446 134 446 126.5 440 c 128,-1,38
 119 434 119 434 119 426 c 0,39,40
 119 395 119 395 149.5 357.5 c 128,-1,41
 180 320 180 320 205 320 c 0,42,43
 225 320 225 320 261.5 336.5 c 128,-1,44
 298 353 298 353 318 353 c 0,45,46
 332 353 332 353 350.5 346.5 c 128,-1,47
 369 340 369 340 391 326 c 0,48,49
 409 317 409 317 434 311.5 c 128,-1,50
 459 306 459 306 491 306 c 0,51,52
 515 306 515 306 535 313 c 128,-1,53
 555 320 555 320 571 333 c 1,54,-1
 571 266 l 1,55,56
 545 257 545 257 524 251.5 c 128,-1,57
 503 246 503 246 491 246 c 0,58,59
 470 246 470 246 455.5 248 c 128,-1,60
 441 250 441 250 431 253 c 1,61,62
 434 250 434 250 432.5 239.5 c 128,-1,63
 431 229 431 229 431 220 c 0,64,65
 431 177 431 177 374.5 125 c 128,-1,66
 318 73 318 73 272 73 c 1,67,68
 286 61 286 61 315 42.5 c 128,-1,69
 344 24 344 24 385 0 c 1,70,-1
 345 -47 l 1,71,-1
 345 -47 l 1,0,1
EndSplineSet
LCarets2: 1 0 
Ligature2: "'half' Half Forms in Devanagari lookup 47" u091D u094D
EndChar

StartChar: u091E_u094D.half
Encoding: 65595 -1 188
Width: 459
GlyphClass: 2
Flags: W
LayerCount: 2
Fore
SplineSet
226 120 m 1,0,1
 176 120 176 120 120 148 c 128,-1,2
 64 176 64 176 13 226 c 1,3,-1
 47 273 l 1,4,5
 92 228 92 228 138.5 204 c 128,-1,6
 185 180 185 180 226 180 c 0,7,8
 276 180 276 180 311 219 c 128,-1,9
 346 258 346 258 346 313 c 0,10,11
 346 362 346 362 313 397.5 c 128,-1,12
 280 433 280 433 233 433 c 0,13,14
 206 433 206 433 182 426 c 128,-1,15
 158 419 158 419 140 406 c 1,16,-1
 107 459 l 1,17,18
 134 479 134 479 167 489 c 128,-1,19
 200 499 200 499 233 499 c 0,20,21
 297 499 297 499 345.5 456 c 128,-1,22
 394 413 394 413 406 346 c 1,23,24
 434 336 434 336 452 331 c 128,-1,25
 470 326 470 326 479 326 c 0,26,27
 505 326 505 326 529.5 335 c 128,-1,28
 554 344 554 344 573 360 c 1,29,-1
 573 300 l 1,30,31
 545 286 545 286 519.5 279.5 c 128,-1,32
 494 273 494 273 473 273 c 0,33,34
 465 273 465 273 451.5 277 c 128,-1,35
 438 281 438 281 406 293 c 1,36,37
 399 220 399 220 347.5 170 c 128,-1,38
 296 120 296 120 226 120 c 1,39,-1
 226 120 l 1,0,1
-13 606 m 1,40,-1
 -13 666 l 1,41,-1
 473 666 l 1,42,-1
 473 606 l 1,43,-1
 -13 606 l 1,44,-1
 -13 606 l 1,40,-1
EndSplineSet
LCarets2: 1 0 
Ligature2: "'half' Half Forms in Devanagari lookup 47" u091E u094D
EndChar

StartChar: u091F_u094D.half
Encoding: 65596 -1 189
Width: 565
GlyphClass: 2
Flags: W
LayerCount: 2
Fore
SplineSet
325 13 m 1,0,1
 209 13 209 13 127 95 c 128,-1,2
 45 177 45 177 45 293 c 0,3,4
 45 368 45 368 91.5 420.5 c 128,-1,5
 138 473 138 473 205 473 c 2,6,-1
 385 473 l 1,7,-1
 385 606 l 1,8,-1
 -13 606 l 1,9,-1
 -13 666 l 1,10,-1
 579 666 l 1,11,-1
 579 606 l 1,12,-1
 451 606 l 1,13,-1
 451 406 l 1,14,-1
 205 406 l 2,15,16
 166 406 166 406 139 373 c 128,-1,17
 112 340 112 340 112 293 c 0,18,19
 112 205 112 205 174.5 142.5 c 128,-1,20
 237 80 237 80 325 80 c 0,21,22
 381 80 381 80 427 105 c 128,-1,23
 473 130 473 130 498 173 c 1,24,-1
 551 127 l 1,25,26
 521 75 521 75 460 44 c 128,-1,27
 399 13 399 13 325 13 c 1,28,-1
 325 13 l 1,0,1
278 -120 m 1,29,-1
 238 -73 l 1,30,-1
 325 -27 l 1,31,-1
 565 -206 l 1,32,-1
 525 -246 l 1,33,-1
 325 -87 l 1,34,-1
 278 -120 l 1,35,-1
 278 -120 l 1,29,-1
EndSplineSet
LCarets2: 1 0 
Ligature2: "'half' Half Forms in Devanagari lookup 47" u091F u094D
EndChar

StartChar: u0920_u094D.half
Encoding: 65597 -1 190
Width: 577
GlyphClass: 2
Flags: W
LayerCount: 2
Fore
SplineSet
324 7 m 1,0,1
 220 7 220 7 132 96.5 c 128,-1,2
 44 186 44 186 44 293 c 0,3,4
 44 370 44 370 94.5 424.5 c 128,-1,5
 145 479 145 479 217 479 c 2,6,-1
 384 479 l 1,7,-1
 384 606 l 1,8,-1
 -13 606 l 1,9,-1
 -13 666 l 1,10,-1
 591 666 l 1,11,-1
 591 606 l 1,12,-1
 450 606 l 1,13,-1
 450 413 l 1,14,-1
 217 413 l 2,15,16
 173 413 173 413 142 377.5 c 128,-1,17
 111 342 111 342 111 293 c 0,18,19
 111 212 111 212 178 142.5 c 128,-1,20
 245 73 245 73 324 73 c 0,21,22
 381 73 381 73 422 115.5 c 128,-1,23
 463 158 463 158 463 220 c 0,24,25
 463 252 463 252 451 280 c 128,-1,26
 439 308 439 308 417 326 c 1,27,-1
 470 366 l 1,28,29
 498 342 498 342 514 303.5 c 128,-1,30
 530 265 530 265 530 220 c 0,31,32
 530 132 530 132 469.5 69.5 c 128,-1,33
 409 7 409 7 324 7 c 1,34,-1
 324 7 l 1,0,1
277 -113 m 1,35,-1
 250 -60 l 1,36,-1
 324 -27 l 1,37,-1
 563 -206 l 1,38,-1
 523 -246 l 1,39,-1
 324 -87 l 1,40,-1
 277 -113 l 1,41,-1
 277 -113 l 1,35,-1
EndSplineSet
LCarets2: 1 0 
Ligature2: "'half' Half Forms in Devanagari lookup 47" u0920 u094D
EndChar

StartChar: u0921_u094D.half
Encoding: 65598 -1 191
Width: 631
GlyphClass: 2
Flags: W
LayerCount: 2
Fore
SplineSet
385 13 m 1,0,1
 290 13 290 13 167 111 c 128,-1,2
 44 209 44 209 19 306 c 1,3,-1
 72 340 l 1,4,5
 95 254 95 254 200 167 c 128,-1,6
 305 80 305 80 385 80 c 0,7,8
 439 80 439 80 478.5 121 c 128,-1,9
 518 162 518 162 518 220 c 0,10,11
 518 236 518 236 508 248 c 128,-1,12
 498 260 498 260 485 260 c 0,13,14
 463 260 463 260 424.5 246.5 c 128,-1,15
 386 233 386 233 365 233 c 0,16,17
 313 233 313 233 249 299.5 c 128,-1,18
 185 366 185 366 185 419 c 0,19,20
 185 453 185 453 212.5 476 c 128,-1,21
 240 499 240 499 278 499 c 2,22,-1
 458 499 l 1,23,-1
 458 606 l 1,24,-1
 -13 606 l 1,25,-1
 -13 666 l 1,26,-1
 644 666 l 1,27,-1
 644 606 l 1,28,-1
 525 606 l 1,29,-1
 525 433 l 1,30,-1
 278 433 l 2,31,32
 270 433 270 433 264 427 c 128,-1,33
 258 421 258 421 258 413 c 0,34,35
 258 385 258 385 298 342.5 c 128,-1,36
 338 300 338 300 365 300 c 0,37,38
 386 300 386 300 424.5 313 c 128,-1,39
 463 326 463 326 485 326 c 0,40,41
 526 326 526 326 555.5 295 c 128,-1,42
 585 264 585 264 585 220 c 0,43,44
 585 134 585 134 526 73.5 c 128,-1,45
 467 13 467 13 385 13 c 1,46,-1
 385 13 l 1,0,1
338 -107 m 1,47,-1
 312 -53 l 1,48,-1
 385 -20 l 1,49,-1
 625 -200 l 1,50,-1
 585 -240 l 1,51,-1
 385 -80 l 1,52,-1
 338 -107 l 1,53,-1
 338 -107 l 1,47,-1
EndSplineSet
LCarets2: 1 0 
Ligature2: "'half' Half Forms in Devanagari lookup 47" u0921 u094D
EndChar

StartChar: u0922_u094D.half
Encoding: 65599 -1 192
Width: 579
GlyphClass: 2
Flags: W
LayerCount: 2
Fore
SplineSet
-13 606 m 1,0,-1
 -13 666 l 1,1,-1
 593 666 l 1,2,-1
 593 606 l 1,3,-1
 455 606 l 1,4,-1
 455 406 l 1,5,-1
 196 406 l 2,6,7
 160 406 160 406 134.5 375 c 128,-1,8
 109 344 109 344 109 300 c 0,9,10
 109 222 109 222 178.5 151 c 128,-1,11
 248 80 248 80 329 73 c 1,12,13
 306 92 306 92 294 122 c 128,-1,14
 282 152 282 152 282 186 c 0,15,16
 282 238 282 238 319.5 275.5 c 128,-1,17
 357 313 357 313 409 313 c 0,18,19
 463 313 463 313 502.5 273.5 c 128,-1,20
 542 234 542 234 542 180 c 0,21,22
 542 111 542 111 479.5 62 c 128,-1,23
 417 13 417 13 329 13 c 0,24,25
 222 13 222 13 132.5 103 c 128,-1,26
 43 193 43 193 43 300 c 0,27,28
 43 372 43 372 87.5 422.5 c 128,-1,29
 132 473 132 473 196 473 c 2,30,-1
 389 473 l 1,31,-1
 389 606 l 1,32,-1
 -13 606 l 1,33,-1
 -13 606 l 1,0,-1
395 80 m 1,34,35
 430 87 430 87 452.5 114.5 c 128,-1,36
 475 142 475 142 475 180 c 0,37,38
 475 208 475 208 456 227 c 128,-1,39
 437 246 437 246 409 246 c 0,40,41
 384 246 384 246 366.5 229 c 128,-1,42
 349 212 349 212 349 186 c 0,43,44
 349 154 349 154 361 126.5 c 128,-1,45
 373 99 373 99 395 80 c 1,46,-1
 395 80 l 1,34,35
282 -120 m 1,47,-1
 256 -67 l 1,48,-1
 329 -33 l 1,49,-1
 569 -213 l 1,50,-1
 529 -253 l 1,51,-1
 329 -93 l 1,52,-1
 282 -120 l 1,53,-1
 282 -120 l 1,47,-1
EndSplineSet
LCarets2: 1 0 
Ligature2: "'half' Half Forms in Devanagari lookup 47" u0922 u094D
EndChar

StartChar: u0923_u094D.half
Encoding: 65600 -1 193
Width: 454
GlyphClass: 2
Flags: W
LayerCount: 2
Fore
SplineSet
-13 606 m 1,0,-1
 -13 666 l 1,1,-1
 467 666 l 1,2,-1
 467 606 l 1,3,-1
 390 606 l 1,4,-1
 390 313 l 2,5,6
 390 252 390 252 343.5 209 c 128,-1,7
 297 166 297 166 230 166 c 0,8,9
 161 166 161 166 112.5 209 c 128,-1,10
 64 252 64 252 64 313 c 2,11,-1
 64 606 l 1,12,-1
 -13 606 l 1,13,-1
 -13 606 l 1,0,-1
230 226 m 1,14,15
 269 226 269 226 296.5 251.5 c 128,-1,16
 324 277 324 277 324 313 c 2,17,-1
 324 606 l 1,18,-1
 130 606 l 1,19,-1
 130 313 l 2,20,21
 130 277 130 277 159.5 251.5 c 128,-1,22
 189 226 189 226 230 226 c 1,23,-1
 230 226 l 1,14,15
EndSplineSet
LCarets2: 1 0 
Ligature2: "'half' Half Forms in Devanagari lookup 47" u0923 u094D
EndChar

StartChar: u0924_u094D.half
Encoding: 65601 -1 194
Width: 376
GlyphClass: 2
Flags: W
LayerCount: 2
Fore
SplineSet
250 20 m 1,0,1
 149 105 149 105 93 189 c 128,-1,2
 37 273 37 273 37 340 c 0,3,4
 37 394 37 394 83.5 433.5 c 128,-1,5
 130 473 130 473 197 473 c 2,6,-1
 403 473 l 1,7,-1
 403 413 l 1,8,-1
 197 413 l 2,9,10
 158 413 158 413 131 391.5 c 128,-1,11
 104 370 104 370 104 340 c 0,12,13
 104 281 104 281 152.5 207.5 c 128,-1,14
 201 134 201 134 290 60 c 1,15,-1
 250 20 l 1,16,-1
 250 20 l 1,0,1
-13 606 m 1,17,-1
 -13 666 l 1,18,-1
 390 666 l 1,19,-1
 390 606 l 1,20,-1
 -13 606 l 1,21,-1
 -13 606 l 1,17,-1
EndSplineSet
LCarets2: 1 0 
Ligature2: "'half' Half Forms in Devanagari lookup 47" u0924 u094D
EndChar

StartChar: u0925_u094D.half
Encoding: 65602 -1 195
Width: 541
GlyphClass: 2
Flags: W
LayerCount: 2
Fore
SplineSet
309 120 m 1,0,1
 222 120 222 120 147 180.5 c 128,-1,2
 72 241 72 241 36 340 c 1,3,-1
 156 340 l 2,4,5
 222 340 222 340 269 381 c 128,-1,6
 316 422 316 422 316 479 c 0,7,8
 316 531 316 531 278.5 568.5 c 128,-1,9
 241 606 241 606 189 606 c 0,10,11
 156 606 156 606 132.5 584.5 c 128,-1,12
 109 563 109 563 109 533 c 0,13,14
 109 507 109 507 136.5 490 c 128,-1,15
 164 473 164 473 202 473 c 1,16,-1
 202 413 l 1,17,18
 136 413 136 413 89.5 448 c 128,-1,19
 43 483 43 483 43 533 c 0,20,21
 43 590 43 590 85.5 631 c 128,-1,22
 128 672 128 672 189 672 c 0,23,24
 269 672 269 672 325.5 615.5 c 128,-1,25
 382 559 382 559 382 479 c 0,26,27
 382 397 382 397 312 338.5 c 128,-1,28
 242 280 242 280 142 280 c 1,29,30
 169 233 169 233 213.5 206.5 c 128,-1,31
 258 180 258 180 309 180 c 0,32,33
 380 180 380 180 449 230 c 128,-1,34
 518 280 518 280 569 366 c 1,35,-1
 569 266 l 1,36,37
 521 197 521 197 451.5 158.5 c 128,-1,38
 382 120 382 120 309 120 c 1,39,-1
 309 120 l 1,0,1
409 606 m 1,40,-1
 409 666 l 1,41,-1
 555 666 l 1,42,-1
 555 606 l 1,43,-1
 409 606 l 1,44,-1
 409 606 l 1,40,-1
EndSplineSet
LCarets2: 1 0 
Ligature2: "'half' Half Forms in Devanagari lookup 47" u0925 u094D
EndChar

StartChar: u0926_u094D.half
Encoding: 65603 -1 196
Width: 549
GlyphClass: 2
Flags: W
LayerCount: 2
Fore
SplineSet
172 -20 m 1,0,-1
 258 20 l 1,1,-1
 478 -146 l 1,2,-1
 438 -186 l 1,3,-1
 252 -47 l 1,4,-1
 198 -67 l 1,5,-1
 172 -20 l 1,6,-1
 172 -20 l 1,0,-1
-13 606 m 1,7,-1
 -13 666 l 1,8,-1
 563 666 l 1,9,-1
 563 606 l 1,10,-1
 451 606 l 1,11,-1
 451 433 l 1,12,-1
 198 433 l 2,13,14
 160 433 160 433 132.5 405.5 c 128,-1,15
 105 378 105 378 105 340 c 0,16,17
 105 264 105 264 174.5 218.5 c 128,-1,18
 244 173 244 173 358 173 c 1,19,20
 357 181 357 181 355.5 190.5 c 128,-1,21
 354 200 354 200 354 210 c 0,22,23
 354 245 354 245 374.5 269 c 128,-1,24
 395 293 395 293 425 293 c 0,25,26
 453 293 453 293 472 275.5 c 128,-1,27
 491 258 491 258 491 233 c 0,28,29
 491 198 491 198 476.5 171.5 c 128,-1,30
 462 145 462 145 438 133 c 1,31,32
 449 103 449 103 464 71 c 128,-1,33
 479 39 479 39 498 7 c 1,34,-1
 438 -20 l 1,35,-1
 372 113 l 1,36,37
 221 113 221 113 130 175 c 128,-1,38
 39 237 39 237 39 340 c 0,39,40
 39 406 39 406 85.5 452.5 c 128,-1,41
 132 499 132 499 198 499 c 2,42,-1
 385 499 l 1,43,-1
 385 606 l 1,44,-1
 -13 606 l 1,45,-1
 -13 606 l 1,7,-1
EndSplineSet
LCarets2: 1 0 
Ligature2: "'half' Half Forms in Devanagari lookup 47" u0926 u094D
EndChar

StartChar: u0927_u094D.half
Encoding: 65604 -1 197
Width: 490
GlyphClass: 2
Flags: W
LayerCount: 2
Fore
SplineSet
277 107 m 1,0,1
 202 107 202 107 149.5 149.5 c 128,-1,2
 97 192 97 192 97 253 c 0,3,4
 97 289 97 289 113 319.5 c 128,-1,5
 129 350 129 350 157 366 c 1,6,7
 103 391 103 391 70 440 c 128,-1,8
 37 489 37 489 37 546 c 0,9,10
 37 601 37 601 76.5 640 c 128,-1,11
 116 679 116 679 170 679 c 0,12,13
 222 679 222 679 259.5 648 c 128,-1,14
 297 617 297 617 297 573 c 0,15,16
 297 531 297 531 261.5 502 c 128,-1,17
 226 473 226 473 177 473 c 1,18,-1
 177 533 l 1,19,20
 200 533 200 533 215 545 c 128,-1,21
 230 557 230 557 230 573 c 256,22,23
 230 589 230 589 213 601 c 128,-1,24
 196 613 196 613 170 613 c 0,25,26
 142 613 142 613 123 593.5 c 128,-1,27
 104 574 104 574 104 546 c 0,28,29
 104 498 104 498 133 457.5 c 128,-1,30
 162 417 162 417 210 399 c 1,31,32
 237 409 237 409 257.5 414 c 128,-1,33
 278 419 278 419 290 419 c 2,34,-1
 357 419 l 1,35,-1
 390 366 l 1,36,-1
 310 366 l 2,37,38
 246 366 246 366 201.5 333 c 128,-1,39
 157 300 157 300 157 253 c 0,40,41
 157 217 157 217 192.5 191.5 c 128,-1,42
 228 166 228 166 277 166 c 0,43,44
 328 166 328 166 390.5 208 c 128,-1,45
 453 250 453 250 517 326 c 1,46,-1
 517 240 l 1,47,48
 453 176 453 176 390.5 141.5 c 128,-1,49
 328 107 328 107 277 107 c 1,50,-1
 277 107 l 1,0,1
350 606 m 1,51,-1
 350 666 l 1,52,-1
 503 666 l 1,53,-1
 503 606 l 1,54,-1
 350 606 l 1,55,-1
 350 606 l 1,51,-1
EndSplineSet
LCarets2: 1 0 
Ligature2: "'half' Half Forms in Devanagari lookup 47" u0927 u094D
EndChar

StartChar: u0928_u094D.half
Encoding: 65605 -1 198
Width: 394
GlyphClass: 2
Flags: W
LayerCount: 2
Fore
SplineSet
148 233 m 1,0,1
 121 233 121 233 71 299 c 128,-1,2
 21 365 21 365 21 399 c 0,3,4
 21 413 21 413 35 423 c 128,-1,5
 49 433 49 433 68 433 c 2,6,-1
 421 433 l 1,7,-1
 421 373 l 1,8,-1
 214 373 l 2,9,10
 198 373 198 373 186 365 c 128,-1,11
 174 357 174 357 174 346 c 2,12,-1
 174 273 l 2,13,14
 174 257 174 257 166 245 c 128,-1,15
 158 233 158 233 148 233 c 1,16,-1
 148 233 l 1,0,1
-13 606 m 1,17,-1
 -13 666 l 1,18,-1
 407 666 l 1,19,-1
 407 606 l 1,20,-1
 -13 606 l 1,21,-1
 -13 606 l 1,17,-1
EndSplineSet
LCarets2: 1 0 
Ligature2: "'half' Half Forms in Devanagari lookup 47" u0928 u094D
EndChar

StartChar: u0929_u094D.half
Encoding: 65606 -1 199
Width: 394
GlyphClass: 2
Flags: W
LayerCount: 2
Fore
SplineSet
148 233 m 1,0,1
 121 233 121 233 71 299 c 128,-1,2
 21 365 21 365 21 399 c 0,3,4
 21 413 21 413 35 423 c 128,-1,5
 49 433 49 433 68 433 c 2,6,-1
 421 433 l 1,7,-1
 421 373 l 1,8,-1
 214 373 l 2,9,10
 198 373 198 373 186 365 c 128,-1,11
 174 357 174 357 174 346 c 2,12,-1
 174 273 l 2,13,14
 174 257 174 257 166 245 c 128,-1,15
 158 233 158 233 148 233 c 1,16,-1
 148 233 l 1,0,1
-13 606 m 1,17,-1
 -13 666 l 1,18,-1
 407 666 l 1,19,-1
 407 606 l 1,20,-1
 -13 606 l 1,21,-1
 -13 606 l 1,17,-1
261 -7 m 1,22,-1
 208 40 l 1,23,-1
 261 93 l 1,24,-1
 314 40 l 1,25,-1
 261 -7 l 1,26,-1
 261 -7 l 1,22,-1
EndSplineSet
LCarets2: 1 0 
Ligature2: "'half' Half Forms in Devanagari lookup 47" u0929 u094D
Ligature2: "'half' Half Forms in Devanagari lookup 47" u0929 u094D
EndChar

StartChar: u092A_u094D.half
Encoding: 65607 -1 200
Width: 352
GlyphClass: 2
Flags: W
LayerCount: 2
Fore
SplineSet
-13 606 m 1,0,-1
 -13 666 l 1,1,-1
 366 666 l 1,2,-1
 366 606 l 1,3,-1
 120 606 l 1,4,-1
 120 393 l 2,5,6
 120 341 120 341 155 303.5 c 128,-1,7
 190 266 190 266 240 266 c 0,8,9
 281 266 281 266 319 295 c 128,-1,10
 357 324 357 324 380 373 c 1,11,-1
 380 280 l 1,12,13
 356 245 356 245 318.5 225.5 c 128,-1,14
 281 206 281 206 240 206 c 0,15,16
 162 206 162 206 107.5 263 c 128,-1,17
 53 320 53 320 53 399 c 2,18,-1
 53 606 l 1,19,-1
 -13 606 l 1,20,-1
 -13 606 l 1,0,-1
EndSplineSet
LCarets2: 1 0 
Ligature2: "'half' Half Forms in Devanagari lookup 47" u092A u094D
EndChar

